<?xml version="1.0" encoding="UTF-8" standalone="no"?>
<svg width="60px" height="50px" viewBox="0 0 60 50" version="1.1" xmlns="http://www.w3.org/2000/svg" xmlns:xlink="http://www.w3.org/1999/xlink">
    <!-- Generator: Sketch 42 (36781) - http://www.bohemiancoding.com/sketch -->
    <title>IntructorTraining_68</title>
    <desc>Created with Sketch.</desc>
    <defs>
        <path d="M3.4394383,28 L51,28 L51,0 L0,0 L0,14.0137173 C3.9771682,14.2493862 7.0706632,17.4931983 7.0706632,21.5353316 C7.0706632,24.298662 5.6249112,26.6888952 3.4394383,28 Z" id="path-1"></path>
    </defs>
    <g id="Page-1" stroke="none" stroke-width="1" fill="none" fill-rule="evenodd">
        <g id="Training" transform="translate(-411.000000, -567.000000)">
            <g id="IntructorTraining_68" transform="translate(407.000000, 559.000000)">
                <g id="Page-1">
                    <g>
                        <rect id="Boarder" x="0" y="0" width="68" height="68"></rect>
                        <g id="IntructorTraining_68" transform="translate(4.000000, 8.000000)">
                            <g id="Combined-Shape-Clipped" transform="translate(9.000000, 0.000000)">
                                <mask id="mask-2" fill="white">
                                    <use xlink:href="#path-1"></use>
                                </mask>
                                <g id="path-1"></g>
                                <g id="Combined-Shape" mask="url(#mask-2)" stroke="#1488C6" stroke-width="4">
                                    <path d="M3.4394383,28 L51,28 L51,0 L0,0 L0,14.0137173 C3.9771682,14.2493862 7.0706632,17.4931983 7.0706632,21.5353316 C7.0706632,24.298662 5.6249112,26.6888952 3.4394383,28 Z" id="path-1"></path>
                                </g>
                            </g>
                            <g id="moby_48" transform="translate(24.000000, 4.000000)">
                                <g id="Group">
                                    <g id="Shape">
                                        <polygon points="0 0 21 0 21 21 0 21"></polygon>
                                        <path d="M19.271875,8.9971875 C18.902625,8.736 18.0403125,8.638 17.378375,8.7688125 C17.301375,8.099 16.9474375,7.5271875 16.316125,7.0048125 L15.9621875,6.7431875 L15.715875,7.1351875 C15.4083125,7.6251875 15.2543125,8.3278125 15.30025,8.981 C15.3155625,9.2098125 15.3925625,9.6341875 15.624,9.9938125 C15.3925625,10.1241875 14.961625,10.304 14.361375,10.2878125 L3.12375,10.2878125 L3.1084375,10.4181875 C3.000375,11.088 3.000375,13.1621875 4.2783125,14.7468125 C5.2325,15.9551875 6.67975,16.5598125 8.5421875,16.5598125 C12.6214375,16.5598125 15.623125,14.567 17.0393125,10.9248125 C17.593625,10.941 18.794125,10.9248125 19.394375,9.6831875 C19.410125,9.6508125 19.44075,9.5851875 19.548375,9.3401875 L19.6100625,9.2098125 L19.2714375,8.9971875 L19.271875,8.9971875 Z M12.0063125,6.335 L10.2974375,6.335 L10.2974375,7.984375 L12.0063125,7.984375 L12.0063125,6.335 Z M12.0063125,8.295 L10.2974375,8.295 L10.2974375,9.944375 L12.0063125,9.944375 L12.0063125,8.295 Z M12.0063125,4.375 L10.2974375,4.375 L10.2974375,6.024375 L12.0063125,6.024375 L12.0063125,4.375 Z M14.0074375,8.295 L12.298125,8.295 L12.298125,9.944375 L14.007,9.944375 L14.007,8.295 L14.0074375,8.295 Z M10.0051875,6.335 L8.2963125,6.335 L8.2963125,7.984375 L10.0051875,7.984375 L10.0051875,6.335 Z M6.0025,8.295 L4.2940625,8.295 L4.2940625,9.944375 L6.0025,9.944375 L6.0025,8.295 L6.0025,8.295 Z M8.003625,8.295 L6.295625,8.295 L6.295625,9.944375 L8.0040625,9.944375 L8.0040625,8.295 L8.003625,8.295 Z M10.0051875,8.295 L8.2963125,8.295 L8.2963125,9.944375 L10.0051875,9.944375 L10.0051875,8.295 Z M8.003625,6.335 L6.295625,6.335 L6.295625,7.984375 L8.0040625,7.984375 L8.0040625,6.335 L8.003625,6.335 Z" fill="#2089C4"></path>
                                    </g>
                                </g>
                            </g>
                            <g id="Group-2" transform="translate(0.000000, 16.000000)" fill="#2089C4">
                                <path d="M10.3364488,14.091309 C10.3364488,16.0933986 8.6105158,16.0933986 8.6105158,16.0933986 C8.6105158,16.0933986 6.88458279,16.0099782 6.88458279,14.091309 C6.88458279,12.0892193 3.60531007,13.0902642 1.87937706,15.1757742 C0.153444048,17.1778638 -0.882115759,20.1809983 1.01641055,21.1820431 C2.91493687,22.0996676 8.6105158,24.6857 8.6105158,24.6857 C8.6105158,24.6857 14.3060947,22.0996676 16.2046211,21.0986227 C18.1031474,20.0975779 17.0675876,17.1778638 15.3416545,15.0923538 C13.7020182,13.0902642 10.3364488,12.0892193 10.3364488,14.091309 L10.3364488,14.091309 Z" id="Combined-Shape"></path>
                                <path d="M8.53533159,0.790761656 C11.1448451,0.790761656 13.2799015,2.92581813 13.2799015,5.53533159 C13.2799015,8.14484505 11.1448451,10.2799015 8.53533159,10.2799015 C5.92581813,10.2799015 3.79076166,8.14484505 3.79076166,5.53533159 C3.79076166,2.92581813 5.92581813,0.790761656 8.53533159,0.790761656 L8.53533159,0.790761656 Z M8.53533159,0 C5.45136113,0 3,2.45136113 3,5.53533159 C3,8.61930205 5.45136113,11.0706632 8.53533159,11.0706632 C11.619302,11.0706632 14.0706632,8.61930205 14.0706632,5.53533159 C14.0706632,2.45136113 11.619302,0 8.53533159,0 Z" id="path-1_1_"></path>
                            </g>
                            <g id="Group-3" transform="translate(19.000000, 37.000000)" fill="#2089C4">
                                <g id="Group-2">
                                    <path d="M5.16822441,7.04565449 C5.16822441,8.04669931 4.3052579,8.04669931 4.3052579,8.04669931 C4.3052579,8.04669931 3.4422914,8.00498911 3.4422914,7.04565449 C3.4422914,6.04460967 1.80265504,6.54513208 0.93968853,7.5878871 C0.0767220241,8.58893192 -0.441057879,10.0904992 0.508205277,10.5910216 C1.45746843,11.0498338 4.3052579,12.34285 4.3052579,12.34285 C4.3052579,12.34285 7.15304737,11.0498338 8.10231053,10.5493114 C9.05157368,10.048789 8.53379378,8.58893192 7.67082727,7.5461769 C6.85100909,6.54513208 5.16822441,6.04460967 5.16822441,7.04565449 L5.16822441,7.04565449 Z" id="Combined-Shape"></path>
                                    <path d="M4.26766579,0.395380828 C5.57242253,0.395380828 6.63995076,1.46290906 6.63995076,2.76766579 C6.63995076,4.07242253 5.57242253,5.13995076 4.26766579,5.13995076 C2.96290906,5.13995076 1.89538083,4.07242253 1.89538083,2.76766579 C1.89538083,1.46290906 2.96290906,0.395380828 4.26766579,0.395380828 L4.26766579,0.395380828 Z M4.26766579,0 C2.72568057,0 1.5,1.22568057 1.5,2.76766579 C1.5,4.30965102 2.72568057,5.53533159 4.26766579,5.53533159 C5.80965102,5.53533159 7.03533159,4.30965102 7.03533159,2.76766579 C7.03533159,1.22568057 5.80965102,0 4.26766579,0 Z" id="path-1_1_"></path>
                                </g>
                                <g id="Group-2-Copy" transform="translate(11.000000, 0.000000)">
                                    <path d="M5.16822441,7.04565449 C5.16822441,8.04669931 4.3052579,8.04669931 4.3052579,8.04669931 C4.3052579,8.04669931 3.4422914,8.00498911 3.4422914,7.04565449 C3.4422914,6.04460967 1.80265504,6.54513208 0.93968853,7.5878871 C0.0767220241,8.58893192 -0.441057879,10.0904992 0.508205277,10.5910216 C1.45746843,11.0498338 4.3052579,12.34285 4.3052579,12.34285 C4.3052579,12.34285 7.15304737,11.0498338 8.10231053,10.5493114 C9.05157368,10.048789 8.53379378,8.58893192 7.67082727,7.5461769 C6.85100909,6.54513208 5.16822441,6.04460967 5.16822441,7.04565449 L5.16822441,7.04565449 Z" id="Combined-Shape"></path>
                                    <path d="M4.26766579,0.395380828 C5.57242253,0.395380828 6.63995076,1.46290906 6.63995076,2.76766579 C6.63995076,4.07242253 5.57242253,5.13995076 4.26766579,5.13995076 C2.96290906,5.13995076 1.89538083,4.07242253 1.89538083,2.76766579 C1.89538083,1.46290906 2.96290906,0.395380828 4.26766579,0.395380828 L4.26766579,0.395380828 Z M4.26766579,0 C2.72568057,0 1.5,1.22568057 1.5,2.76766579 C1.5,4.30965102 2.72568057,5.53533159 4.26766579,5.53533159 C5.80965102,5.53533159 7.03533159,4.30965102 7.03533159,2.76766579 C7.03533159,1.22568057 5.80965102,0 4.26766579,0 Z" id="path-1_1_"></path>
                                </g>
                                <g id="Group-2-Copy-2" transform="translate(22.000000, 0.000000)">
                                    <path d="M5.16822441,7.04565449 C5.16822441,8.04669931 4.3052579,8.04669931 4.3052579,8.04669931 C4.3052579,8.04669931 3.4422914,8.00498911 3.4422914,7.04565449 C3.4422914,6.04460967 1.80265504,6.54513208 0.93968853,7.5878871 C0.0767220241,8.58893192 -0.441057879,10.0904992 0.508205277,10.5910216 C1.45746843,11.0498338 4.3052579,12.34285 4.3052579,12.34285 C4.3052579,12.34285 7.15304737,11.0498338 8.10231053,10.5493114 C9.05157368,10.048789 8.53379378,8.58893192 7.67082727,7.5461769 C6.85100909,6.54513208 5.16822441,6.04460967 5.16822441,7.04565449 L5.16822441,7.04565449 Z" id="Combined-Shape"></path>
                                    <path d="M4.26766579,0.395380828 C5.57242253,0.395380828 6.63995076,1.46290906 6.63995076,2.76766579 C6.63995076,4.07242253 5.57242253,5.13995076 4.26766579,5.13995076 C2.96290906,5.13995076 1.89538083,4.07242253 1.89538083,2.76766579 C1.89538083,1.46290906 2.96290906,0.395380828 4.26766579,0.395380828 L4.26766579,0.395380828 Z M4.26766579,0 C2.72568057,0 1.5,1.22568057 1.5,2.76766579 C1.5,4.30965102 2.72568057,5.53533159 4.26766579,5.53533159 C5.80965102,5.53533159 7.03533159,4.30965102 7.03533159,2.76766579 C7.03533159,1.22568057 5.80965102,0 4.26766579,0 Z" id="path-1_1_"></path>
                                </g>
                            </g>
                        </g>
                    </g>
                </g>
            </g>
        </g>
    </g>
</svg>