<svg xmlns="http://www.w3.org/2000/svg" width="156" height="30" viewBox="0 0 156 30">
    <g fill="none" fill-rule="evenodd">
        <path fill="#0D9CEC" d="M92.616 15.037c0-.152-.03-.297-.09-.434a1.261 1.261 0 0 0-.242-.363 1.06 1.06 0 0 0-.353-.244 1.107 1.107 0 0 0-.44-.087c-.22 0-.42.058-.599.173l-6.402 4.22v-8.46c0-.32-.11-.588-.327-.81-.218-.22-.48-.33-.787-.33-.314 0-.58.11-.798.33-.218.222-.326.49-.326.81v15.077c0 .311.108.579.326.803.218.224.484.336.798.336.307 0 .569-.112.787-.336.217-.224.327-.492.327-.803v-3.916l1.306-.868 4.946 5.63c.2.195.45.293.75.293.157 0 .303-.03.44-.087.134-.058.252-.139.352-.244.1-.105.18-.226.241-.363.06-.138.091-.282.091-.434 0-.297-.103-.56-.31-.792l-4.604-5.25 4.486-2.95c.285-.196.428-.496.428-.901zm-18.588 2.25a3.85 3.85 0 0 1 1.2-.813c.456-.199.945-.298 1.466-.298.471 0 .907.08 1.306.238.4.16.782.394 1.146.706.214.173.457.26.728.26.321 0 .587-.108.798-.326a1.12 1.12 0 0 0 .315-.813c0-.34-.128-.625-.385-.857-1.1-.984-2.402-1.475-3.908-1.475-1.656 0-3.07.593-4.24 1.779-1.17 1.186-1.756 2.618-1.756 4.295 0 1.678.586 3.11 1.756 4.296 1.17 1.186 2.584 1.779 4.24 1.779 1.5 0 2.802-.492 3.908-1.475.236-.239.354-.517.354-.836 0-.325-.106-.595-.317-.808a1.074 1.074 0 0 0-.797-.32 1.19 1.19 0 0 0-.707.239c-.357.31-.735.544-1.135.7-.4.155-.835.233-1.306.233-.521 0-1.01-.1-1.467-.299a3.785 3.785 0 0 1-2.302-3.51 3.79 3.79 0 0 1 1.103-2.696zm-7.115 4.166a3.824 3.824 0 0 1-1.997 2.034 3.583 3.583 0 0 1-1.467.304c-.528 0-1.02-.101-1.478-.304a3.798 3.798 0 0 1-1.188-.819 3.881 3.881 0 0 1-.798-1.21 3.74 3.74 0 0 1-.294-1.475c0-.52.098-1.012.294-1.475.197-.463.462-.866.798-1.21a3.792 3.792 0 0 1 1.188-.818c.457-.203.95-.304 1.478-.304.521 0 1.01.101 1.467.304a3.81 3.81 0 0 1 1.194.824c.339.347.607.75.803 1.21.196.459.294.949.294 1.47 0 .52-.098 1.01-.294 1.47zm.776-5.765c-1.185-1.186-2.598-1.78-4.24-1.78-1.656 0-3.07.594-4.24 1.78-1.17 1.186-1.756 2.618-1.756 4.295 0 1.678.585 3.11 1.756 4.296 1.17 1.186 2.584 1.779 4.24 1.779 1.642 0 3.055-.593 4.24-1.78 1.17-1.17 1.756-2.602 1.756-4.295a6.309 6.309 0 0 0-.444-2.332 5.96 5.96 0 0 0-1.312-1.963zm-14.043 5.765a3.821 3.821 0 0 1-1.997 2.034 3.58 3.58 0 0 1-1.467.304c-.528 0-1.02-.101-1.477-.304a3.796 3.796 0 0 1-1.189-.819 3.881 3.881 0 0 1-.798-1.21 3.74 3.74 0 0 1-.294-1.475c0-.52.098-1.012.294-1.475.197-.463.463-.866.798-1.21a3.79 3.79 0 0 1 1.189-.818c.457-.203.95-.304 1.477-.304.522 0 1.01.101 1.467.304.457.202.855.477 1.194.824.34.347.607.75.803 1.21.197.459.295.949.295 1.47 0 .52-.098 1.01-.295 1.47zm1.408-12.751c-.321 0-.587.107-.798.32-.21.213-.315.483-.315.808v5.413c-1.085-.89-2.338-1.334-3.759-1.334-1.656 0-3.069.593-4.24 1.779-1.17 1.186-1.756 2.618-1.756 4.295 0 1.678.586 3.11 1.756 4.296 1.171 1.186 2.584 1.779 4.24 1.779 1.642 0 3.056-.593 4.24-1.78 1.171-1.17 1.756-2.602 1.756-4.295V9.83c0-.325-.108-.595-.326-.808a1.097 1.097 0 0 0-.798-.32zm60.755 5.966a2.11 2.11 0 0 0-.755-.46 4.34 4.34 0 0 0-.996-.234 8.45 8.45 0 0 0-1.012-.065c-.714 0-1.385.116-2.012.347a6.103 6.103 0 0 0-1.746.998v-.217c0-.311-.109-.577-.327-.797-.218-.22-.48-.331-.786-.331-.315 0-.58.11-.798.33-.218.221-.327.487-.327.798v9.893c0 .31.11.576.327.797.217.22.483.331.798.331.306 0 .568-.11.786-.331.218-.22.327-.486.327-.797v-4.947a3.83 3.83 0 0 1 1.098-2.696 3.773 3.773 0 0 1 1.193-.813 3.63 3.63 0 0 1 1.467-.298c.529 0 1.017.09 1.467.271.178.08.336.12.471.12.157 0 .303-.03.44-.087.135-.058.253-.14.352-.244.1-.105.18-.226.241-.364.061-.137.091-.286.091-.445 0-.31-.1-.564-.3-.759zm-19.595 4.187c.114-.397.29-.761.525-1.09.235-.329.514-.611.835-.846.321-.235.675-.418 1.06-.548a3.694 3.694 0 0 1 2.372 0 3.831 3.831 0 0 1 1.884 1.394c.239.329.42.693.54 1.09h-7.216zm7.848-3.167c-1.184-1.186-2.598-1.78-4.24-1.78-1.656 0-3.07.594-4.24 1.78-1.17 1.186-1.756 2.618-1.756 4.295 0 1.678.586 3.11 1.756 4.296 1.17 1.186 2.584 1.779 4.24 1.779 1.507 0 2.813-.492 3.92-1.475.214-.225.32-.496.32-.814 0-.325-.105-.595-.316-.808a1.072 1.072 0 0 0-.797-.32c-.279.007-.525.101-.739.282a3.55 3.55 0 0 1-1.092.651 3.724 3.724 0 0 1-1.296.217 3.68 3.68 0 0 1-1.194-.195 3.785 3.785 0 0 1-2.414-2.484h8.48c.314 0 .58-.107.798-.32.218-.214.326-.483.326-.809 0-.839-.146-1.618-.438-2.337a5.91 5.91 0 0 0-1.318-1.958zM24.021 13.6h4.385v-4H24.02v4zm-5.183 0h4.385v-4h-4.385v4zm-5.182 0h4.385v-4h-4.385v4zm-5.183 0h4.385v-4H8.473v4zm-5.182 0h4.385v-4H3.291v4zm5.182-4.8h4.385v-4H8.473v4zm5.183 0h4.385v-4h-4.385v4zm5.182 0h4.385v-4h-4.385v4zm0-4.8h4.385V0h-4.385v4zm17.894 6.71c-.217-1.6-1.107-2.988-2.723-4.243l-.93-.622-.62.934c-.794 1.201-1.191 2.866-1.061 4.463.058.561.242 1.566.818 2.449-.576.31-1.707.739-3.212.709H.164l-.057.333c-.27 1.605-.265 6.611 2.975 10.459C5.544 28.117 9.236 29.6 14.054 29.6c10.446 0 18.174-4.825 21.793-13.595 1.421.029 4.487.008 6.062-3.009.04-.069.134-.25.41-.822l.15-.314-.885-.593c-.958-.642-3.157-.878-4.852-.557z"/>
        <path fill="#FFF" d="M112.769 25.055h.092c.11 0 .198-.037.198-.125 0-.078-.057-.13-.182-.13a.443.443 0 0 0-.108.01v.245zm-.006.483h-.197v-.852c.078-.016.187-.026.327-.026.16 0 .233.026.295.062a.237.237 0 0 1 .083.187c0 .094-.072.167-.176.198v.01c.083.031.13.094.156.208.025.13.041.182.062.213h-.213c-.026-.03-.041-.108-.067-.208-.016-.093-.068-.135-.176-.135h-.094v.343zm-.523-.447c0 .38.28.681.663.681.373 0 .648-.301.648-.675 0-.38-.275-.687-.653-.687s-.658.307-.658.681zm1.529 0a.855.855 0 0 1-.87.863.863.863 0 0 1-.877-.863c0-.473.389-.853.876-.853.492 0 .87.38.87.853z"/>
        <path fill="#0D9CEC" fill-rule="nonzero" d="M121.314 26V13.4h1.998v10.8h4.41V26h-6.408zm7.284-2.898c0-.912.336-1.656 1.008-2.232.672-.576 1.548-.864 2.628-.864.996 0 1.746.228 2.25.684v-.882c0-.54-.177-.963-.531-1.269-.354-.306-.843-.459-1.467-.459-.864 0-1.74.246-2.628.738l-.756-1.368c1.116-.72 2.31-1.08 3.582-1.08 2.496 0 3.744 1.188 3.744 3.564V26h-1.71l-.162-.702c-.564.624-1.368.936-2.412.936-1.008 0-1.851-.291-2.529-.873-.678-.582-1.017-1.335-1.017-2.259zm2.502-1.206c-.36.3-.54.684-.54 1.152 0 .468.186.855.558 1.161.372.306.852.459 1.44.459.576 0 1.05-.15 1.422-.45.372-.3.558-.69.558-1.17 0-.492-.183-.885-.549-1.179-.366-.294-.849-.441-1.449-.441-.588 0-1.068.156-1.44.468zM138.438 26V12.986h1.962v4.878c.204-.324.567-.654 1.089-.99.522-.336 1.173-.504 1.953-.504 1.332 0 2.409.459 3.231 1.377.822.918 1.233 2.109 1.233 3.573 0 1.44-.429 2.619-1.287 3.537-.858.918-1.959 1.377-3.303 1.377-1.26 0-2.268-.486-3.024-1.458V26h-1.854zm1.89-4.662c0 .888.255 1.638.765 2.25.51.612 1.185.918 2.025.918.816 0 1.488-.291 2.016-.873.528-.582.792-1.347.792-2.295s-.261-1.722-.783-2.322c-.522-.6-1.191-.9-2.007-.9-.816 0-1.488.288-2.016.864-.528.576-.792 1.362-.792 2.358zm8.472 3.024l1.224-.972c.564.816 1.314 1.224 2.25 1.224.432 0 .78-.102 1.044-.306.264-.204.396-.492.396-.864 0-.324-.156-.6-.468-.828a4.528 4.528 0 0 0-1.143-.585c-.45-.162-.9-.345-1.35-.549a2.934 2.934 0 0 1-1.143-.927c-.312-.414-.468-.921-.468-1.521 0-.816.303-1.464.909-1.944.606-.48 1.377-.72 2.313-.72.792 0 1.443.177 1.953.531.51.354.879.759 1.107 1.215l-1.35.9c-.432-.696-1.038-1.044-1.818-1.044-.372 0-.675.093-.909.279a.905.905 0 0 0-.351.747c0 .324.159.594.477.81.318.216.699.402 1.143.558.444.156.891.333 1.341.531.45.198.834.504 1.152.918.318.414.477.927.477 1.539 0 .864-.321 1.56-.963 2.088-.642.528-1.455.792-2.439.792-1.56 0-2.688-.624-3.384-1.872z" opacity=".5"/>
    </g>
</svg>
