<?xml version="1.0" encoding="UTF-8" standalone="no"?><!DOCTYPE svg PUBLIC "-//W3C//DTD SVG 1.1//EN" "http://www.w3.org/Graphics/SVG/1.1/DTD/svg11.dtd"><svg width="100%" height="100%" viewBox="0 0 393 230" version="1.1" xmlns="http://www.w3.org/2000/svg" xmlns:xlink="http://www.w3.org/1999/xlink" xml:space="preserve" xmlns:serif="http://www.serif.com/" style="fill-rule:evenodd;clip-rule:evenodd;stroke-linejoin:bevel;stroke-miterlimit:10;"><rect id="Basics---Instances" serif:id="Basics - Instances" x="-19.582" y="-11.952" width="429.638" height="343.719" style="fill:none;"/><g id="Title" transform="matrix(1,0,0,1,-154.708,-67.5247)"><text x="194.25px" y="113.808px" style="font-family:'OpenSans-Regular', 'Open Sans', sans-serif;font-size:24px;fill:#008ec0;">D<tspan x="211.246px " y="113.808px ">o</tspan></text><text x="225.242px" y="113.808px" style="font-family:'OpenSans-Regular', 'Open Sans', sans-serif;font-size:24px;fill:#008ec0;">c</text><text x="236.268px" y="113.808px" style="font-family:'OpenSans-Regular', 'Open Sans', sans-serif;font-size:24px;fill:#008ec0;">k</text><text x="249.235px" y="113.808px" style="font-family:'OpenSans-Regular', 'Open Sans', sans-serif;font-size:24px;fill:#008ec0;">e</text><text x="262.2px" y="113.808px" style="font-family:'OpenSans-Regular', 'Open Sans', sans-serif;font-size:24px;fill:#008ec0;">r</text><text x="280.211px" y="113.808px" style="font-family:'OpenSans-Regular', 'Open Sans', sans-serif;font-size:24px;fill:#008ec0;">C</text><text x="295.252px" y="113.808px" style="font-family:'OpenSans-Regular', 'Open Sans', sans-serif;font-size:24px;fill:#008ec0;">o</text><text x="309.248px" y="113.808px" style="font-family:'OpenSans-Regular', 'Open Sans', sans-serif;font-size:24px;fill:#008ec0;">n</text><text x="324.279px" y="113.808px" style="font-family:'OpenSans-Regular', 'Open Sans', sans-serif;font-size:24px;fill:#008ec0;">t</text><text x="332.251px" y="113.808px" style="font-family:'OpenSans-Regular', 'Open Sans', sans-serif;font-size:24px;fill:#008ec0;">a</text><text x="345.199px" y="113.808px" style="font-family:'OpenSans-Regular', 'Open Sans', sans-serif;font-size:24px;fill:#008ec0;">i</text><text x="351.169px" y="113.808px" style="font-family:'OpenSans-Regular', 'Open Sans', sans-serif;font-size:24px;fill:#008ec0;">n</text><text x="366.2px" y="113.808px" style="font-family:'OpenSans-Regular', 'Open Sans', sans-serif;font-size:24px;fill:#008ec0;">e</text><text x="379.165px" y="113.808px" style="font-family:'OpenSans-Regular', 'Open Sans', sans-serif;font-size:24px;fill:#008ec0;">r</text><text x="396.224px" y="113.808px" style="font-family:'OpenSans-Regular', 'Open Sans', sans-serif;font-size:24px;fill:#008ec0;">I<tspan x="403.215px 418.246px 429.995px 438.768px 452.415px 467.446px 479.172px 492.936px " y="113.808px 113.808px 113.808px 113.808px 113.808px 113.808px 113.808px 113.808px ">nstances</tspan></text></g><g id="bounding-lines" serif:id="bounding lines"><path d="M19.508,8.89l351.458,0" style="fill:none;stroke:#a7a7a7;stroke-width:1px;"/><path d="M19.508,220.055l351.458,0" style="fill:none;stroke:#a7a7a7;stroke-width:1px;"/></g><g transform="matrix(1,0,0,1,-166.098,-1012.7)"><text x="260.273px" y="1088.29px" style="font-family:'OpenSans-Regular', 'Open Sans', sans-serif;font-size:11px;fill:#0095e5;">Output of</text><text x="316.701px" y="1088.29px" style="font-family:'Hack-Regular', 'Hack', monospace;font-size:11px;fill:#535353;">docker container ls -a</text></g><g id="alpine-container-1" serif:id="alpine container 1"><path d="M107.624,112.486c0,-1.413 1.145,-2.559 2.558,-2.559l53.883,0c1.413,0 2.559,1.146 2.559,2.559l0,46.883c0,1.413 -1.146,2.558 -2.559,2.558l-53.883,0c-1.413,0 -2.558,-1.145 -2.558,-2.558l0,-46.883Z" style="fill:none;stroke:#75a0af;stroke-width:1px;stroke-linejoin:round;stroke-dasharray:1,1;"/><rect x="109.124" y="130.427" width="56" height="18" style="fill:#171717;"/><path d="M129.986,154.927l14.586,0c0.931,0 1.552,0.621 1.552,1.552l0,14.897c0,0.931 -0.621,1.551 -1.552,1.551l-14.586,0c-0.931,0 -1.862,-0.62 -1.862,-1.551l0,-14.897c0,-0.931 0.931,-1.552 1.862,-1.552Z" style="fill:#fff;stroke:#00b050;stroke-width:1px;stroke-linejoin:miter;stroke-miterlimit:8;stroke-dasharray:3,1;"/><g><path d="M133.124,160.49c-0.276,0 -0.5,-0.224 -0.5,-0.5l0,-0.001c0,-0.277 0.224,-0.5 0.5,-0.5c0.276,0 0.5,0.223 0.5,0.5l0,0.001c0,0.276 -0.224,0.5 -0.5,0.5Zm0,2.001c-0.276,0 -0.5,-0.224 -0.5,-0.5l0,-0.001c0,-0.277 0.224,-0.5 0.5,-0.5c0.276,0 0.5,0.223 0.5,0.5l0,0.001c0,0.276 -0.224,0.5 -0.5,0.5Zm0,2.001c-0.276,0 -0.5,-0.224 -0.5,-0.5l0,-0.001c0,-0.277 0.224,-0.5 0.5,-0.5c0.276,0 0.5,0.223 0.5,0.5l0,0.001c0,0.276 -0.224,0.5 -0.5,0.5Zm0,2.001c-0.276,0 -0.5,-0.224 -0.5,-0.5l0,-0.001c0,-0.277 0.224,-0.5 0.5,-0.5c0.276,0 0.5,0.223 0.5,0.5l0,0.001c0,0.276 -0.224,0.5 -0.5,0.5Zm0,2.001c-0.276,0 -0.5,-0.224 -0.5,-0.5l0,-0.001c0,-0.277 0.224,-0.5 0.5,-0.5c0.276,0 0.5,0.223 0.5,0.5l0,0.001c0,0.276 -0.224,0.5 -0.5,0.5Z" style="fill:#00b050;fill-rule:nonzero;"/><path d="M135.79,160.49c-0.276,0 -0.5,-0.224 -0.5,-0.5l0,-0.001c0,-0.277 0.224,-0.5 0.5,-0.5c0.277,0 0.5,0.223 0.5,0.5l0,0.001c0,0.276 -0.223,0.5 -0.5,0.5Zm0.001,2.001c-0.277,0 -0.5,-0.224 -0.501,-0.5l0,-0.001c0,-0.277 0.224,-0.5 0.5,-0.5c0.277,0 0.5,0.223 0.5,0.5l0,0.001c0.001,0.276 -0.223,0.5 -0.499,0.5Zm0,2.001c-0.277,0 -0.5,-0.224 -0.5,-0.5l0,-0.001c0,-0.277 0.223,-0.5 0.5,-0.5c0.276,0 0.5,0.223 0.5,0.5l0,0.001c0,0.276 -0.224,0.5 -0.5,0.5Zm0,2.001c-0.277,0 -0.5,-0.224 -0.5,-0.5l0,-0.001c0,-0.277 0.223,-0.5 0.5,-0.5c0.276,0 0.5,0.223 0.5,0.5l0,0.001c0,0.276 -0.224,0.5 -0.5,0.5Zm0,2.001c-0.277,0 -0.5,-0.224 -0.5,-0.5l0,-0.001c0,-0.277 0.223,-0.5 0.5,-0.5c0.276,0 0.5,0.223 0.5,0.5l0,0.001c0,0.276 -0.224,0.5 -0.5,0.5Z" style="fill:#00b050;fill-rule:nonzero;"/><path d="M138.457,160.49c-0.276,0 -0.5,-0.224 -0.5,-0.5l0,-0.001c0,-0.277 0.224,-0.5 0.5,-0.5c0.276,0 0.5,0.223 0.5,0.5l0,0.001c0,0.276 -0.224,0.5 -0.5,0.5Zm0,2.001c-0.276,0 -0.5,-0.224 -0.5,-0.5l0,-0.001c0,-0.277 0.224,-0.5 0.5,-0.5c0.276,0 0.5,0.223 0.5,0.5l0,0.001c0,0.276 -0.224,0.5 -0.5,0.5Zm0,2.001c-0.276,0 -0.5,-0.224 -0.5,-0.5l0,-0.001c0,-0.277 0.224,-0.5 0.5,-0.5c0.276,0 0.5,0.223 0.5,0.5l0,0.001c0,0.276 -0.224,0.5 -0.5,0.5Zm0,2.001c-0.276,0 -0.5,-0.224 -0.5,-0.5l0,-0.001c0,-0.277 0.224,-0.5 0.5,-0.5c0.276,0 0.5,0.223 0.5,0.5l0,0.001c0,0.276 -0.224,0.5 -0.5,0.5Zm0,2.001c-0.276,0 -0.5,-0.224 -0.5,-0.5l0,-0.001c0,-0.277 0.224,-0.5 0.5,-0.5c0.276,0 0.5,0.223 0.5,0.5l0,0.001c0,0.276 -0.224,0.5 -0.5,0.5Z" style="fill:#00b050;fill-rule:nonzero;"/><path d="M141.124,160.49c-0.276,0 -0.5,-0.224 -0.5,-0.5l0,-0.001c0,-0.277 0.224,-0.5 0.5,-0.5c0.276,0 0.5,0.223 0.5,0.5l0,0.001c0,0.276 -0.224,0.5 -0.5,0.5Zm0,2.001c-0.276,0 -0.5,-0.224 -0.5,-0.5l0,-0.001c0,-0.277 0.224,-0.5 0.5,-0.5c0.276,0 0.5,0.223 0.5,0.5l0,0.001c0,0.276 -0.224,0.5 -0.5,0.5Zm0,2.001c-0.276,0 -0.5,-0.224 -0.5,-0.5l0,-0.001c0,-0.277 0.224,-0.5 0.5,-0.5c0.276,0 0.5,0.223 0.5,0.5l0,0.001c0,0.276 -0.224,0.5 -0.5,0.5Zm0,2.001c-0.276,0 -0.5,-0.224 -0.5,-0.5l0,-0.001c0,-0.277 0.224,-0.5 0.5,-0.5c0.276,0 0.5,0.223 0.5,0.5l0,0.001c0,0.276 -0.224,0.5 -0.5,0.5Zm0,2.001c-0.276,0 -0.5,-0.224 -0.5,-0.5l0,-0.001c0,-0.277 0.224,-0.5 0.5,-0.5c0.276,0 0.5,0.223 0.5,0.5l0,0.001c0,0.276 -0.224,0.5 -0.5,0.5Z" style="fill:#00b050;fill-rule:nonzero;"/></g><g transform="matrix(1,0,0,1,-143.751,-62.212)"><text x="265.429px" y="184.047px" style="font-family:'OpenSans-Bold', 'Open Sans', sans-serif;font-weight:700;font-size:10px;fill:#00b050;">al</text><text x="274.521px" y="184.047px" style="font-family:'OpenSans-Bold', 'Open Sans', sans-serif;font-weight:700;font-size:10px;fill:#00b050;">p</text><text x="280.449px" y="184.047px" style="font-family:'OpenSans-Bold', 'Open Sans', sans-serif;font-weight:700;font-size:10px;fill:#00b050;">i</text><text x="283.5px" y="184.047px" style="font-family:'OpenSans-Bold', 'Open Sans', sans-serif;font-weight:700;font-size:10px;fill:#00b050;">n</text><text x="290.423px" y="184.047px" style="font-family:'OpenSans-Bold', 'Open Sans', sans-serif;font-weight:700;font-size:10px;fill:#00b050;">e</text></g><text x="122.121px" y="142.448px" style="font-family:'CourierNewPS-BoldMT', 'Courier New', monospace;font-weight:700;font-size:10px;fill:#fff;">ls –l</text><g transform="matrix(1,0,0,1,-142.021,-62.5728)"><text x="260.57px" y="166.368px" style="font-family:'CourierNewPS-BoldMT', 'Courier New', monospace;font-weight:700;font-size:6px;fill:#535353;">E<tspan x="264.571px 268.571px 272.572px 276.573px 280.573px " y="166.368px 166.368px 166.368px 166.368px 166.368px ">xited</tspan></text><text x="287.574px" y="166.368px" style="font-family:'CourierNewPS-BoldMT', 'Courier New', monospace;font-weight:700;font-size:6px;fill:#535353;">(<tspan x="291.575px " y="166.368px ">0</tspan></text><text x="295.575px" y="166.368px" style="font-family:'CourierNewPS-BoldMT', 'Courier New', monospace;font-weight:700;font-size:6px;fill:#535353;">)</text></g></g><g id="alpine-container-2" serif:id="alpine container 2"><path d="M174.624,112.115c0,-1.208 1.299,-2.188 2.903,-2.188l53.194,0c1.603,0 2.903,0.98 2.903,2.188l0,47.625c0,1.208 -1.3,2.187 -2.903,2.187l-53.194,0c-1.604,0 -2.903,-0.979 -2.903,-2.187l0,-47.625Z" style="fill:none;stroke:#75a0af;stroke-width:1px;stroke-linejoin:round;stroke-dasharray:1,1;"/><rect x="176.124" y="130.427" width="56" height="18" style="fill:#171717;"/><path d="M196.986,154.927l14.586,0c0.931,0 1.552,0.621 1.552,1.552l0,14.897c0,0.931 -0.621,1.551 -1.552,1.551l-14.586,0c-0.931,0 -1.862,-0.62 -1.862,-1.551l0,-14.897c0,-0.931 0.931,-1.552 1.862,-1.552Z" style="fill:#fff;stroke:#00b050;stroke-width:1px;stroke-linejoin:miter;stroke-miterlimit:8;stroke-dasharray:3,1;"/><g><path d="M200.124,160.49c-0.276,0 -0.5,-0.224 -0.5,-0.5l0,-0.001c0,-0.277 0.224,-0.5 0.5,-0.5c0.276,0 0.5,0.223 0.5,0.5l0,0.001c0,0.276 -0.224,0.5 -0.5,0.5Zm0,2.001c-0.276,0 -0.5,-0.224 -0.5,-0.5l0,-0.001c0,-0.277 0.224,-0.5 0.5,-0.5c0.276,0 0.5,0.223 0.5,0.5l0,0.001c0,0.276 -0.224,0.5 -0.5,0.5Zm0,2.001c-0.276,0 -0.5,-0.224 -0.5,-0.5l0,-0.001c0,-0.277 0.224,-0.5 0.5,-0.5c0.276,0 0.5,0.223 0.5,0.5l0,0.001c0,0.276 -0.224,0.5 -0.5,0.5Zm0,2.001c-0.276,0 -0.5,-0.224 -0.5,-0.5l0,-0.001c0,-0.277 0.224,-0.5 0.5,-0.5c0.276,0 0.5,0.223 0.5,0.5l0,0.001c0,0.276 -0.224,0.5 -0.5,0.5Zm0,2.001c-0.276,0 -0.5,-0.224 -0.5,-0.5l0,-0.001c0,-0.277 0.224,-0.5 0.5,-0.5c0.276,0 0.5,0.223 0.5,0.5l0,0.001c0,0.276 -0.224,0.5 -0.5,0.5Z" style="fill:#00b050;fill-rule:nonzero;"/><path d="M202.79,160.49c-0.276,0 -0.5,-0.224 -0.5,-0.5l0,-0.001c0,-0.277 0.224,-0.5 0.5,-0.5c0.277,0 0.5,0.223 0.5,0.5l0,0.001c0,0.276 -0.223,0.5 -0.5,0.5Zm0.001,2.001c-0.277,0 -0.5,-0.224 -0.501,-0.5l0,-0.001c0,-0.277 0.224,-0.5 0.5,-0.5c0.277,0 0.5,0.223 0.5,0.5l0,0.001c0.001,0.276 -0.223,0.5 -0.499,0.5Zm0,2.001c-0.277,0 -0.5,-0.224 -0.5,-0.5l0,-0.001c0,-0.277 0.223,-0.5 0.5,-0.5c0.276,0 0.5,0.223 0.5,0.5l0,0.001c0,0.276 -0.224,0.5 -0.5,0.5Zm0,2.001c-0.277,0 -0.5,-0.224 -0.5,-0.5l0,-0.001c0,-0.277 0.223,-0.5 0.5,-0.5c0.276,0 0.5,0.223 0.5,0.5l0,0.001c0,0.276 -0.224,0.5 -0.5,0.5Zm0,2.001c-0.277,0 -0.5,-0.224 -0.5,-0.5l0,-0.001c0,-0.277 0.223,-0.5 0.5,-0.5c0.276,0 0.5,0.223 0.5,0.5l0,0.001c0,0.276 -0.224,0.5 -0.5,0.5Z" style="fill:#00b050;fill-rule:nonzero;"/><path d="M205.457,160.49c-0.276,0 -0.5,-0.224 -0.5,-0.5l0,-0.001c0,-0.277 0.224,-0.5 0.5,-0.5c0.276,0 0.5,0.223 0.5,0.5l0,0.001c0,0.276 -0.224,0.5 -0.5,0.5Zm0,2.001c-0.276,0 -0.5,-0.224 -0.5,-0.5l0,-0.001c0,-0.277 0.224,-0.5 0.5,-0.5c0.276,0 0.5,0.223 0.5,0.5l0,0.001c0,0.276 -0.224,0.5 -0.5,0.5Zm0,2.001c-0.276,0 -0.5,-0.224 -0.5,-0.5l0,-0.001c0,-0.277 0.224,-0.5 0.5,-0.5c0.276,0 0.5,0.223 0.5,0.5l0,0.001c0,0.276 -0.224,0.5 -0.5,0.5Zm0,2.001c-0.276,0 -0.5,-0.224 -0.5,-0.5l0,-0.001c0,-0.277 0.224,-0.5 0.5,-0.5c0.276,0 0.5,0.223 0.5,0.5l0,0.001c0,0.276 -0.224,0.5 -0.5,0.5Zm0,2.001c-0.276,0 -0.5,-0.224 -0.5,-0.5l0,-0.001c0,-0.277 0.224,-0.5 0.5,-0.5c0.276,0 0.5,0.223 0.5,0.5l0,0.001c0,0.276 -0.224,0.5 -0.5,0.5Z" style="fill:#00b050;fill-rule:nonzero;"/><path d="M208.124,160.49c-0.276,0 -0.5,-0.224 -0.5,-0.5l0,-0.001c0,-0.277 0.224,-0.5 0.5,-0.5c0.276,0 0.5,0.223 0.5,0.5l0,0.001c0,0.276 -0.224,0.5 -0.5,0.5Zm0,2.001c-0.276,0 -0.5,-0.224 -0.5,-0.5l0,-0.001c0,-0.277 0.224,-0.5 0.5,-0.5c0.276,0 0.5,0.223 0.5,0.5l0,0.001c0,0.276 -0.224,0.5 -0.5,0.5Zm0,2.001c-0.276,0 -0.5,-0.224 -0.5,-0.5l0,-0.001c0,-0.277 0.224,-0.5 0.5,-0.5c0.276,0 0.5,0.223 0.5,0.5l0,0.001c0,0.276 -0.224,0.5 -0.5,0.5Zm0,2.001c-0.276,0 -0.5,-0.224 -0.5,-0.5l0,-0.001c0,-0.277 0.224,-0.5 0.5,-0.5c0.276,0 0.5,0.223 0.5,0.5l0,0.001c0,0.276 -0.224,0.5 -0.5,0.5Zm0,2.001c-0.276,0 -0.5,-0.224 -0.5,-0.5l0,-0.001c0,-0.277 0.224,-0.5 0.5,-0.5c0.276,0 0.5,0.223 0.5,0.5l0,0.001c0,0.276 -0.224,0.5 -0.5,0.5Z" style="fill:#00b050;fill-rule:nonzero;"/></g><g transform="matrix(1,0,0,1,-143.87,-45.422)"><text x="332.548px" y="167.257px" style="font-family:'OpenSans-Bold', 'Open Sans', sans-serif;font-weight:700;font-size:10px;fill:#00b050;">al</text><text x="341.64px" y="167.257px" style="font-family:'OpenSans-Bold', 'Open Sans', sans-serif;font-weight:700;font-size:10px;fill:#00b050;">p</text><text x="347.568px" y="167.257px" style="font-family:'OpenSans-Bold', 'Open Sans', sans-serif;font-weight:700;font-size:10px;fill:#00b050;">i</text><text x="350.619px" y="167.257px" style="font-family:'OpenSans-Bold', 'Open Sans', sans-serif;font-weight:700;font-size:10px;fill:#00b050;">n</text><text x="357.542px" y="167.257px" style="font-family:'OpenSans-Bold', 'Open Sans', sans-serif;font-weight:700;font-size:10px;fill:#00b050;">e</text></g><text x="182.788px" y="142.448px" style="font-family:'CourierNewPS-BoldMT', 'Courier New', monospace;font-weight:700;font-size:10px;fill:#fff;">/bin/sh</text><g transform="matrix(1,0,0,1,-142.622,-45.614)"><text x="328.171px" y="149.409px" style="font-family:'CourierNewPS-BoldMT', 'Courier New', monospace;font-weight:700;font-size:6px;fill:#535353;">E<tspan x="332.171px 336.172px 340.172px 344.173px 348.174px " y="149.409px 149.409px 149.409px 149.409px 149.409px ">xited</tspan></text><text x="355.175px" y="149.409px" style="font-family:'CourierNewPS-BoldMT', 'Courier New', monospace;font-weight:700;font-size:6px;fill:#535353;">(<tspan x="359.175px 363.176px " y="149.409px 149.409px ">0)</tspan></text></g></g><g id="alpine-container-3" serif:id="alpine container 3"><path d="M241.624,112.486c0,-1.413 1.145,-2.559 2.558,-2.559l53.883,0c1.413,0 2.559,1.146 2.559,2.559l0,46.883c0,1.413 -1.146,2.558 -2.559,2.558l-53.883,0c-1.413,0 -2.558,-1.145 -2.558,-2.558l0,-46.883Z" style="fill:none;stroke:#75a0af;stroke-width:1px;stroke-linejoin:round;stroke-dasharray:1,1;"/><rect x="243.124" y="130.427" width="56" height="18" style="fill:#171717;"/><path d="M263.986,154.927l14.586,0c0.931,0 1.552,0.621 1.552,1.552l0,14.897c0,0.931 -0.621,1.551 -1.552,1.551l-14.586,0c-0.931,0 -1.862,-0.62 -1.862,-1.551l0,-14.897c0,-0.931 0.931,-1.552 1.862,-1.552Z" style="fill:#fff;stroke:#00b050;stroke-width:1px;stroke-linejoin:miter;stroke-miterlimit:8;stroke-dasharray:3,1;"/><g><path d="M267.124,160.49c-0.276,0 -0.5,-0.224 -0.5,-0.5l0,-0.001c0,-0.277 0.224,-0.5 0.5,-0.5c0.276,0 0.5,0.223 0.5,0.5l0,0.001c0,0.276 -0.224,0.5 -0.5,0.5Zm0,2.001c-0.276,0 -0.5,-0.224 -0.5,-0.5l0,-0.001c0,-0.277 0.224,-0.5 0.5,-0.5c0.276,0 0.5,0.223 0.5,0.5l0,0.001c0,0.276 -0.224,0.5 -0.5,0.5Zm0,2.001c-0.276,0 -0.5,-0.224 -0.5,-0.5l0,-0.001c0,-0.277 0.224,-0.5 0.5,-0.5c0.276,0 0.5,0.223 0.5,0.5l0,0.001c0,0.276 -0.224,0.5 -0.5,0.5Zm0,2.001c-0.276,0 -0.5,-0.224 -0.5,-0.5l0,-0.001c0,-0.277 0.224,-0.5 0.5,-0.5c0.276,0 0.5,0.223 0.5,0.5l0,0.001c0,0.276 -0.224,0.5 -0.5,0.5Zm0,2.001c-0.276,0 -0.5,-0.224 -0.5,-0.5l0,-0.001c0,-0.277 0.224,-0.5 0.5,-0.5c0.276,0 0.5,0.223 0.5,0.5l0,0.001c0,0.276 -0.224,0.5 -0.5,0.5Z" style="fill:#00b050;fill-rule:nonzero;"/><path d="M269.79,160.49c-0.276,0 -0.5,-0.224 -0.5,-0.5l0,-0.001c0,-0.277 0.224,-0.5 0.5,-0.5c0.277,0 0.5,0.223 0.5,0.5l0,0.001c0,0.276 -0.223,0.5 -0.5,0.5Zm0.001,2.001c-0.277,0 -0.5,-0.224 -0.501,-0.5l0,-0.001c0,-0.277 0.224,-0.5 0.5,-0.5c0.277,0 0.5,0.223 0.5,0.5l0,0.001c0.001,0.276 -0.223,0.5 -0.499,0.5Zm0,2.001c-0.277,0 -0.5,-0.224 -0.5,-0.5l0,-0.001c0,-0.277 0.223,-0.5 0.5,-0.5c0.276,0 0.5,0.223 0.5,0.5l0,0.001c0,0.276 -0.224,0.5 -0.5,0.5Zm0,2.001c-0.277,0 -0.5,-0.224 -0.5,-0.5l0,-0.001c0,-0.277 0.223,-0.5 0.5,-0.5c0.276,0 0.5,0.223 0.5,0.5l0,0.001c0,0.276 -0.224,0.5 -0.5,0.5Zm0,2.001c-0.277,0 -0.5,-0.224 -0.5,-0.5l0,-0.001c0,-0.277 0.223,-0.5 0.5,-0.5c0.276,0 0.5,0.223 0.5,0.5l0,0.001c0,0.276 -0.224,0.5 -0.5,0.5Z" style="fill:#00b050;fill-rule:nonzero;"/><path d="M272.457,160.49c-0.276,0 -0.5,-0.224 -0.5,-0.5l0,-0.001c0,-0.277 0.224,-0.5 0.5,-0.5c0.276,0 0.5,0.223 0.5,0.5l0,0.001c0,0.276 -0.224,0.5 -0.5,0.5Zm0,2.001c-0.276,0 -0.5,-0.224 -0.5,-0.5l0,-0.001c0,-0.277 0.224,-0.5 0.5,-0.5c0.276,0 0.5,0.223 0.5,0.5l0,0.001c0,0.276 -0.224,0.5 -0.5,0.5Zm0,2.001c-0.276,0 -0.5,-0.224 -0.5,-0.5l0,-0.001c0,-0.277 0.224,-0.5 0.5,-0.5c0.276,0 0.5,0.223 0.5,0.5l0,0.001c0,0.276 -0.224,0.5 -0.5,0.5Zm0,2.001c-0.276,0 -0.5,-0.224 -0.5,-0.5l0,-0.001c0,-0.277 0.224,-0.5 0.5,-0.5c0.276,0 0.5,0.223 0.5,0.5l0,0.001c0,0.276 -0.224,0.5 -0.5,0.5Zm0,2.001c-0.276,0 -0.5,-0.224 -0.5,-0.5l0,-0.001c0,-0.277 0.224,-0.5 0.5,-0.5c0.276,0 0.5,0.223 0.5,0.5l0,0.001c0,0.276 -0.224,0.5 -0.5,0.5Z" style="fill:#00b050;fill-rule:nonzero;"/><path d="M275.124,160.49c-0.276,0 -0.5,-0.224 -0.5,-0.5l0,-0.001c0,-0.277 0.224,-0.5 0.5,-0.5c0.276,0 0.5,0.223 0.5,0.5l0,0.001c0,0.276 -0.224,0.5 -0.5,0.5Zm0,2.001c-0.276,0 -0.5,-0.224 -0.5,-0.5l0,-0.001c0,-0.277 0.224,-0.5 0.5,-0.5c0.276,0 0.5,0.223 0.5,0.5l0,0.001c0,0.276 -0.224,0.5 -0.5,0.5Zm0,2.001c-0.276,0 -0.5,-0.224 -0.5,-0.5l0,-0.001c0,-0.277 0.224,-0.5 0.5,-0.5c0.276,0 0.5,0.223 0.5,0.5l0,0.001c0,0.276 -0.224,0.5 -0.5,0.5Zm0,2.001c-0.276,0 -0.5,-0.224 -0.5,-0.5l0,-0.001c0,-0.277 0.224,-0.5 0.5,-0.5c0.276,0 0.5,0.223 0.5,0.5l0,0.001c0,0.276 -0.224,0.5 -0.5,0.5Zm0,2.001c-0.276,0 -0.5,-0.224 -0.5,-0.5l0,-0.001c0,-0.277 0.224,-0.5 0.5,-0.5c0.276,0 0.5,0.223 0.5,0.5l0,0.001c0,0.276 -0.224,0.5 -0.5,0.5Z" style="fill:#00b050;fill-rule:nonzero;"/></g><g transform="matrix(1,0,0,1,-143.739,-62.5728)"><text x="399.417px" y="184.044px" style="font-family:'OpenSans-Bold', 'Open Sans', sans-serif;font-weight:700;font-size:10px;fill:#00b050;">al</text><text x="408.509px" y="184.044px" style="font-family:'OpenSans-Bold', 'Open Sans', sans-serif;font-weight:700;font-size:10px;fill:#00b050;">p</text><text x="414.437px" y="184.044px" style="font-family:'OpenSans-Bold', 'Open Sans', sans-serif;font-weight:700;font-size:10px;fill:#00b050;">i</text><text x="417.488px" y="184.044px" style="font-family:'OpenSans-Bold', 'Open Sans', sans-serif;font-weight:700;font-size:10px;fill:#00b050;">n</text><text x="424.411px" y="184.044px" style="font-family:'OpenSans-Bold', 'Open Sans', sans-serif;font-weight:700;font-size:10px;fill:#00b050;">e</text></g><text x="259.161px" y="141.72px" style="font-family:'CourierNewPS-BoldMT', 'Courier New', monospace;font-weight:700;font-size:10px;fill:#fff;">echo</text><g transform="matrix(1,0,0,1,-142.063,-62.5728)"><text x="394.612px" y="166.368px" style="font-family:'CourierNewPS-BoldMT', 'Courier New', monospace;font-weight:700;font-size:6px;fill:#535353;">E<tspan x="398.612px 402.613px 406.614px 410.614px 414.615px " y="166.368px 166.368px 166.368px 166.368px 166.368px ">xited</tspan></text><text x="421.616px" y="166.368px" style="font-family:'CourierNewPS-BoldMT', 'Courier New', monospace;font-weight:700;font-size:6px;fill:#535353;">(<tspan x="425.616px 429.617px " y="166.368px 166.368px ">0)</tspan></text></g></g><g id="hello-world-container-1" serif:id="hello-world container 1"><path d="M308.624,112.816c0,-1.403 1.123,-2.541 2.509,-2.541l53.982,0c1.385,0 2.509,1.138 2.509,2.541l0,46.57c0,1.403 -1.124,2.541 -2.509,2.541l-53.982,0c-1.386,0 -2.509,-1.138 -2.509,-2.541l0,-46.57Z" style="fill:none;stroke:#75a0af;stroke-width:1px;stroke-linejoin:round;stroke-dasharray:1,1;"/><rect x="310.124" y="130.427" width="56" height="18" style="fill:#171717;"/><path d="M330.986,154.927l14.586,0c0.931,0 1.552,0.621 1.552,1.552l0,14.897c0,0.931 -0.621,1.551 -1.552,1.551l-14.586,0c-0.931,0 -1.862,-0.62 -1.862,-1.551l0,-14.897c0,-0.931 0.931,-1.552 1.862,-1.552Z" style="fill:#fff;stroke:#ef4a52;stroke-width:1px;stroke-linejoin:miter;stroke-miterlimit:8;stroke-dasharray:3,1;"/><g><path d="M334.124,160.49c-0.276,0 -0.5,-0.224 -0.5,-0.5l0,-0.001c0,-0.277 0.224,-0.5 0.5,-0.5c0.276,0 0.5,0.223 0.5,0.5l0,0.001c0,0.276 -0.224,0.5 -0.5,0.5Zm0,2.001c-0.276,0 -0.5,-0.224 -0.5,-0.5l0,-0.001c0,-0.277 0.224,-0.5 0.5,-0.5c0.276,0 0.5,0.223 0.5,0.5l0,0.001c0,0.276 -0.224,0.5 -0.5,0.5Zm0,2.001c-0.276,0 -0.5,-0.224 -0.5,-0.5l0,-0.001c0,-0.277 0.224,-0.5 0.5,-0.5c0.276,0 0.5,0.223 0.5,0.5l0,0.001c0,0.276 -0.224,0.5 -0.5,0.5Zm0,2.001c-0.276,0 -0.5,-0.224 -0.5,-0.5l0,-0.001c0,-0.277 0.224,-0.5 0.5,-0.5c0.276,0 0.5,0.223 0.5,0.5l0,0.001c0,0.276 -0.224,0.5 -0.5,0.5Zm0,2.001c-0.276,0 -0.5,-0.224 -0.5,-0.5l0,-0.001c0,-0.277 0.224,-0.5 0.5,-0.5c0.276,0 0.5,0.223 0.5,0.5l0,0.001c0,0.276 -0.224,0.5 -0.5,0.5Z" style="fill:#ef4a52;fill-rule:nonzero;"/><path d="M336.79,160.49c-0.276,0 -0.5,-0.224 -0.5,-0.5l0,-0.001c0,-0.277 0.224,-0.5 0.5,-0.5c0.277,0 0.5,0.223 0.5,0.5l0,0.001c0,0.276 -0.223,0.5 -0.5,0.5Zm0.001,2.001c-0.277,0 -0.5,-0.224 -0.501,-0.5l0,-0.001c0,-0.277 0.224,-0.5 0.5,-0.5c0.277,0 0.5,0.223 0.5,0.5l0,0.001c0.001,0.276 -0.223,0.5 -0.499,0.5Zm0,2.001c-0.277,0 -0.5,-0.224 -0.5,-0.5l0,-0.001c0,-0.277 0.223,-0.5 0.5,-0.5c0.276,0 0.5,0.223 0.5,0.5l0,0.001c0,0.276 -0.224,0.5 -0.5,0.5Zm0,2.001c-0.277,0 -0.5,-0.224 -0.5,-0.5l0,-0.001c0,-0.277 0.223,-0.5 0.5,-0.5c0.276,0 0.5,0.223 0.5,0.5l0,0.001c0,0.276 -0.224,0.5 -0.5,0.5Zm0,2.001c-0.277,0 -0.5,-0.224 -0.5,-0.5l0,-0.001c0,-0.277 0.223,-0.5 0.5,-0.5c0.276,0 0.5,0.223 0.5,0.5l0,0.001c0,0.276 -0.224,0.5 -0.5,0.5Z" style="fill:#ef4a52;fill-rule:nonzero;"/><path d="M339.457,160.49c-0.276,0 -0.5,-0.224 -0.5,-0.5l0,-0.001c0,-0.277 0.224,-0.5 0.5,-0.5c0.276,0 0.5,0.223 0.5,0.5l0,0.001c0,0.276 -0.224,0.5 -0.5,0.5Zm0,2.001c-0.276,0 -0.5,-0.224 -0.5,-0.5l0,-0.001c0,-0.277 0.224,-0.5 0.5,-0.5c0.276,0 0.5,0.223 0.5,0.5l0,0.001c0,0.276 -0.224,0.5 -0.5,0.5Zm0,2.001c-0.276,0 -0.5,-0.224 -0.5,-0.5l0,-0.001c0,-0.277 0.224,-0.5 0.5,-0.5c0.276,0 0.5,0.223 0.5,0.5l0,0.001c0,0.276 -0.224,0.5 -0.5,0.5Zm0,2.001c-0.276,0 -0.5,-0.224 -0.5,-0.5l0,-0.001c0,-0.277 0.224,-0.5 0.5,-0.5c0.276,0 0.5,0.223 0.5,0.5l0,0.001c0,0.276 -0.224,0.5 -0.5,0.5Zm0,2.001c-0.276,0 -0.5,-0.224 -0.5,-0.5l0,-0.001c0,-0.277 0.224,-0.5 0.5,-0.5c0.276,0 0.5,0.223 0.5,0.5l0,0.001c0,0.276 -0.224,0.5 -0.5,0.5Z" style="fill:#ef4a52;fill-rule:nonzero;"/><path d="M342.124,160.49c-0.276,0 -0.5,-0.224 -0.5,-0.5l0,-0.001c0,-0.277 0.224,-0.5 0.5,-0.5c0.276,0 0.5,0.223 0.5,0.5l0,0.001c0,0.276 -0.224,0.5 -0.5,0.5Zm0,2.001c-0.276,0 -0.5,-0.224 -0.5,-0.5l0,-0.001c0,-0.277 0.224,-0.5 0.5,-0.5c0.276,0 0.5,0.223 0.5,0.5l0,0.001c0,0.276 -0.224,0.5 -0.5,0.5Zm0,2.001c-0.276,0 -0.5,-0.224 -0.5,-0.5l0,-0.001c0,-0.277 0.224,-0.5 0.5,-0.5c0.276,0 0.5,0.223 0.5,0.5l0,0.001c0,0.276 -0.224,0.5 -0.5,0.5Zm0,2.001c-0.276,0 -0.5,-0.224 -0.5,-0.5l0,-0.001c0,-0.277 0.224,-0.5 0.5,-0.5c0.276,0 0.5,0.223 0.5,0.5l0,0.001c0,0.276 -0.224,0.5 -0.5,0.5Zm0,2.001c-0.276,0 -0.5,-0.224 -0.5,-0.5l0,-0.001c0,-0.277 0.224,-0.5 0.5,-0.5c0.276,0 0.5,0.223 0.5,0.5l0,0.001c0,0.276 -0.224,0.5 -0.5,0.5Z" style="fill:#ef4a52;fill-rule:nonzero;"/></g><g transform="matrix(1,0,0,1,-143.922,-62.5728)"><text x="453.411px" y="184.615px" style="font-family:'OpenSans-Bold', 'Open Sans', sans-serif;font-weight:700;font-size:10px;fill:#ef4a52;">h</text><text x="460.383px" y="184.615px" style="font-family:'OpenSans-Bold', 'Open Sans', sans-serif;font-weight:700;font-size:10px;fill:#ef4a52;">e</text><text x="466.391px" y="184.615px" style="font-family:'OpenSans-Bold', 'Open Sans', sans-serif;font-weight:700;font-size:10px;fill:#ef4a52;">l</text><text x="469.343px" y="184.615px" style="font-family:'OpenSans-Bold', 'Open Sans', sans-serif;font-weight:700;font-size:10px;fill:#ef4a52;">l</text><text x="472.395px" y="184.615px" style="font-family:'OpenSans-Bold', 'Open Sans', sans-serif;font-weight:700;font-size:10px;fill:#ef4a52;">o<tspan x="478.386px " y="184.615px ">-</tspan></text><text x="481.404px" y="184.615px" style="font-family:'OpenSans-Bold', 'Open Sans', sans-serif;font-weight:700;font-size:10px;fill:#ef4a52;">w</text><text x="490.364px" y="184.615px" style="font-family:'OpenSans-Bold', 'Open Sans', sans-serif;font-weight:700;font-size:10px;fill:#ef4a52;">o</text><text x="496.355px" y="184.615px" style="font-family:'OpenSans-Bold', 'Open Sans', sans-serif;font-weight:700;font-size:10px;fill:#ef4a52;">r</text><text x="501.396px" y="184.615px" style="font-family:'OpenSans-Bold', 'Open Sans', sans-serif;font-weight:700;font-size:10px;fill:#ef4a52;">l</text><text x="504.348px" y="184.615px" style="font-family:'OpenSans-Bold', 'Open Sans', sans-serif;font-weight:700;font-size:10px;fill:#ef4a52;">d</text></g><text x="319.908px" y="142.448px" style="font-family:'CourierNewPS-BoldMT', 'Courier New', monospace;font-weight:700;font-size:10px;fill:#fff;">/hello</text><g transform="matrix(1,0,0,1,-142.057,-62.5728)"><text x="461.606px" y="166.368px" style="font-family:'CourierNewPS-BoldMT', 'Courier New', monospace;font-weight:700;font-size:6px;fill:#535353;">E<tspan x="465.606px 469.607px 473.608px 477.608px 481.609px " y="166.368px 166.368px 166.368px 166.368px 166.368px ">xited</tspan></text><text x="488.61px" y="166.368px" style="font-family:'CourierNewPS-BoldMT', 'Courier New', monospace;font-weight:700;font-size:6px;fill:#535353;">(<tspan x="492.61px 496.611px " y="166.368px 166.368px ">0)</tspan></text></g></g><g transform="matrix(1,0,0,1,-144.876,-62.5728)"><text x="151.18px" y="195.757px" style="font-family:'OpenSans-BoldItalic', 'Open Sans', sans-serif;font-weight:700;font-style:italic;font-size:16px;fill:#08d7be;">C</text><text x="161.169px" y="195.757px" style="font-family:'OpenSans-BoldItalic', 'Open Sans', sans-serif;font-weight:700;font-style:italic;font-size:16px;fill:#08d7be;">o</text><text x="170.178px" y="195.757px" style="font-family:'OpenSans-BoldItalic', 'Open Sans', sans-serif;font-weight:700;font-style:italic;font-size:16px;fill:#08d7be;">n</text><text x="180.142px" y="195.757px" style="font-family:'OpenSans-BoldItalic', 'Open Sans', sans-serif;font-weight:700;font-style:italic;font-size:16px;fill:#08d7be;">t</text><text x="187.155px" y="195.757px" style="font-family:'OpenSans-BoldItalic', 'Open Sans', sans-serif;font-weight:700;font-style:italic;font-size:16px;fill:#08d7be;">a</text><text x="197.163px" y="195.757px" style="font-family:'OpenSans-BoldItalic', 'Open Sans', sans-serif;font-weight:700;font-style:italic;font-size:16px;fill:#08d7be;">i<tspan x="202.213px " y="195.757px ">n</tspan></text><text x="212.177px" y="195.757px" style="font-family:'OpenSans-BoldItalic', 'Open Sans', sans-serif;font-weight:700;font-style:italic;font-size:16px;fill:#08d7be;">e</text><text x="221.091px" y="195.757px" style="font-family:'OpenSans-BoldItalic', 'Open Sans', sans-serif;font-weight:700;font-style:italic;font-size:16px;fill:#08d7be;">r</text><text x="151.18px" y="211.757px" style="font-family:'OpenSans-BoldItalic', 'Open Sans', sans-serif;font-weight:700;font-style:italic;font-size:16px;fill:#08d7be;">I<tspan x="156.578px 166.492px 174.313px 181.125px 190.883px 200.797px 208.774px 217.938px " y="211.757px 211.757px 211.757px 211.757px 211.757px 211.757px 211.757px 211.757px ">nstances</tspan></text></g><g transform="matrix(1,0,0,1,-97.731,-8.15787)"><text x="151.289px" y="195.757px" style="font-family:'OpenSans-BoldItalic', 'Open Sans', sans-serif;font-weight:700;font-style:italic;font-size:7px;fill:#08d7be;">C</text><text x="155.659px" y="195.757px" style="font-family:'OpenSans-BoldItalic', 'Open Sans', sans-serif;font-weight:700;font-style:italic;font-size:7px;fill:#08d7be;">o</text><text x="159.601px" y="195.757px" style="font-family:'OpenSans-BoldItalic', 'Open Sans', sans-serif;font-weight:700;font-style:italic;font-size:7px;fill:#08d7be;">n</text><text x="163.96px" y="195.757px" style="font-family:'OpenSans-BoldItalic', 'Open Sans', sans-serif;font-weight:700;font-style:italic;font-size:7px;fill:#08d7be;">t</text><text x="167.028px" y="195.757px" style="font-family:'OpenSans-BoldItalic', 'Open Sans', sans-serif;font-weight:700;font-style:italic;font-size:7px;fill:#08d7be;">a</text><text x="171.407px" y="195.757px" style="font-family:'OpenSans-BoldItalic', 'Open Sans', sans-serif;font-weight:700;font-style:italic;font-size:7px;fill:#08d7be;">i<tspan x="173.616px " y="195.757px ">n</tspan></text><text x="177.975px" y="195.757px" style="font-family:'OpenSans-BoldItalic', 'Open Sans', sans-serif;font-weight:700;font-style:italic;font-size:7px;fill:#08d7be;">e</text><text x="181.875px" y="195.757px" style="font-family:'OpenSans-BoldItalic', 'Open Sans', sans-serif;font-weight:700;font-style:italic;font-size:7px;fill:#08d7be;">r</text><text x="186.902px" y="195.757px" style="font-family:'OpenSans-BoldItalic', 'Open Sans', sans-serif;font-weight:700;font-style:italic;font-size:7px;fill:#08d7be;">I<tspan x="189.264px 194.111px " y="195.757px 195.757px ">Ds</tspan></text></g><text x="179.723px" y="187.599px" style="font-family:'Hack-Regular', 'Hack', monospace;font-size:7px;fill:#535353;">36171a5da744</text><text x="246.597px" y="187.599px" style="font-family:'Hack-Regular', 'Hack', monospace;font-size:7px;fill:#535353;">a6a9d46d0b2f</text><text x="313.504px" y="187.599px" style="font-family:'Hack-Regular', 'Hack', monospace;font-size:7px;fill:#535353;">c317d0a9e3d2</text><text x="112.074px" y="187.599px" style="font-family:'Hack-Regular', 'Hack', monospace;font-size:7px;fill:#535353;">ff0a5c3750b9</text><g transform="matrix(1,0,0,1,-110.637,2.23612)"><text x="151.289px" y="195.757px" style="font-family:'OpenSans-BoldItalic', 'Open Sans', sans-serif;font-weight:700;font-style:italic;font-size:7px;fill:#08d7be;">C</text><text x="155.659px" y="195.757px" style="font-family:'OpenSans-BoldItalic', 'Open Sans', sans-serif;font-weight:700;font-style:italic;font-size:7px;fill:#08d7be;">o</text><text x="159.601px" y="195.757px" style="font-family:'OpenSans-BoldItalic', 'Open Sans', sans-serif;font-weight:700;font-style:italic;font-size:7px;fill:#08d7be;">n</text><text x="163.96px" y="195.757px" style="font-family:'OpenSans-BoldItalic', 'Open Sans', sans-serif;font-weight:700;font-style:italic;font-size:7px;fill:#08d7be;">t</text><text x="167.028px" y="195.757px" style="font-family:'OpenSans-BoldItalic', 'Open Sans', sans-serif;font-weight:700;font-style:italic;font-size:7px;fill:#08d7be;">a</text><text x="171.407px" y="195.757px" style="font-family:'OpenSans-BoldItalic', 'Open Sans', sans-serif;font-weight:700;font-style:italic;font-size:7px;fill:#08d7be;">i<tspan x="173.616px " y="195.757px ">n</tspan></text><text x="177.975px" y="195.757px" style="font-family:'OpenSans-BoldItalic', 'Open Sans', sans-serif;font-weight:700;font-style:italic;font-size:7px;fill:#08d7be;">e</text><text x="181.875px" y="195.757px" style="font-family:'OpenSans-BoldItalic', 'Open Sans', sans-serif;font-weight:700;font-style:italic;font-size:7px;fill:#08d7be;">r</text><text x="186.902px" y="195.757px" style="font-family:'OpenSans-BoldItalic', 'Open Sans', sans-serif;font-weight:700;font-style:italic;font-size:7px;fill:#08d7be;">N<tspan x="192.296px 196.565px 203.008px 207.017px " y="195.757px 195.757px 195.757px 195.757px ">ames</tspan></text></g><text x="250.209px" y="197.993px" style="font-family:'Hack-Regular', 'Hack', monospace;font-size:6px;fill:#535353;">lonely_kilby</text><text x="179.723px" y="197.993px" style="font-family:'Hack-Regular', 'Hack', monospace;font-size:6px;fill:#535353;">fervent_newton</text><text x="302.667px" y="197.993px" style="font-family:'Hack-Regular', 'Hack', monospace;font-size:6px;fill:#535353;">stupefied_mcclintock</text><text x="108.462px" y="197.993px" style="font-family:'Hack-Regular', 'Hack', monospace;font-size:6px;fill:#535353;">elated_ramanujan</text></svg>