<?xml version="1.0" encoding="UTF-8" standalone="no"?><!DOCTYPE svg PUBLIC "-//W3C//DTD SVG 1.1//EN" "http://www.w3.org/Graphics/SVG/1.1/DTD/svg11.dtd"><svg width="100%" height="100%" viewBox="0 0 425 309" version="1.1" xmlns="http://www.w3.org/2000/svg" xmlns:xlink="http://www.w3.org/1999/xlink" xml:space="preserve" xmlns:serif="http://www.serif.com/" style="fill-rule:evenodd;clip-rule:evenodd;stroke-linecap:round;stroke-linejoin:round;stroke-miterlimit:1.5;"><rect id="Scaling" x="-187.551" y="-190.106" width="800.007" height="587.952" style="fill:none;"/><g id="Framing-Elements" serif:id="Framing Elements"><path id="Bottom-bounding-line" serif:id="Bottom bounding line" d="M4.383,305.213l416.138,-1.263" style="fill:#a7a7a7;stroke:#a7a7a7;stroke-width:1px;"/><g id="top---scale" serif:id="top - scale"><text id="title---scale" serif:id="title - scale" x="106.105px" y="44.658px" style="font-family:'OpenSans-Regular', 'Open Sans', sans-serif;font-size:30px;fill:#167aab;">Scaling Services</text><path id="top-bound---scale" serif:id="top bound - scale" d="M4.807,4.088l416.138,-1.263" style="fill:#a7a7a7;stroke:#a7a7a7;stroke-width:1px;"/></g><text x="146.484px" y="293.459px" style="font-family:'OpenSans-Regular', 'Open Sans', sans-serif;font-size:12px;fill:#535353;">V<tspan x="153.387px 160.635px " y="293.459px 293.459px ">ot</tspan>ing App Ar<tspan x="222.633px 228.346px " y="293.459px 293.459px ">ch</tspan>itectur<tspan x="271.688px " y="293.459px ">e</tspan></text></g><g id="Stack"><path d="M307.878,92.917c0,-3.434 -2.788,-6.222 -6.222,-6.222l-277.988,0c-3.434,0 -6.222,2.788 -6.222,6.222l0,141.892c0,3.434 2.788,6.222 6.222,6.222l277.988,0c3.434,0 6.222,-2.788 6.222,-6.222l0,-141.892Z" style="fill:#ccc;stroke:#30b5e5;stroke-width:1px;"/><text x="25.246px" y="100.555px" style="font-family:'OpenSans-Regular', 'Open Sans', sans-serif;font-size:12px;fill:#535353;">voting_stack</text></g><g id="services---new" serif:id="services - new"><g id="vote"><g id="vote-5" serif:id="vote 5"><path d="M214.161,141.396c1.655,2.867 0.671,6.539 -2.196,8.194l-10.39,5.999c-0.413,0.238 -0.843,0.422 -1.281,0.553l0.013,0.023l-38.125,8.386l26.256,-28.916l0.009,0.016c0.335,-0.318 0.713,-0.601 1.131,-0.842l10.39,-5.999c2.867,-1.656 6.539,-0.672 8.194,2.195l5.999,10.391Z" style="fill:#3d5e70;stroke:#3d5e70;stroke-width:1px;stroke-linecap:butt;"/><path d="M116.129,131.038c1.656,-2.867 5.328,-3.851 8.195,-2.196l10.39,5.999c0.413,0.239 0.787,0.519 1.119,0.833l0.013,-0.023l26.326,28.824l-38.17,-8.28l0.009,-0.016c-0.443,-0.131 -0.877,-0.316 -1.295,-0.558l-10.39,-5.998c-2.867,-1.656 -3.851,-5.327 -2.196,-8.195l5.999,-10.39Z" style="fill:#3d5e70;stroke:#3d5e70;stroke-width:1px;stroke-linecap:butt;"/><path d="M195.632,118.469c2.867,1.656 3.851,5.328 2.196,8.195l-5.999,10.39c-0.238,0.413 -0.519,0.787 -0.833,1.12l0.023,0.013l-28.824,26.325l8.28,-38.17l0.016,0.01c0.132,-0.443 0.317,-0.878 0.558,-1.295l5.998,-10.391c1.656,-2.867 5.328,-3.851 8.195,-2.195l10.39,5.998Z" style="fill:#3d5e70;stroke:#3d5e70;stroke-width:1px;stroke-linecap:butt;"/><path d="M168.117,107.929c3.311,0 5.999,2.688 5.999,5.999l0,11.997c0,0.477 -0.056,0.941 -0.161,1.386l0.026,0l-11.8,37.211l-11.914,-37.196l0.019,0c-0.108,-0.45 -0.165,-0.919 -0.165,-1.401l0,-11.997c0,-3.311 2.688,-5.999 5.999,-5.999l11.997,0Z" style="fill:#3d5e70;stroke:#3d5e70;stroke-width:1px;stroke-linecap:butt;"/><path d="M139.032,112.55c2.867,-1.655 6.539,-0.672 8.194,2.196l5.999,10.39c0.239,0.413 0.422,0.842 0.553,1.281l0.023,-0.013l8.386,38.125l-28.916,-26.256l0.017,-0.009c-0.318,-0.336 -0.602,-0.713 -0.843,-1.131l-5.999,-10.39c-1.655,-2.867 -0.672,-6.539 2.196,-8.194l10.39,-5.999Z" style="fill:#3d5e70;stroke:#3d5e70;stroke-width:1px;stroke-linecap:butt;"/><g><path d="M167.756,114.312c0,-0.71 -0.576,-1.286 -1.286,-1.286l-8.725,0c-0.71,0 -1.286,0.576 -1.286,1.286l0,8.725c0,0.71 0.576,1.286 1.286,1.286l8.725,0c0.71,0 1.286,-0.576 1.286,-1.286l0,-8.725Z" style="fill:#fff;stroke:#c846ef;stroke-width:1px;"/><g><path d="M158.982,114.966l0,6.922" style="fill:none;stroke:#c846ef;stroke-width:1px;"/><path d="M161.066,114.966l0,6.922" style="fill:none;stroke:#c846ef;stroke-width:1px;"/><path d="M163.15,114.966l0,6.922" style="fill:none;stroke:#c846ef;stroke-width:1px;"/><path d="M165.233,114.966l0,6.922" style="fill:none;stroke:#c846ef;stroke-width:1px;"/></g></g><g><path d="M192.297,123.371c0.355,-0.614 0.144,-1.401 -0.471,-1.756l-7.556,-4.363c-0.615,-0.355 -1.402,-0.144 -1.757,0.471l-4.363,7.556c-0.354,0.615 -0.143,1.402 0.471,1.757l7.557,4.362c0.614,0.355 1.401,0.144 1.756,-0.47l4.363,-7.557Z" style="fill:#fff;stroke:#c846ef;stroke-width:1px;"/><g><path d="M184.371,119.551l-3.461,5.994" style="fill:none;stroke:#c846ef;stroke-width:1px;"/><path d="M186.176,120.593l-3.461,5.994" style="fill:none;stroke:#c846ef;stroke-width:1px;"/><path d="M187.98,121.634l-3.461,5.995" style="fill:none;stroke:#c846ef;stroke-width:1px;"/><path d="M189.785,122.676l-3.461,5.995" style="fill:none;stroke:#c846ef;stroke-width:1px;"/></g></g><g><path d="M208.654,144.272c0.615,-0.354 0.826,-1.141 0.471,-1.756l-4.363,-7.556c-0.355,-0.615 -1.142,-0.826 -1.756,-0.471l-7.557,4.363c-0.614,0.355 -0.825,1.142 -0.47,1.756l4.362,7.557c0.355,0.614 1.142,0.825 1.757,0.47l7.556,-4.363Z" style="fill:#fff;stroke:#c846ef;stroke-width:1px;"/><g><path d="M203.701,137.001l-5.995,3.461" style="fill:none;stroke:#c846ef;stroke-width:1px;"/><path d="M204.743,138.806l-5.995,3.461" style="fill:none;stroke:#c846ef;stroke-width:1px;"/><path d="M205.784,140.61l-5.994,3.461" style="fill:none;stroke:#c846ef;stroke-width:1px;"/><path d="M206.826,142.415l-5.995,3.461" style="fill:none;stroke:#c846ef;stroke-width:1px;"/></g></g><g><path d="M142.039,117.459c-0.355,-0.614 -1.142,-0.825 -1.757,-0.47l-7.556,4.362c-0.615,0.355 -0.826,1.142 -0.471,1.757l4.363,7.556c0.355,0.615 1.142,0.826 1.756,0.471l7.557,-4.363c0.614,-0.355 0.825,-1.142 0.471,-1.756l-4.363,-7.557Z" style="fill:#fff;stroke:#c846ef;stroke-width:1px;"/><g><path d="M134.767,122.413l3.461,5.995" style="fill:none;stroke:#c846ef;stroke-width:1px;"/><path d="M136.572,121.371l3.461,5.995" style="fill:none;stroke:#c846ef;stroke-width:1px;"/><path d="M138.376,120.329l3.461,5.995" style="fill:none;stroke:#c846ef;stroke-width:1px;"/><path d="M140.181,119.287l3.461,5.995" style="fill:none;stroke:#c846ef;stroke-width:1px;"/></g></g><g><path d="M122.017,133.985c-0.615,-0.355 -1.402,-0.144 -1.756,0.471l-4.363,7.556c-0.355,0.615 -0.144,1.402 0.471,1.757l7.556,4.362c0.615,0.355 1.402,0.144 1.756,-0.47l4.363,-7.557c0.355,-0.614 0.144,-1.401 -0.47,-1.756l-7.557,-4.363Z" style="fill:#fff;stroke:#c846ef;stroke-width:1px;"/><g><path d="M118.196,141.911l5.995,3.461" style="fill:none;stroke:#c846ef;stroke-width:1px;"/><path d="M119.238,140.106l5.995,3.461" style="fill:none;stroke:#c846ef;stroke-width:1px;"/><path d="M120.28,138.302l5.995,3.461" style="fill:none;stroke:#c846ef;stroke-width:1px;"/><path d="M121.322,136.497l5.995,3.461" style="fill:none;stroke:#c846ef;stroke-width:1px;"/></g></g></g><g><rect x="143.106" y="153.919" width="34.013" height="12" style="fill:#3d5e70;"/><text x="148.072px" y="163.685px" style="font-family:'Hack-Regular', 'Hack', monospace;font-size:10px;fill:#fff;">vote</text></g></g><g id="db"><g><path d="M72.972,108.351c3.276,0.001 5.935,2.66 5.935,5.935l0,11.869c0,0.471 -0.055,0.93 -0.16,1.37l0.026,0l-11.673,36.812l-11.786,-36.797l0.018,0c-0.106,-0.445 -0.163,-0.908 -0.163,-1.385l0,-11.869c0,-3.275 2.659,-5.934 5.935,-5.935l11.868,0Z" style="fill:#3d5e70;"/><g><path d="M73.12,114.045c0,-0.702 -0.57,-1.272 -1.272,-1.272l-8.632,0c-0.702,0 -1.272,0.57 -1.272,1.272l0,8.632c0,0.702 0.57,1.272 1.272,1.272l8.632,0c0.702,0 1.272,-0.57 1.272,-1.272l0,-8.632Z" style="fill:#fff;stroke:#95d0ff;stroke-width:1px;"/><g><path d="M64.44,114.692l0,6.848" style="fill:none;stroke:#95d0ff;stroke-width:1px;"/><path d="M66.502,114.692l0,6.848" style="fill:none;stroke:#95d0ff;stroke-width:1px;"/><path d="M68.563,114.692l0,6.848" style="fill:none;stroke:#95d0ff;stroke-width:1px;"/><path d="M70.624,114.692l0,6.848" style="fill:none;stroke:#95d0ff;stroke-width:1px;"/></g></g></g><g><rect x="50.071" y="153.919" width="34.013" height="12" style="fill:#3d5e70;"/><text x="61.057px" y="163.685px" style="font-family:'Hack-Regular', 'Hack', monospace;font-size:10px;fill:#fff;">db</text></g></g><g id="visualizer"><g><path d="M260.614,174.712c3.275,0 5.934,2.659 5.934,5.934l0,11.869c0,0.471 -0.055,0.931 -0.159,1.371l0.026,0l-11.674,36.811l-11.786,-36.797l0.019,0c-0.107,-0.444 -0.163,-0.908 -0.163,-1.385l0,-11.869c0,-3.275 2.659,-5.934 5.934,-5.934l11.869,0Z" style="fill:#3d5e70;"/><g><path d="M260.762,180.405c0,-0.702 -0.57,-1.272 -1.272,-1.272l-8.632,0c-0.702,0 -1.272,0.57 -1.272,1.272l0,8.632c0,0.702 0.57,1.272 1.272,1.272l8.632,0c0.702,0 1.272,-0.57 1.272,-1.272l0,-8.632Z" style="fill:#fff;stroke:#55c4f3;stroke-width:1px;"/><g><path d="M252.082,181.052l0,6.848" style="fill:none;stroke:#55c4f3;stroke-width:1px;"/><path d="M254.143,181.052l0,6.848" style="fill:none;stroke:#55c4f3;stroke-width:1px;"/><path d="M256.205,181.052l0,6.848" style="fill:none;stroke:#55c4f3;stroke-width:1px;"/><path d="M258.266,181.052l0,6.848" style="fill:none;stroke:#55c4f3;stroke-width:1px;"/></g></g></g><g><rect x="221.891" y="220.409" width="66.532" height="12" style="fill:#3d5e70;"/><text x="225.054px" y="230.169px" style="font-family:'Hack-Regular', 'Hack', monospace;font-size:10px;fill:#fff;">visualizer</text></g></g><g id="redis"><g id="redis1" serif:id="redis"><path d="M166.047,174.318c3.275,0 5.934,2.659 5.934,5.934l0,11.869c0,0.472 -0.055,0.931 -0.159,1.371l0.026,0l-11.673,36.811l-11.787,-36.797l0.019,0c-0.107,-0.444 -0.163,-0.908 -0.163,-1.385l0,-11.869c0,-3.275 2.659,-5.934 5.934,-5.934l11.869,0Z" style="fill:#3d5e70;"/><g><path d="M166.195,180.011c0,-0.702 -0.57,-1.272 -1.272,-1.272l-8.632,0c-0.702,0 -1.272,0.57 -1.272,1.272l0,8.632c0,0.702 0.57,1.272 1.272,1.272l8.632,0c0.702,0 1.272,-0.57 1.272,-1.272l0,-8.632Z" style="fill:#fff;stroke:#fcf;stroke-width:1px;"/><g><path d="M157.515,180.658l0,6.848" style="fill:none;stroke:#fcf;stroke-width:1px;"/><path d="M159.576,180.658l0,6.848" style="fill:none;stroke:#fcf;stroke-width:1px;"/><path d="M161.638,180.658l0,6.848" style="fill:none;stroke:#fcf;stroke-width:1px;"/><path d="M163.699,180.658l0,6.848" style="fill:none;stroke:#fcf;stroke-width:1px;"/></g></g></g><g><rect x="141.064" y="220.409" width="38.097" height="12" style="fill:#3d5e70;"/><text x="145.061px" y="229.776px" style="font-family:'Hack-Regular', 'Hack', monospace;font-size:10px;fill:#fff;">redis</text></g></g><g id="worker"><g id="worker-svc" serif:id="worker svc"><path d="M73.012,174.318c3.276,0 5.935,2.659 5.935,5.934l0,11.869c0,0.472 -0.056,0.931 -0.16,1.371l0.026,0l-11.673,36.811l-11.787,-36.797l0.019,0c-0.106,-0.444 -0.163,-0.908 -0.163,-1.385l0,-11.869c0,-3.275 2.659,-5.934 5.934,-5.934l11.869,0Z" style="fill:#3d5e70;"/><g><path d="M73.16,180.011c0,-0.702 -0.57,-1.272 -1.272,-1.272l-8.632,0c-0.702,0 -1.272,0.57 -1.272,1.272l0,8.632c0,0.702 0.57,1.272 1.272,1.272l8.632,0c0.702,0 1.272,-0.57 1.272,-1.272l0,-8.632Z" style="fill:#fff;stroke:#60d26a;stroke-width:1px;"/><g><path d="M64.48,180.658l0,6.848" style="fill:none;stroke:#60d26a;stroke-width:1px;"/><path d="M66.541,180.658l0,6.848" style="fill:none;stroke:#60d26a;stroke-width:1px;"/><path d="M68.603,180.658l0,6.848" style="fill:none;stroke:#60d26a;stroke-width:1px;"/><path d="M70.664,180.658l0,6.848" style="fill:none;stroke:#60d26a;stroke-width:1px;"/></g></g></g><g><rect x="46.036" y="220.409" width="41.394" height="12" style="fill:#3d5e70;"/><text x="49.016px" y="229.776px" style="font-family:'Hack-Regular', 'Hack', monospace;font-size:10px;fill:#fff;">worker</text></g></g><g id="result"><g id="result1" serif:id="result"><path d="M261.091,107.833c3.276,0 5.935,2.659 5.935,5.934l0,11.869c0,0.472 -0.055,0.931 -0.16,1.371l0.026,0l-11.673,36.811l-11.787,-36.797l0.019,0c-0.106,-0.444 -0.163,-0.908 -0.163,-1.385l0,-11.869c0,-3.275 2.659,-5.934 5.935,-5.934l11.868,0Z" style="fill:#3d5e70;"/><g><path d="M261.239,113.526c0,-0.702 -0.57,-1.272 -1.272,-1.272l-8.632,0c-0.702,0 -1.272,0.57 -1.272,1.272l0,8.632c0,0.702 0.57,1.272 1.272,1.272l8.632,0c0.702,0 1.272,-0.57 1.272,-1.272l0,-8.632Z" style="fill:#fff;stroke:#00e7ab;stroke-width:1px;"/><g><path d="M252.559,114.173l0,6.848" style="fill:none;stroke:#00e7ab;stroke-width:1px;"/><path d="M254.621,114.173l0,6.848" style="fill:none;stroke:#00e7ab;stroke-width:1px;"/><path d="M256.682,114.173l0,6.848" style="fill:none;stroke:#00e7ab;stroke-width:1px;"/><path d="M258.743,114.173l0,6.848" style="fill:none;stroke:#00e7ab;stroke-width:1px;"/></g></g></g><g><rect x="234.366" y="153.919" width="41.393" height="12" style="fill:#3d5e70;"/><text x="237.096px" y="163.291px" style="font-family:'Hack-Regular', 'Hack', monospace;font-size:10px;fill:#fff;">result</text></g></g></g><g id="Labels"><g id="Label---Scale" serif:id="Label - Scale"><g><path d="M146.209,112.913l17.144,-21.533l133.527,-7.524l113.336,0.143" style="fill:none;stroke:#ef4a52;stroke-width:1px;stroke-linecap:butt;"/><path d="M163.353,91.38l15.261,21.604" style="fill:#ef4a52;stroke:#ef4a52;stroke-width:1px;stroke-linecap:butt;"/><path d="M163.353,91.38l35.281,12.203l6.411,25.717" style="fill:none;stroke:#ef4a52;stroke-width:1px;stroke-linecap:butt;"/><path d="M163.353,91.38l-37.607,13.922l-5.247,23.589" style="fill:none;stroke:#ef4a52;stroke-width:1px;stroke-linecap:butt;"/><path d="M163.353,91.38l-0.117,16.806" style="fill:#ef4a52;stroke:#ef4a52;stroke-width:1px;stroke-linecap:butt;"/></g><g transform="matrix(1,0,0,1,-1169.82,-188.846)"><text x="1493.99px" y="282.263px" style="font-family:'Hack-Italic', 'Hack', monospace;font-style:italic;font-size:7px;fill:#535353;">docker service scale</text><text x="1497.76px" y="294.263px" style="font-family:'OpenSans-Regular', 'Open Sans', sans-serif;font-size:8px;fill:#535353;">command r<tspan x="1540.73px 1545.22px " y="294.263px 294.263px ">es</tspan>ults in 5</text><text x="1484.66px" y="302.263px" style="font-family:'OpenSans-Bold', 'Open Sans', sans-serif;font-weight:700;font-size:8px;fill:#30b5e5;">tasks</text><text x="1507.95px" y="302.263px" style="font-family:'OpenSans-Regular', 'Open Sans', sans-serif;font-size:8px;fill:#535353;">of the vote</text><text x="1550.11px" y="302.263px" style="font-family:'OpenSans-Bold', 'Open Sans', sans-serif;font-weight:700;font-size:8px;fill:#30b5e5;">service</text><text x="1485.08px" y="310.263px" style="font-family:'OpenSans-Regular', 'Open Sans', sans-serif;font-size:8px;fill:#535353;">in our voting_stack</text><text x="1556.92px" y="310.263px" style="font-family:'OpenSans-Bold', 'Open Sans', sans-serif;font-weight:700;font-size:8px;fill:#30b5e5;">stack</text></g><text x="369.471px" y="77.652px" style="font-family:'OpenSans-Regular', 'Open Sans', sans-serif;font-size:12px;fill:#ef4a52;">Scaling</text></g></g></svg>