<?xml version="1.0" encoding="UTF-8" standalone="no"?><!DOCTYPE svg PUBLIC "-//W3C//DTD SVG 1.1//EN" "http://www.w3.org/Graphics/SVG/1.1/DTD/svg11.dtd"><svg width="100%" height="100%" viewBox="0 0 370 279" version="1.1" xmlns="http://www.w3.org/2000/svg" xmlns:xlink="http://www.w3.org/1999/xlink" xml:space="preserve" xmlns:serif="http://www.serif.com/" style="fill-rule:evenodd;clip-rule:evenodd;stroke-linejoin:bevel;stroke-miterlimit:10;"><rect id="Basics---Isolation---exec" serif:id="Basics - Isolation - exec" x="-29.986" y="-43.321" width="429.638" height="343.719" style="fill:none;"/><g id="Title" transform="matrix(1,0,0,1,-162.905,-77.6129)"><text x="194.25px" y="113.808px" style="font-family:'Hack-Regular', 'Hack', monospace;font-size:24px;fill:#008ec0;">d<tspan x="208.199px " y="113.808px ">o</tspan></text><text x="222.148px" y="113.808px" style="font-family:'Hack-Regular', 'Hack', monospace;font-size:24px;fill:#008ec0;">c</text><text x="236.198px" y="113.808px" style="font-family:'Hack-Regular', 'Hack', monospace;font-size:24px;fill:#008ec0;">k</text><text x="251.497px" y="113.808px" style="font-family:'Hack-Regular', 'Hack', monospace;font-size:24px;fill:#008ec0;">e</text><text x="265.446px" y="113.808px" style="font-family:'Hack-Regular', 'Hack', monospace;font-size:24px;fill:#008ec0;">r</text><text x="297.31px" y="113.808px" style="font-family:'Hack-Regular', 'Hack', monospace;font-size:24px;fill:#008ec0;"><tspan x="297.31px " y="113.808px ">c</tspan></text><text x="312.86px" y="113.808px" style="font-family:'Hack-Regular', 'Hack', monospace;font-size:24px;fill:#008ec0;">o</text><text x="326.809px" y="113.808px" style="font-family:'Hack-Regular', 'Hack', monospace;font-size:24px;fill:#008ec0;">n</text><text x="341.558px" y="113.808px" style="font-family:'Hack-Regular', 'Hack', monospace;font-size:24px;fill:#008ec0;">t</text><text x="355.507px" y="113.808px" style="font-family:'Hack-Regular', 'Hack', monospace;font-size:24px;fill:#008ec0;">a</text><text x="369.557px" y="113.808px" style="font-family:'Hack-Regular', 'Hack', monospace;font-size:24px;fill:#008ec0;">i</text><text x="383.906px" y="113.808px" style="font-family:'Hack-Regular', 'Hack', monospace;font-size:24px;fill:#008ec0;">n</text><text x="398.655px" y="113.808px" style="font-family:'Hack-Regular', 'Hack', monospace;font-size:24px;fill:#008ec0;">e</text><text x="412.604px" y="113.808px" style="font-family:'Hack-Regular', 'Hack', monospace;font-size:24px;fill:#008ec0;">r</text><text x="443.517px" y="113.808px" style="font-family:'Hack-Regular', 'Hack', monospace;font-size:24px;fill:#008ec0;"><tspan x="443.517px " y="113.808px ">e</tspan></text><text x="458.216px" y="113.808px" style="font-family:'Hack-Regular', 'Hack', monospace;font-size:24px;fill:#008ec0;">x<tspan x="472.965px 487.714px " y="113.808px 113.808px ">ec</tspan></text></g><g id="bounding-lines" serif:id="bounding lines"><path d="M10.096,5.34l351.458,0" style="fill:none;stroke:#a7a7a7;stroke-width:1px;"/><path d="M9.096,273.974l351.458,0" style="fill:none;stroke:#a7a7a7;stroke-width:1px;"/></g><g id="alpine-container-1" serif:id="alpine container 1"><path d="M102.571,83.36c0,-1.413 1.146,-2.559 2.559,-2.559l53.883,0c1.413,0 2.558,1.146 2.558,2.559l0,46.883c0,1.413 -1.145,2.558 -2.558,2.558l-53.883,0c-1.413,0 -2.559,-1.145 -2.559,-2.558l0,-46.883Z" style="fill:none;stroke:#75a0af;stroke-width:1px;stroke-linejoin:round;stroke-dasharray:1,1;"/><rect x="104.071" y="101.301" width="56" height="18" style="fill:#171717;"/><path d="M124.933,125.801l14.587,0c0.931,0 1.551,0.621 1.551,1.552l0,14.897c0,0.931 -0.62,1.551 -1.551,1.551l-14.587,0c-0.931,0 -1.862,-0.62 -1.862,-1.551l0,-14.897c0,-0.931 0.931,-1.552 1.862,-1.552Z" style="fill:#fff;stroke:#00b050;stroke-width:1px;stroke-linejoin:miter;stroke-miterlimit:8;stroke-dasharray:3,1;"/><g><path d="M128.071,131.364c-0.276,0 -0.5,-0.224 -0.5,-0.5l0,-0.001c0,-0.276 0.224,-0.5 0.5,-0.5c0.276,0 0.5,0.224 0.5,0.5l0,0.001c0,0.276 -0.224,0.5 -0.5,0.5Zm0,2.001c-0.276,0 -0.5,-0.224 -0.5,-0.5l0,-0.001c0,-0.276 0.224,-0.5 0.5,-0.5c0.276,0 0.5,0.224 0.5,0.5l0,0.001c0,0.276 -0.224,0.5 -0.5,0.5Zm0,2.001c-0.276,0 -0.5,-0.224 -0.5,-0.5l0,-0.001c0,-0.276 0.224,-0.5 0.5,-0.5c0.276,0 0.5,0.224 0.5,0.5l0,0.001c0,0.276 -0.224,0.5 -0.5,0.5Zm0,2.001c-0.276,0 -0.5,-0.224 -0.5,-0.5l0,-0.001c0,-0.276 0.224,-0.5 0.5,-0.5c0.276,0 0.5,0.224 0.5,0.5l0,0.001c0,0.276 -0.224,0.5 -0.5,0.5Zm0,2.001c-0.276,0 -0.5,-0.224 -0.5,-0.5l0,-0.001c0,-0.276 0.224,-0.5 0.5,-0.5c0.276,0 0.5,0.224 0.5,0.5l0,0.001c0,0.276 -0.224,0.5 -0.5,0.5Z" style="fill:#00b050;fill-rule:nonzero;"/><path d="M130.738,131.364c-0.276,0 -0.5,-0.224 -0.5,-0.5l0,-0.001c0,-0.276 0.224,-0.5 0.5,-0.5c0.276,0 0.5,0.224 0.5,0.5l0,0.001c0,0.276 -0.224,0.5 -0.5,0.5Zm0,2.001c-0.276,0 -0.5,-0.224 -0.5,-0.5l0,-0.001c0,-0.276 0.224,-0.5 0.5,-0.5c0.276,0 0.5,0.224 0.5,0.5l0,0.001c0,0.276 -0.224,0.5 -0.5,0.5Zm0,2.001c-0.276,0 -0.5,-0.224 -0.5,-0.5l0,-0.001c0,-0.276 0.224,-0.5 0.5,-0.5c0.276,0 0.5,0.224 0.5,0.5l0,0.001c0,0.276 -0.224,0.5 -0.5,0.5Zm0,2.001c-0.276,0 -0.5,-0.224 -0.5,-0.5l0,-0.001c0,-0.276 0.224,-0.5 0.5,-0.5c0.276,0 0.5,0.224 0.5,0.5l0,0.001c0,0.276 -0.224,0.5 -0.5,0.5Zm0,2.001c-0.276,0 -0.5,-0.224 -0.5,-0.5l0,-0.001c0,-0.276 0.224,-0.5 0.5,-0.5c0.276,0 0.5,0.224 0.5,0.5l0,0.001c0,0.276 -0.224,0.5 -0.5,0.5Z" style="fill:#00b050;fill-rule:nonzero;"/><path d="M133.405,131.364c-0.276,0 -0.5,-0.224 -0.5,-0.5l0,-0.001c0,-0.276 0.224,-0.5 0.5,-0.5c0.276,0 0.5,0.224 0.5,0.5l0,0.001c0,0.276 -0.224,0.5 -0.5,0.5Zm0,2.001c-0.276,0 -0.5,-0.224 -0.5,-0.5l0,-0.001c0,-0.276 0.224,-0.5 0.5,-0.5c0.276,0 0.5,0.224 0.5,0.5l0,0.001c0,0.276 -0.224,0.5 -0.5,0.5Zm0,2.001c-0.276,0 -0.5,-0.224 -0.5,-0.5l0,-0.001c0,-0.276 0.224,-0.5 0.5,-0.5c0.276,0 0.5,0.224 0.5,0.5l0,0.001c0,0.276 -0.224,0.5 -0.5,0.5Zm0,2.001c-0.276,0 -0.5,-0.224 -0.5,-0.5l0,-0.001c0,-0.276 0.224,-0.5 0.5,-0.5c0.276,0 0.5,0.224 0.5,0.5l0,0.001c0,0.276 -0.224,0.5 -0.5,0.5Zm0,2.001c-0.276,0 -0.5,-0.224 -0.5,-0.5l0,-0.001c0,-0.276 0.224,-0.5 0.5,-0.5c0.276,0 0.5,0.224 0.5,0.5l0,0.001c0,0.276 -0.224,0.5 -0.5,0.5Z" style="fill:#00b050;fill-rule:nonzero;"/><path d="M136.071,131.364c-0.276,0 -0.5,-0.224 -0.5,-0.5l0,-0.001c0,-0.276 0.224,-0.5 0.5,-0.5c0.276,0 0.5,0.224 0.5,0.5l0,0.001c0,0.276 -0.224,0.5 -0.5,0.5Zm0,2.001c-0.276,0 -0.5,-0.224 -0.5,-0.5l0,-0.001c0,-0.276 0.224,-0.5 0.5,-0.5c0.276,0 0.5,0.224 0.5,0.5l0,0.001c0,0.276 -0.224,0.5 -0.5,0.5Zm0,2.001c-0.276,0 -0.5,-0.224 -0.5,-0.5l0,-0.001c0,-0.276 0.224,-0.5 0.5,-0.5c0.276,0 0.5,0.224 0.5,0.5l0,0.001c0,0.276 -0.224,0.5 -0.5,0.5Zm0,2.001c-0.276,0 -0.5,-0.224 -0.5,-0.5l0,-0.001c0,-0.276 0.224,-0.5 0.5,-0.5c0.276,0 0.5,0.224 0.5,0.5l0,0.001c0,0.276 -0.224,0.5 -0.5,0.5Zm0,2.001c-0.276,0 -0.5,-0.224 -0.5,-0.5l0,-0.001c0,-0.276 0.224,-0.5 0.5,-0.5c0.276,0 0.5,0.224 0.5,0.5l0,0.001c0,0.276 -0.224,0.5 -0.5,0.5Z" style="fill:#00b050;fill-rule:nonzero;"/></g><g transform="matrix(1,0,0,1,-148.804,-91.6987)"><text x="265.429px" y="184.047px" style="font-family:'OpenSans-Bold', 'Open Sans', sans-serif;font-weight:700;font-size:10px;fill:#00b050;">al</text><text x="274.521px" y="184.047px" style="font-family:'OpenSans-Bold', 'Open Sans', sans-serif;font-weight:700;font-size:10px;fill:#00b050;">p</text><text x="280.449px" y="184.047px" style="font-family:'OpenSans-Bold', 'Open Sans', sans-serif;font-weight:700;font-size:10px;fill:#00b050;">i</text><text x="283.5px" y="184.047px" style="font-family:'OpenSans-Bold', 'Open Sans', sans-serif;font-weight:700;font-size:10px;fill:#00b050;">n</text><text x="290.423px" y="184.047px" style="font-family:'OpenSans-Bold', 'Open Sans', sans-serif;font-weight:700;font-size:10px;fill:#00b050;">e</text></g><text x="117.069px" y="113.426px" style="font-family:'CourierNewPS-BoldMT', 'Courier New', monospace;font-weight:700;font-size:10px;fill:#fff;">ls –l</text><g transform="matrix(1,0,0,1,-147.074,-91.6987)"><text x="260.57px" y="166.368px" style="font-family:'CourierNewPS-BoldMT', 'Courier New', monospace;font-weight:700;font-size:6px;fill:#535353;">E<tspan x="264.571px 268.571px 272.572px 276.573px 280.573px " y="166.368px 166.368px 166.368px 166.368px 166.368px ">xited</tspan></text><text x="287.574px" y="166.368px" style="font-family:'CourierNewPS-BoldMT', 'Courier New', monospace;font-weight:700;font-size:6px;fill:#535353;">(<tspan x="291.575px " y="166.368px ">0</tspan></text><text x="295.575px" y="166.368px" style="font-family:'CourierNewPS-BoldMT', 'Courier New', monospace;font-weight:700;font-size:6px;fill:#535353;">)</text></g></g><g id="alpine-container-3" serif:id="alpine container 3"><path d="M236.571,83.36c0,-1.413 1.146,-2.559 2.559,-2.559l53.883,0c1.413,0 2.558,1.146 2.558,2.559l0,46.883c0,1.413 -1.145,2.558 -2.558,2.558l-53.883,0c-1.413,0 -2.559,-1.145 -2.559,-2.558l0,-46.883Z" style="fill:none;stroke:#75a0af;stroke-width:1px;stroke-linejoin:round;stroke-dasharray:1,1;"/><rect x="238.071" y="101.301" width="56" height="18" style="fill:#171717;"/><path d="M258.933,125.801l14.587,0c0.931,0 1.551,0.621 1.551,1.552l0,14.897c0,0.931 -0.62,1.551 -1.551,1.551l-14.587,0c-0.931,0 -1.862,-0.62 -1.862,-1.551l0,-14.897c0,-0.931 0.931,-1.552 1.862,-1.552Z" style="fill:#fff;stroke:#00b050;stroke-width:1px;stroke-linejoin:miter;stroke-miterlimit:8;stroke-dasharray:3,1;"/><g><path d="M262.071,131.364c-0.276,0 -0.5,-0.224 -0.5,-0.5l0,-0.001c0,-0.276 0.224,-0.5 0.5,-0.5c0.276,0 0.5,0.224 0.5,0.5l0,0.001c0,0.276 -0.224,0.5 -0.5,0.5Zm0,2.001c-0.276,0 -0.5,-0.224 -0.5,-0.5l0,-0.001c0,-0.276 0.224,-0.5 0.5,-0.5c0.276,0 0.5,0.224 0.5,0.5l0,0.001c0,0.276 -0.224,0.5 -0.5,0.5Zm0,2.001c-0.276,0 -0.5,-0.224 -0.5,-0.5l0,-0.001c0,-0.276 0.224,-0.5 0.5,-0.5c0.276,0 0.5,0.224 0.5,0.5l0,0.001c0,0.276 -0.224,0.5 -0.5,0.5Zm0,2.001c-0.276,0 -0.5,-0.224 -0.5,-0.5l0,-0.001c0,-0.276 0.224,-0.5 0.5,-0.5c0.276,0 0.5,0.224 0.5,0.5l0,0.001c0,0.276 -0.224,0.5 -0.5,0.5Zm0,2.001c-0.276,0 -0.5,-0.224 -0.5,-0.5l0,-0.001c0,-0.276 0.224,-0.5 0.5,-0.5c0.276,0 0.5,0.224 0.5,0.5l0,0.001c0,0.276 -0.224,0.5 -0.5,0.5Z" style="fill:#00b050;fill-rule:nonzero;"/><path d="M264.738,131.364c-0.276,0 -0.5,-0.224 -0.5,-0.5l0,-0.001c0,-0.276 0.224,-0.5 0.5,-0.5c0.276,0 0.5,0.224 0.5,0.5l0,0.001c0,0.276 -0.224,0.5 -0.5,0.5Zm0,2.001c-0.276,0 -0.5,-0.224 -0.5,-0.5l0,-0.001c0,-0.276 0.224,-0.5 0.5,-0.5c0.276,0 0.5,0.224 0.5,0.5l0,0.001c0,0.276 -0.224,0.5 -0.5,0.5Zm0,2.001c-0.276,0 -0.5,-0.224 -0.5,-0.5l0,-0.001c0,-0.276 0.224,-0.5 0.5,-0.5c0.276,0 0.5,0.224 0.5,0.5l0,0.001c0,0.276 -0.224,0.5 -0.5,0.5Zm0,2.001c-0.276,0 -0.5,-0.224 -0.5,-0.5l0,-0.001c0,-0.276 0.224,-0.5 0.5,-0.5c0.276,0 0.5,0.224 0.5,0.5l0,0.001c0,0.276 -0.224,0.5 -0.5,0.5Zm0,2.001c-0.276,0 -0.5,-0.224 -0.5,-0.5l0,-0.001c0,-0.276 0.224,-0.5 0.5,-0.5c0.276,0 0.5,0.224 0.5,0.5l0,0.001c0,0.276 -0.224,0.5 -0.5,0.5Z" style="fill:#00b050;fill-rule:nonzero;"/><path d="M267.405,131.364c-0.276,0 -0.5,-0.224 -0.5,-0.5l0,-0.001c0,-0.276 0.224,-0.5 0.5,-0.5c0.276,0 0.5,0.224 0.5,0.5l0,0.001c0,0.276 -0.224,0.5 -0.5,0.5Zm0,2.001c-0.276,0 -0.5,-0.224 -0.5,-0.5l0,-0.001c0,-0.276 0.224,-0.5 0.5,-0.5c0.276,0 0.5,0.224 0.5,0.5l0,0.001c0,0.276 -0.224,0.5 -0.5,0.5Zm0,2.001c-0.276,0 -0.5,-0.224 -0.5,-0.5l0,-0.001c0,-0.276 0.224,-0.5 0.5,-0.5c0.276,0 0.5,0.224 0.5,0.5l0,0.001c0,0.276 -0.224,0.5 -0.5,0.5Zm0,2.001c-0.276,0 -0.5,-0.224 -0.5,-0.5l0,-0.001c0,-0.276 0.224,-0.5 0.5,-0.5c0.276,0 0.5,0.224 0.5,0.5l0,0.001c0,0.276 -0.224,0.5 -0.5,0.5Zm0,2.001c-0.276,0 -0.5,-0.224 -0.5,-0.5l0,-0.001c0,-0.276 0.224,-0.5 0.5,-0.5c0.276,0 0.5,0.224 0.5,0.5l0,0.001c0,0.276 -0.224,0.5 -0.5,0.5Z" style="fill:#00b050;fill-rule:nonzero;"/><path d="M270.071,131.364c-0.276,0 -0.5,-0.224 -0.5,-0.5l0,-0.001c0,-0.276 0.224,-0.5 0.5,-0.5c0.276,0 0.5,0.224 0.5,0.5l0,0.001c0,0.276 -0.224,0.5 -0.5,0.5Zm0,2.001c-0.276,0 -0.5,-0.224 -0.5,-0.5l0,-0.001c0,-0.276 0.224,-0.5 0.5,-0.5c0.276,0 0.5,0.224 0.5,0.5l0,0.001c0,0.276 -0.224,0.5 -0.5,0.5Zm0,2.001c-0.276,0 -0.5,-0.224 -0.5,-0.5l0,-0.001c0,-0.276 0.224,-0.5 0.5,-0.5c0.276,0 0.5,0.224 0.5,0.5l0,0.001c0,0.276 -0.224,0.5 -0.5,0.5Zm0,2.001c-0.276,0 -0.5,-0.224 -0.5,-0.5l0,-0.001c0,-0.276 0.224,-0.5 0.5,-0.5c0.276,0 0.5,0.224 0.5,0.5l0,0.001c0,0.276 -0.224,0.5 -0.5,0.5Zm0,2.001c-0.276,0 -0.5,-0.224 -0.5,-0.5l0,-0.001c0,-0.276 0.224,-0.5 0.5,-0.5c0.276,0 0.5,0.224 0.5,0.5l0,0.001c0,0.276 -0.224,0.5 -0.5,0.5Z" style="fill:#00b050;fill-rule:nonzero;"/></g><g transform="matrix(1,0,0,1,-148.792,-91.6987)"><text x="399.417px" y="184.044px" style="font-family:'OpenSans-Bold', 'Open Sans', sans-serif;font-weight:700;font-size:10px;fill:#00b050;">al</text><text x="408.509px" y="184.044px" style="font-family:'OpenSans-Bold', 'Open Sans', sans-serif;font-weight:700;font-size:10px;fill:#00b050;">p</text><text x="414.437px" y="184.044px" style="font-family:'OpenSans-Bold', 'Open Sans', sans-serif;font-weight:700;font-size:10px;fill:#00b050;">i</text><text x="417.488px" y="184.044px" style="font-family:'OpenSans-Bold', 'Open Sans', sans-serif;font-weight:700;font-size:10px;fill:#00b050;">n</text><text x="424.411px" y="184.044px" style="font-family:'OpenSans-Bold', 'Open Sans', sans-serif;font-weight:700;font-size:10px;fill:#00b050;">e</text></g><text x="254.108px" y="113.229px" style="font-family:'CourierNewPS-BoldMT', 'Courier New', monospace;font-weight:700;font-size:10px;fill:#fff;">echo</text><g transform="matrix(1,0,0,1,-147.115,-91.6987)"><text x="394.612px" y="166.368px" style="font-family:'CourierNewPS-BoldMT', 'Courier New', monospace;font-weight:700;font-size:6px;fill:#535353;">E<tspan x="398.612px 402.613px 406.614px 410.614px 414.615px " y="166.368px 166.368px 166.368px 166.368px 166.368px ">xited</tspan></text><text x="421.616px" y="166.368px" style="font-family:'CourierNewPS-BoldMT', 'Courier New', monospace;font-weight:700;font-size:6px;fill:#535353;">(<tspan x="425.616px 429.617px " y="166.368px 166.368px ">0)</tspan></text></g></g><g id="hello-world-container-1" serif:id="hello-world container 1"><path d="M303.571,84.311c0,-1.386 1.124,-2.51 2.51,-2.51l53.981,0c1.386,0 2.509,1.124 2.509,2.51l0,45.981c0,1.386 -1.123,2.509 -2.509,2.509l-53.981,0c-1.386,0 -2.51,-1.123 -2.51,-2.509l0,-45.981Z" style="fill:none;stroke:#75a0af;stroke-width:1px;stroke-linejoin:round;stroke-dasharray:1,1;"/><rect x="305.071" y="101.301" width="56" height="18" style="fill:#171717;"/><path d="M325.933,125.801l14.587,0c0.931,0 1.551,0.621 1.551,1.552l0,14.897c0,0.931 -0.62,1.551 -1.551,1.551l-14.587,0c-0.931,0 -1.862,-0.62 -1.862,-1.551l0,-14.897c0,-0.931 0.931,-1.552 1.862,-1.552Z" style="fill:#fff;stroke:#ef4a52;stroke-width:1px;stroke-linejoin:miter;stroke-miterlimit:8;stroke-dasharray:3,1;"/><g><path d="M329.071,131.364c-0.276,0 -0.5,-0.224 -0.5,-0.5l0,-0.001c0,-0.276 0.224,-0.5 0.5,-0.5c0.276,0 0.5,0.224 0.5,0.5l0,0.001c0,0.276 -0.224,0.5 -0.5,0.5Zm0,2.001c-0.276,0 -0.5,-0.224 -0.5,-0.5l0,-0.001c0,-0.276 0.224,-0.5 0.5,-0.5c0.276,0 0.5,0.224 0.5,0.5l0,0.001c0,0.276 -0.224,0.5 -0.5,0.5Zm0,2.001c-0.276,0 -0.5,-0.224 -0.5,-0.5l0,-0.001c0,-0.276 0.224,-0.5 0.5,-0.5c0.276,0 0.5,0.224 0.5,0.5l0,0.001c0,0.276 -0.224,0.5 -0.5,0.5Zm0,2.001c-0.276,0 -0.5,-0.224 -0.5,-0.5l0,-0.001c0,-0.276 0.224,-0.5 0.5,-0.5c0.276,0 0.5,0.224 0.5,0.5l0,0.001c0,0.276 -0.224,0.5 -0.5,0.5Zm0,2.001c-0.276,0 -0.5,-0.224 -0.5,-0.5l0,-0.001c0,-0.276 0.224,-0.5 0.5,-0.5c0.276,0 0.5,0.224 0.5,0.5l0,0.001c0,0.276 -0.224,0.5 -0.5,0.5Z" style="fill:#ef4a52;fill-rule:nonzero;"/><path d="M331.738,131.364c-0.276,0 -0.5,-0.224 -0.5,-0.5l0,-0.001c0,-0.276 0.224,-0.5 0.5,-0.5c0.276,0 0.5,0.224 0.5,0.5l0,0.001c0,0.276 -0.224,0.5 -0.5,0.5Zm0,2.001c-0.276,0 -0.5,-0.224 -0.5,-0.5l0,-0.001c0,-0.276 0.224,-0.5 0.5,-0.5c0.276,0 0.5,0.224 0.5,0.5l0,0.001c0,0.276 -0.224,0.5 -0.5,0.5Zm0,2.001c-0.276,0 -0.5,-0.224 -0.5,-0.5l0,-0.001c0,-0.276 0.224,-0.5 0.5,-0.5c0.276,0 0.5,0.224 0.5,0.5l0,0.001c0,0.276 -0.224,0.5 -0.5,0.5Zm0,2.001c-0.276,0 -0.5,-0.224 -0.5,-0.5l0,-0.001c0,-0.276 0.224,-0.5 0.5,-0.5c0.276,0 0.5,0.224 0.5,0.5l0,0.001c0,0.276 -0.224,0.5 -0.5,0.5Zm0,2.001c-0.276,0 -0.5,-0.224 -0.5,-0.5l0,-0.001c0,-0.276 0.224,-0.5 0.5,-0.5c0.276,0 0.5,0.224 0.5,0.5l0,0.001c0,0.276 -0.224,0.5 -0.5,0.5Z" style="fill:#ef4a52;fill-rule:nonzero;"/><path d="M334.405,131.364c-0.276,0 -0.5,-0.224 -0.5,-0.5l0,-0.001c0,-0.276 0.224,-0.5 0.5,-0.5c0.276,0 0.5,0.224 0.5,0.5l0,0.001c0,0.276 -0.224,0.5 -0.5,0.5Zm0,2.001c-0.276,0 -0.5,-0.224 -0.5,-0.5l0,-0.001c0,-0.276 0.224,-0.5 0.5,-0.5c0.276,0 0.5,0.224 0.5,0.5l0,0.001c0,0.276 -0.224,0.5 -0.5,0.5Zm0,2.001c-0.276,0 -0.5,-0.224 -0.5,-0.5l0,-0.001c0,-0.276 0.224,-0.5 0.5,-0.5c0.276,0 0.5,0.224 0.5,0.5l0,0.001c0,0.276 -0.224,0.5 -0.5,0.5Zm0,2.001c-0.276,0 -0.5,-0.224 -0.5,-0.5l0,-0.001c0,-0.276 0.224,-0.5 0.5,-0.5c0.276,0 0.5,0.224 0.5,0.5l0,0.001c0,0.276 -0.224,0.5 -0.5,0.5Zm0,2.001c-0.276,0 -0.5,-0.224 -0.5,-0.5l0,-0.001c0,-0.276 0.224,-0.5 0.5,-0.5c0.276,0 0.5,0.224 0.5,0.5l0,0.001c0,0.276 -0.224,0.5 -0.5,0.5Z" style="fill:#ef4a52;fill-rule:nonzero;"/><path d="M337.071,131.364c-0.276,0 -0.5,-0.224 -0.5,-0.5l0,-0.001c0,-0.276 0.224,-0.5 0.5,-0.5c0.276,0 0.5,0.224 0.5,0.5l0,0.001c0,0.276 -0.224,0.5 -0.5,0.5Zm0,2.001c-0.276,0 -0.5,-0.224 -0.5,-0.5l0,-0.001c0,-0.276 0.224,-0.5 0.5,-0.5c0.276,0 0.5,0.224 0.5,0.5l0,0.001c0,0.276 -0.224,0.5 -0.5,0.5Zm0,2.001c-0.276,0 -0.5,-0.224 -0.5,-0.5l0,-0.001c0,-0.276 0.224,-0.5 0.5,-0.5c0.276,0 0.5,0.224 0.5,0.5l0,0.001c0,0.276 -0.224,0.5 -0.5,0.5Zm0,2.001c-0.276,0 -0.5,-0.224 -0.5,-0.5l0,-0.001c0,-0.276 0.224,-0.5 0.5,-0.5c0.276,0 0.5,0.224 0.5,0.5l0,0.001c0,0.276 -0.224,0.5 -0.5,0.5Zm0,2.001c-0.276,0 -0.5,-0.224 -0.5,-0.5l0,-0.001c0,-0.276 0.224,-0.5 0.5,-0.5c0.276,0 0.5,0.224 0.5,0.5l0,0.001c0,0.276 -0.224,0.5 -0.5,0.5Z" style="fill:#ef4a52;fill-rule:nonzero;"/></g><g transform="matrix(1,0,0,1,-148.975,-91.6987)"><text x="453.411px" y="184.615px" style="font-family:'OpenSans-Bold', 'Open Sans', sans-serif;font-weight:700;font-size:10px;fill:#ef4a52;">h</text><text x="460.383px" y="184.615px" style="font-family:'OpenSans-Bold', 'Open Sans', sans-serif;font-weight:700;font-size:10px;fill:#ef4a52;">e</text><text x="466.391px" y="184.615px" style="font-family:'OpenSans-Bold', 'Open Sans', sans-serif;font-weight:700;font-size:10px;fill:#ef4a52;">l</text><text x="469.343px" y="184.615px" style="font-family:'OpenSans-Bold', 'Open Sans', sans-serif;font-weight:700;font-size:10px;fill:#ef4a52;">l</text><text x="472.395px" y="184.615px" style="font-family:'OpenSans-Bold', 'Open Sans', sans-serif;font-weight:700;font-size:10px;fill:#ef4a52;">o<tspan x="478.386px " y="184.615px ">-</tspan></text><text x="481.404px" y="184.615px" style="font-family:'OpenSans-Bold', 'Open Sans', sans-serif;font-weight:700;font-size:10px;fill:#ef4a52;">w</text><text x="490.364px" y="184.615px" style="font-family:'OpenSans-Bold', 'Open Sans', sans-serif;font-weight:700;font-size:10px;fill:#ef4a52;">o</text><text x="496.355px" y="184.615px" style="font-family:'OpenSans-Bold', 'Open Sans', sans-serif;font-weight:700;font-size:10px;fill:#ef4a52;">r</text><text x="501.396px" y="184.615px" style="font-family:'OpenSans-Bold', 'Open Sans', sans-serif;font-weight:700;font-size:10px;fill:#ef4a52;">l</text><text x="504.348px" y="184.615px" style="font-family:'OpenSans-Bold', 'Open Sans', sans-serif;font-weight:700;font-size:10px;fill:#ef4a52;">d</text></g><text x="318.206px" y="113.229px" style="font-family:'CourierNewPS-BoldMT', 'Courier New', monospace;font-weight:700;font-size:10px;fill:#fff;">hello</text><g transform="matrix(1,0,0,1,-147.109,-91.6987)"><text x="461.606px" y="166.368px" style="font-family:'CourierNewPS-BoldMT', 'Courier New', monospace;font-weight:700;font-size:6px;fill:#535353;">E<tspan x="465.606px 469.607px 473.608px 477.608px 481.609px " y="166.368px 166.368px 166.368px 166.368px 166.368px ">xited</tspan></text><text x="488.61px" y="166.368px" style="font-family:'CourierNewPS-BoldMT', 'Courier New', monospace;font-weight:700;font-size:6px;fill:#535353;">(<tspan x="492.61px 496.611px " y="166.368px 166.368px ">0)</tspan></text></g></g><g id="alpine-container-2" serif:id="alpine container 2"><path d="M168.667,67.084c0,-1.603 1.299,-2.902 2.902,-2.902l53.195,0c1.603,0 2.903,1.299 2.903,2.902l0,63.195c0,1.603 -1.3,2.903 -2.903,2.903l-53.195,0c-1.603,0 -2.902,-1.3 -2.902,-2.903l0,-63.195Z" style="fill:none;stroke:#00b050;stroke-width:1px;stroke-linejoin:round;"/><g><rect x="170.167" y="101.682" width="56" height="18" style="fill:#171717;"/><text x="173.831px" y="113.609px" style="font-family:'CourierNewPS-BoldMT', 'Courier New', monospace;font-weight:700;font-size:10px;fill:#fff;">/bin/ash</text></g><path d="M191.029,126.182l14.586,0c0.931,0 1.552,0.62 1.552,1.551l0,14.897c0,0.931 -0.621,1.552 -1.552,1.552l-14.586,0c-0.931,0 -1.862,-0.621 -1.862,-1.552l0,-14.897c0,-0.931 0.931,-1.551 1.862,-1.551Z" style="fill:#fff;stroke:#00b050;stroke-width:1px;stroke-linejoin:miter;stroke-miterlimit:8;"/><g><path d="M202.167,139.769l0,-8.978l0,8.978Z" style="fill:#0095e5;fill-opacity:0.196078;stroke:#00b050;stroke-width:1px;stroke-linejoin:round;stroke-miterlimit:1.5;"/><path d="M199.5,139.769l0,-8.978l0,8.978Z" style="fill:#0095e5;fill-opacity:0.196078;stroke:#00b050;stroke-width:1px;stroke-linejoin:round;stroke-miterlimit:1.5;"/><path d="M196.833,139.769l0,-8.978l0,8.978Z" style="fill:#0095e5;fill-opacity:0.196078;stroke:#00b050;stroke-width:1px;stroke-linejoin:round;stroke-miterlimit:1.5;"/><path d="M194.167,139.721l0,-8.978l0,8.978Z" style="fill:#0095e5;fill-opacity:0.196078;stroke:#00b050;stroke-width:1px;stroke-linejoin:round;stroke-miterlimit:1.5;"/></g><path d="M214.667,100.182l0.6,-2.4l2.4,-0.6l-3,3l-36,0l0,-18l39,0l0,15" style="fill:#0095e5;fill-opacity:0.196078;fill-rule:nonzero;stroke:#0095e5;stroke-width:1px;"/><g transform="matrix(1,0,0,1,-149.827,-91.3184)"><text x="332.548px" y="167.257px" style="font-family:'OpenSans-Bold', 'Open Sans', sans-serif;font-weight:700;font-size:10px;fill:#00b050;">al</text><text x="341.64px" y="167.257px" style="font-family:'OpenSans-Bold', 'Open Sans', sans-serif;font-weight:700;font-size:10px;fill:#00b050;">p</text><text x="347.568px" y="167.257px" style="font-family:'OpenSans-Bold', 'Open Sans', sans-serif;font-weight:700;font-size:10px;fill:#00b050;">i</text><text x="350.619px" y="167.257px" style="font-family:'OpenSans-Bold', 'Open Sans', sans-serif;font-weight:700;font-size:10px;fill:#00b050;">n</text><text x="357.542px" y="167.257px" style="font-family:'OpenSans-Bold', 'Open Sans', sans-serif;font-weight:700;font-size:10px;fill:#00b050;">e</text></g><g transform="matrix(1,0,0,1,-151.974,-90.4423)"><text x="332.857px" y="182.448px" style="font-family:'CourierNewPSMT', 'Courier New', monospace;font-size:8px;fill:#535353;">h<tspan x="336.857px 340.858px 344.859px 348.86px 352.86px " y="182.448px 182.448px 182.448px 182.448px 182.448px ">ello.</tspan></text><text x="356.861px" y="182.448px" style="font-family:'CourierNewPSMT', 'Courier New', monospace;font-size:8px;fill:#535353;">t<tspan x="359.862px " y="182.448px ">x</tspan></text><text x="362.863px" y="182.448px" style="font-family:'CourierNewPSMT', 'Courier New', monospace;font-size:8px;fill:#535353;">t</text></g></g><text x="172.614px" y="58.645px" style="font-family:'CourierNewPS-BoldMT', 'Courier New', monospace;font-weight:700;font-size:6px;fill:#535353;">U<tspan x="176.615px 180.615px 184.616px 188.617px 192.617px 196.618px 200.618px 204.619px 208.619px 212.62px 216.621px 220.621px " y="58.645px 58.645px 58.645px 58.645px 58.645px 58.645px 58.645px 58.645px 58.645px 58.645px 58.645px 58.645px ">p 14 seconds</tspan></text><g transform="matrix(1,0,0,1,-145.346,-91.6987)"><text x="151.48px" y="195.757px" style="font-family:'OpenSans-BoldItalic', 'Open Sans', sans-serif;font-weight:700;font-style:italic;font-size:16px;fill:#08d7be;">C</text><text x="161.469px" y="195.757px" style="font-family:'OpenSans-BoldItalic', 'Open Sans', sans-serif;font-weight:700;font-style:italic;font-size:16px;fill:#08d7be;">o</text><text x="170.478px" y="195.757px" style="font-family:'OpenSans-BoldItalic', 'Open Sans', sans-serif;font-weight:700;font-style:italic;font-size:16px;fill:#08d7be;">n</text><text x="180.442px" y="195.757px" style="font-family:'OpenSans-BoldItalic', 'Open Sans', sans-serif;font-weight:700;font-style:italic;font-size:16px;fill:#08d7be;">t</text><text x="187.455px" y="195.757px" style="font-family:'OpenSans-BoldItalic', 'Open Sans', sans-serif;font-weight:700;font-style:italic;font-size:16px;fill:#08d7be;">a</text><text x="197.463px" y="195.757px" style="font-family:'OpenSans-BoldItalic', 'Open Sans', sans-serif;font-weight:700;font-style:italic;font-size:16px;fill:#08d7be;">i<tspan x="202.513px " y="195.757px ">n</tspan></text><text x="212.477px" y="195.757px" style="font-family:'OpenSans-BoldItalic', 'Open Sans', sans-serif;font-weight:700;font-style:italic;font-size:16px;fill:#08d7be;">e</text><text x="221.391px" y="195.757px" style="font-family:'OpenSans-BoldItalic', 'Open Sans', sans-serif;font-weight:700;font-style:italic;font-size:16px;fill:#08d7be;">r</text><text x="153.397px" y="211.757px" style="font-family:'OpenSans-BoldItalic', 'Open Sans', sans-serif;font-weight:700;font-style:italic;font-size:16px;fill:#08d7be;">I<tspan x="158.845px 168.809px 176.68px 183.542px 193.35px 203.314px 211.341px 220.555px " y="211.757px 211.757px 211.757px 211.757px 211.757px 211.757px 211.757px 211.757px ">nstances</tspan></text></g><text x="164.654px" y="161.998px" style="font-family:'Hack-Regular', 'Hack', monospace;font-size:7px;fill:#535353;">ID: 3030c9c91e12</text><g><rect x="63.529" y="177.554" width="242.607" height="88.068" style="fill:#171717;"/><text x="74.048px" y="189.802px" style="font-family:'CourierNewPS-BoldMT', 'Courier New', monospace;font-weight:700;font-size:11.005px;fill:#fff;">$ docker container exec 3030 ls</text><g><g transform="matrix(1,0,0,1,-418.934,-4.03162)"><text x="505.607px" y="202.98px" style="font-family:'CourierNewPSMT', 'Courier New', monospace;font-size:8px;fill:#fff;">t<tspan x="510.608px 515.609px 520.61px 525.61px " y="202.98px 202.98px 202.98px 202.98px ">otal</tspan></text><text x="534.612px" y="202.98px" style="font-family:'CourierNewPSMT', 'Courier New', monospace;font-size:8px;fill:#fff;">8</text></g><g transform="matrix(1,0,0,1,-418.934,-4.03162)"><text x="505.607px" y="212.98px" style="font-family:'CourierNewPSMT', 'Courier New', monospace;font-size:8px;fill:#fff;">d<tspan x="510.608px 515.609px 520.61px 525.61px 530.611px 535.612px 540.613px 545.613px " y="212.98px 212.98px 212.98px 212.98px 212.98px 212.98px 212.98px 212.98px ">rwxr-xr-</tspan></text><text x="550.614px" y="212.98px" style="font-family:'CourierNewPSMT', 'Courier New', monospace;font-size:8px;fill:#fff;">x</text></g><g transform="matrix(1,0,0,1,-418.934,-4.03162)"><text x="563.607px" y="212.98px" style="font-family:'CourierNewPSMT', 'Courier New', monospace;font-size:8px;fill:#fff;">.<tspan x="568.608px 573.609px " y="212.98px 212.98px ">..</tspan></text><text x="586.61px" y="212.98px" style="font-family:'CourierNewPSMT', 'Courier New', monospace;font-size:8px;fill:#fff;">b<tspan x="591.611px 596.612px " y="212.98px 212.98px ">in</tspan></text></g><g transform="matrix(1,0,0,1,-418.934,-4.03162)"><text x="505.607px" y="221.98px" style="font-family:'CourierNewPSMT', 'Courier New', monospace;font-size:8px;fill:#fff;">d<tspan x="510.608px 515.609px 520.61px 525.61px 530.611px 535.612px 540.613px 545.613px " y="221.98px 221.98px 221.98px 221.98px 221.98px 221.98px 221.98px 221.98px ">rwxr-xr-</tspan></text><text x="550.614px" y="221.98px" style="font-family:'CourierNewPSMT', 'Courier New', monospace;font-size:8px;fill:#fff;">x</text></g><g transform="matrix(1,0,0,1,-418.934,-4.03162)"><text x="563.607px" y="221.98px" style="font-family:'CourierNewPSMT', 'Courier New', monospace;font-size:8px;fill:#fff;">.<tspan x="568.608px 573.609px " y="221.98px 221.98px ">..</tspan></text><text x="586.61px" y="221.98px" style="font-family:'CourierNewPSMT', 'Courier New', monospace;font-size:8px;fill:#fff;">d<tspan x="591.611px 596.612px " y="221.98px 221.98px ">ev</tspan></text></g><g transform="matrix(1,0,0,1,-418.934,-4.03162)"><text x="505.607px" y="231.98px" style="font-family:'CourierNewPSMT', 'Courier New', monospace;font-size:8px;fill:#fff;">d<tspan x="510.608px 515.609px 520.61px 525.61px 530.611px 535.612px 540.613px 545.613px " y="231.98px 231.98px 231.98px 231.98px 231.98px 231.98px 231.98px 231.98px ">rwxr-xr-</tspan></text><text x="550.614px" y="231.98px" style="font-family:'CourierNewPSMT', 'Courier New', monospace;font-size:8px;fill:#fff;">x</text></g><g transform="matrix(1,0,0,1,-418.934,-4.03162)"><text x="563.607px" y="231.98px" style="font-family:'CourierNewPSMT', 'Courier New', monospace;font-size:8px;fill:#fff;">.<tspan x="568.608px 573.609px " y="231.98px 231.98px ">..</tspan></text><text x="586.61px" y="231.98px" style="font-family:'CourierNewPSMT', 'Courier New', monospace;font-size:8px;fill:#fff;">e<tspan x="591.611px 596.612px " y="231.98px 231.98px ">tc</tspan></text></g><g transform="matrix(1,0,0,1,-418.934,-4.03162)"><text x="505.607px" y="240.98px" style="font-family:'CourierNewPSMT', 'Courier New', monospace;font-size:8px;fill:#fff;">d<tspan x="510.608px 515.609px 520.61px 525.61px 530.611px 535.612px 540.613px 545.613px " y="240.98px 240.98px 240.98px 240.98px 240.98px 240.98px 240.98px 240.98px ">rwxr-xr-</tspan></text><text x="550.614px" y="240.98px" style="font-family:'CourierNewPSMT', 'Courier New', monospace;font-size:8px;fill:#fff;">x</text></g><g transform="matrix(1,0,0,1,-418.934,-4.03162)"><text x="563.607px" y="240.98px" style="font-family:'CourierNewPSMT', 'Courier New', monospace;font-size:8px;fill:#fff;">.<tspan x="568.608px 573.609px " y="240.98px 240.98px ">..</tspan></text><text x="586.61px" y="240.98px" style="font-family:'CourierNewPSMT', 'Courier New', monospace;font-size:8px;fill:#fff;">h<tspan x="591.611px 596.612px 601.613px 606.613px 611.614px 616.615px 621.616px 626.617px " y="240.98px 240.98px 240.98px 240.98px 240.98px 240.98px 240.98px 240.98px ">ello.txt</tspan></text></g><text x="86.674px" y="246.948px" style="font-family:'CourierNewPS-BoldMT', 'Courier New', monospace;font-weight:700;font-size:8px;fill:#fff;">.</text><text x="86.674px" y="256.948px" style="font-family:'CourierNewPS-BoldMT', 'Courier New', monospace;font-weight:700;font-size:8px;fill:#fff;">.</text></g></g><ellipse cx="245.103" cy="186.666" rx="16.663" ry="6.584" style="fill:none;stroke:#30b5e5;stroke-width:1px;stroke-linejoin:round;stroke-miterlimit:1.5;"/><ellipse cx="206.522" cy="159.476" rx="28.223" ry="7.12" style="fill:none;stroke:#30b5e5;stroke-width:1px;stroke-linejoin:round;stroke-miterlimit:1.5;"/><g><path d="M245.89,178.663c-0.188,-9.054 -2.119,-16.544 -9.504,-19.141" style="fill:none;stroke:#30b5e5;stroke-width:1px;stroke-linejoin:round;stroke-miterlimit:1.5;"/><path d="M245.871,180.064l-1.317,-1.801l2.671,0.036l-1.354,1.765Z" style="fill:#30b5e5;"/><path d="M235.256,159.522l1.544,-1.542l0,3.084l-1.544,-1.542Z" style="fill:#30b5e5;"/></g></svg>