<?xml version="1.0" encoding="UTF-8" standalone="no"?><!DOCTYPE svg PUBLIC "-//W3C//DTD SVG 1.1//EN" "http://www.w3.org/Graphics/SVG/1.1/DTD/svg11.dtd"><svg width="100%" height="100%" viewBox="0 0 382 329" version="1.1" xmlns="http://www.w3.org/2000/svg" xmlns:xlink="http://www.w3.org/1999/xlink" xml:space="preserve" xmlns:serif="http://www.serif.com/" style="fill-rule:evenodd;clip-rule:evenodd;stroke-linejoin:bevel;stroke-miterlimit:10;"><rect id="images---layers" serif:id="images - layers" x="-24.055" y="-12.254" width="429.638" height="343.719" style="fill:none;"/><g id="title-and-bounding-lines" serif:id="title and bounding lines"><text x="126.945px" y="35.576px" style="font-family:'OpenSans-Regular', 'Open Sans', sans-serif;font-size:24px;fill:#008ec0;">D<tspan x="144.741px 159.537px 171.263px 183.68px 197.445px 207.541px 222.045px 228.415px 242.18px " y="35.576px 35.576px 35.576px 35.576px 35.576px 35.576px 35.576px 35.576px 35.576px ">ockerﬁles</tspan></text><path d="M12.343,7.249l351.458,0" style="fill:none;stroke:#a7a7a7;stroke-width:1px;"/><path d="M11.343,322.249l351.458,0" style="fill:none;stroke:#a7a7a7;stroke-width:1px;"/></g><g id="alpine-container-2" serif:id="alpine container 2"><g><path d="M16.732,166.068l36.914,0c2.356,0 3.927,1.592 3.927,3.981l0,38.217c0,2.389 -1.571,3.981 -3.927,3.981l-36.914,0c-2.357,0 -4.712,-1.592 -4.712,-3.981l0,-38.217c0,-2.389 2.355,-3.981 4.712,-3.981Z" style="fill:#fff;stroke:#535353;stroke-width:1px;stroke-linejoin:miter;stroke-miterlimit:8;"/><g><path d="M44.919,200.927l0,-23.033l0,23.033Z" style="fill:#0095e5;fill-opacity:0.196078;stroke:#535353;stroke-width:1px;stroke-linejoin:round;stroke-miterlimit:1.5;"/><path d="M38.171,200.927l0,-23.033l0,23.033Z" style="fill:#0095e5;fill-opacity:0.196078;stroke:#535353;stroke-width:1px;stroke-linejoin:round;stroke-miterlimit:1.5;"/><path d="M31.422,200.927l0,-23.033l0,23.033Z" style="fill:#0095e5;fill-opacity:0.196078;stroke:#535353;stroke-width:1px;stroke-linejoin:round;stroke-miterlimit:1.5;"/><path d="M24.673,200.803l0,-23.033l0,23.033Z" style="fill:#0095e5;fill-opacity:0.196078;stroke:#535353;stroke-width:1px;stroke-linejoin:round;stroke-miterlimit:1.5;"/></g></g><g transform="matrix(1,0,0,1.01374,-313.198,53.9154)"><text x="332.548px" y="167.257px" style="font-family:'OpenSans-Bold', 'Open Sans', sans-serif;font-weight:700;font-size:10px;fill:#535353;">al</text><text x="341.64px" y="167.257px" style="font-family:'OpenSans-Bold', 'Open Sans', sans-serif;font-weight:700;font-size:10px;fill:#535353;">p</text><text x="347.568px" y="167.257px" style="font-family:'OpenSans-Bold', 'Open Sans', sans-serif;font-weight:700;font-size:10px;fill:#535353;">i</text><text x="350.619px" y="167.257px" style="font-family:'OpenSans-Bold', 'Open Sans', sans-serif;font-weight:700;font-size:10px;fill:#535353;">n</text><text x="357.542px" y="167.257px" style="font-family:'OpenSans-Bold', 'Open Sans', sans-serif;font-weight:700;font-size:10px;fill:#535353;">e</text></g></g><g id="apk-commands" serif:id="apk commands"><rect x="77.258" y="166.068" width="84.832" height="49.826"/><g transform="matrix(1,0,0,1,-1144.86,-1351.5)"><text x="1230.61px" y="1539.14px" style="font-family:'Hack-Regular', 'Hack', monospace;font-size:7px;fill:#fff;">apk update</text><text x="1230.61px" y="1551.14px" style="font-family:'Hack-Regular', 'Hack', monospace;font-size:7px;fill:#fff;">apk add nodejs</text></g></g><g id="index.js-command" serif:id="index.js command"><rect x="181.775" y="166.068" width="84.832" height="49.826"/><g transform="matrix(1,0,0,1,-1044.7,-1351.5)"><text x="1230.61px" y="1539.14px" style="font-family:'Hack-Regular', 'Hack', monospace;font-size:7px;fill:#fff;">host/index.js --&gt;</text><text x="1243.26px" y="1551.14px" style="font-family:'Hack-Regular', 'Hack', monospace;font-size:7px;fill:#fff;">container/app</text></g></g><g id="node-command" serif:id="node command"><rect x="286.292" y="166.068" width="84.832" height="49.826"/><g transform="matrix(1,0,0,1,-940.186,-1351.5)"><text x="1230.61px" y="1539.14px" style="font-family:'Hack-Regular', 'Hack', monospace;font-size:7px;fill:#fff;">$ cd /app</text><text x="1230.61px" y="1551.14px" style="font-family:'Hack-Regular', 'Hack', monospace;font-size:7px;fill:#fff;">$ node index.js</text></g></g><g id="dockerfile"><g id="paper"><path d="M111.984,54.811l146.719,0l0,61.475l-24.453,11.24l-122.266,0l0,-72.715Z" style="fill:#e5e5e5;fill-rule:nonzero;"/><path d="M234.25,127.526l4.89,-8.992l19.563,-2.248l-24.453,11.24Z" style="fill:#a7a7a7;fill-rule:nonzero;"/><g transform="matrix(1,0,0,1,-1112.24,-1470.62)"><text x="1230.61px" y="1538.83px" style="font-family:'Hack-Regular', 'Hack', monospace;font-size:7px;">FROM alpine</text><text x="1230.61px" y="1548.83px" style="font-family:'Hack-Regular', 'Hack', monospace;font-size:7px;">RUN apk update &amp;&amp; apk add nodejs</text><text x="1230.61px" y="1558.83px" style="font-family:'Hack-Regular', 'Hack', monospace;font-size:7px;">COPY . /app</text><text x="1230.61px" y="1568.83px" style="font-family:'Hack-Regular', 'Hack', monospace;font-size:7px;">WORKDIR /app</text><text x="1230.61px" y="1578.83px" style="font-family:'Hack-Regular', 'Hack', monospace;font-size:7px;">CMD [&quot;node&quot;,&quot;index.js&quot;]</text></g></g><text x="52.042px" y="66.64px" style="font-family:'OpenSans-Bold', 'Open Sans', sans-serif;font-weight:700;font-size:10px;fill:#0095e5;">Dock<tspan x="76.778px 82.687px " y="66.64px 66.64px ">er</tspan>ﬁle:</text></g><g transform="matrix(1,0,0,1,-1068.55,-1786.34)"><text x="1076.09px" y="1943.17px" style="font-family:'OpenSans-Bold', 'Open Sans', sans-serif;font-weight:700;font-size:9px;fill:#0095e5;">FROM</text><text x="1104.96px" y="1943.17px" style="font-family:'OpenSans-Regular', 'Open Sans', sans-serif;font-size:9px;fill:#535353;">alpine</text></g><g transform="matrix(1,0,0,1,-983.675,-1786.34)"><text x="1084.53px" y="1943.17px" style="font-family:'OpenSans-Bold', 'Open Sans', sans-serif;font-weight:700;font-size:9px;fill:#0095e5;">RUN</text><text x="1106.93px" y="1943.17px" style="font-family:'OpenSans-Regular', 'Open Sans', sans-serif;font-size:9px;fill:#535353;">apk</text></g><g transform="matrix(1,0,0,1,-879.158,-1786.34)"><text x="1078.15px" y="1943.17px" style="font-family:'OpenSans-Bold', 'Open Sans', sans-serif;font-weight:700;font-size:9px;fill:#0095e5;">C<tspan x="1083.7px 1090.87px " y="1943.17px 1943.17px ">OP</tspan>Y</text><text x="1104.47px" y="1943.17px" style="font-family:'OpenSans-Regular', 'Open Sans', sans-serif;font-size:9px;fill:#535353;">. /app</text></g><g transform="matrix(1,0,0,1,-792.663,-1791.84)"><text x="1088.89px" y="1937.67px" style="font-family:'OpenSans-Bold', 'Open Sans', sans-serif;font-weight:700;font-size:9px;fill:#0095e5;">WORKDIR</text><text x="1134.51px" y="1937.67px" style="font-family:'OpenSans-Regular', 'Open Sans', sans-serif;font-size:9px;fill:#535353;">/app</text><text x="1074.86px" y="1948.67px" style="font-family:'OpenSans-Bold', 'Open Sans', sans-serif;font-weight:700;font-size:9px;fill:#0095e5;">CMD</text><text x="1098.08px" y="1948.67px" style="font-family:'OpenSans-Regular', 'Open Sans', sans-serif;font-size:9px;fill:#535353;">&quot;<tspan x="1101.42px 1106.94px " y="1948.67px 1948.67px ">no</tspan>de&quot; &quot;inde<tspan x="1150.6px 1155.31px " y="1948.67px 1948.67px ">x.</tspan>js&quot;</text></g><g id="math-symbols" serif:id="math symbols"><text x="60.935px" y="198.578px" style="font-family:'OpenSans-Bold', 'Open Sans', sans-serif;font-weight:700;font-size:20px;fill:#0095e5;">+</text><text x="166.225px" y="198.578px" style="font-family:'OpenSans-Bold', 'Open Sans', sans-serif;font-weight:700;font-size:20px;fill:#0095e5;">+</text><text x="270.742px" y="198.578px" style="font-family:'OpenSans-Bold', 'Open Sans', sans-serif;font-weight:700;font-size:20px;fill:#0095e5;">+</text><text x="142.246px" y="290.997px" style="font-family:'OpenSans-Bold', 'Open Sans', sans-serif;font-weight:700;font-size:20px;fill:#0095e5;">=</text></g><g id="ourfiglet-container" serif:id="ourfiglet container"><g><path d="M172.919,262.846l36.465,0c2.328,0 3.88,1.586 3.88,3.965l0,38.069c0,2.38 -1.552,3.966 -3.88,3.966l-36.465,0c-2.328,0 -4.655,-1.586 -4.655,-3.966l0,-38.069c0,-2.379 2.327,-3.965 4.655,-3.965Z" style="fill:none;stroke:#0095e5;stroke-width:1px;stroke-linejoin:miter;stroke-miterlimit:8;"/><g><path d="M180.379,296.679l0,-23.218" style="fill:none;stroke:#0095e5;stroke-width:1px;stroke-linecap:round;stroke-linejoin:round;"/><path d="M187.302,296.679l0,-23.218" style="fill:none;stroke:#0095e5;stroke-width:1px;stroke-linecap:round;stroke-linejoin:round;"/><path d="M194.225,296.679l0,-23.218" style="fill:none;stroke:#0095e5;stroke-width:1px;stroke-linecap:round;stroke-linejoin:round;"/><path d="M201.148,296.679l0,-23.218" style="fill:none;stroke:#0095e5;stroke-width:1px;stroke-linecap:round;stroke-linejoin:round;"/></g></g><text x="171.303px" y="255.798px" style="font-family:'OpenSans-Regular', 'Open Sans', sans-serif;font-size:9px;fill:#0095e5;">hello:v0.1</text></g></svg>