<?xml version="1.0" encoding="UTF-8" standalone="no"?><!DOCTYPE svg PUBLIC "-//W3C//DTD SVG 1.1//EN" "http://www.w3.org/Graphics/SVG/1.1/DTD/svg11.dtd"><svg width="100%" height="100%" viewBox="0 0 687 368" version="1.1" xmlns="http://www.w3.org/2000/svg" xmlns:xlink="http://www.w3.org/1999/xlink" xml:space="preserve" xmlns:serif="http://www.serif.com/" style="fill-rule:evenodd;clip-rule:evenodd;stroke-linejoin:bevel;stroke-miterlimit:10;"><rect id="Basics---Images" serif:id="Basics - Images" x="-68" y="-126" width="800.007" height="587.952" style="fill:none;"/><g id="Run-panel" serif:id="Run panel"><rect x="12.047" y="87.604" width="192" height="236" style="fill:none;stroke:#535353;stroke-width:1px;"/><g><path d="M98.864,286.38c-0.762,0 -1.355,0.581 -1.355,1.327c0,0.747 0.593,1.327 1.355,1.327c0.763,0 1.355,-0.58 1.355,-1.327c0,-0.746 -0.592,-1.327 -1.355,-1.327Zm-0.169,1.327c0,-0.083 0.084,-0.166 0.169,-0.166c0.085,0 0.17,0.083 0.17,0.166c0,0.249 -0.339,0.249 -0.339,0Zm26.092,-0.746l-10.335,0c-0.424,0 -0.763,0.331 -0.763,0.746c0,0.415 0.339,0.747 0.763,0.747l10.335,0c0.423,0 0.762,-0.332 0.762,-0.747c0,-0.415 -0.339,-0.746 -0.762,-0.746Zm-20.247,11.778c-0.763,0 -1.356,0.581 -1.356,1.327c0,0.747 0.593,1.328 1.356,1.328c0.762,0 1.355,-0.581 1.355,-1.328c0,-0.746 -0.593,-1.327 -1.355,-1.327Zm-0.17,1.327c0,-0.165 0.085,-0.248 0.17,-0.248c0.169,0 0.254,0.083 0.254,0.248c0,0.167 -0.424,0.167 -0.424,0Zm20.417,-0.829l-10.335,0c-0.424,0 -0.763,0.415 -0.763,0.829c0,0.415 0.339,0.747 0.763,0.747l10.335,0c0.423,0 0.762,-0.332 0.762,-0.747c0,-0.414 -0.339,-0.829 -0.762,-0.829Zm-20.247,-12.857c-0.763,0 -1.356,0.581 -1.356,1.327c0,0.747 0.593,1.327 1.356,1.327c0.762,0 1.355,-0.58 1.355,-1.327c0,-0.746 -0.593,-1.327 -1.355,-1.327Zm-0.17,1.327c0,-0.083 0.085,-0.166 0.17,-0.166c0.169,0 0.254,0.083 0.254,0.166c0,0.249 -0.424,0.249 -0.424,0Zm-11.182,-1.327c-0.762,0 -1.355,0.581 -1.355,1.327c0,0.747 0.593,1.327 1.355,1.327c0.763,0 1.356,-0.58 1.356,-1.327c0,-0.746 -0.593,-1.327 -1.356,-1.327Zm-0.169,1.327c0,-0.083 0.084,-0.166 0.169,-0.166c0.085,0 0.17,0.083 0.17,0.166c0,0.249 -0.339,0.249 -0.339,0Zm5.845,11.032c-0.762,0 -1.355,0.581 -1.355,1.327c0,0.747 0.593,1.328 1.355,1.328c0.763,0 1.355,-0.581 1.355,-1.328c0,-0.746 -0.592,-1.327 -1.355,-1.327Zm-0.169,1.327c0,-0.165 0.084,-0.248 0.169,-0.248c0.085,0 0.17,0.083 0.17,0.248c0,0.167 -0.339,0.167 -0.339,0Zm-5.507,-1.327c-0.762,0 -1.355,0.581 -1.355,1.327c0,0.747 0.593,1.328 1.355,1.328c0.763,0 1.356,-0.581 1.356,-1.328c0,-0.746 -0.593,-1.327 -1.356,-1.327Zm-0.169,1.327c0,-0.165 0.084,-0.248 0.169,-0.248c0.085,0 0.17,0.083 0.17,0.248c0,0.167 -0.339,0.167 -0.339,0Zm11.521,-38.322c-0.763,0 -1.356,0.581 -1.356,1.327c0,0.747 0.593,1.328 1.356,1.328c0.762,0 1.355,-0.581 1.355,-1.328c0,-0.746 -0.593,-1.327 -1.355,-1.327Zm-0.17,1.327c0,-0.083 0.085,-0.166 0.17,-0.166c0.169,0 0.254,0.083 0.254,0.166c0,0.249 -0.424,0.249 -0.424,0Zm-5.506,-1.327c-0.762,0 -1.355,0.581 -1.355,1.327c0,0.747 0.593,1.328 1.355,1.328c0.763,0 1.355,-0.581 1.355,-1.328c0,-0.746 -0.592,-1.327 -1.355,-1.327Zm-0.169,1.327c0,-0.083 0.084,-0.166 0.169,-0.166c0.085,0 0.17,0.083 0.17,0.166c0,0.249 -0.339,0.249 -0.339,0Zm26.092,-0.746l-10.335,0c-0.424,0 -0.763,0.332 -0.763,0.746c0,0.415 0.339,0.747 0.763,0.747l10.335,0c0.423,0 0.762,-0.332 0.762,-0.747c0,-0.414 -0.339,-0.746 -0.762,-0.746Zm5.76,-3.65c0,-1.41 -1.186,-2.571 -2.626,-2.571l-40.748,0c-1.44,0 -2.626,1.161 -2.626,2.571l0,8.793c0,0.663 0.254,1.327 0.762,1.742c-0.508,0.497 -0.762,1.078 -0.762,1.824l0,8.71c0,0.747 0.254,1.327 0.762,1.825c-0.508,0.415 -0.762,1.078 -0.762,1.742l0,8.793c0,0.663 0.254,1.327 0.762,1.741c-0.508,0.498 -0.762,1.162 -0.762,1.825l0,8.71c0,1.41 1.186,2.571 2.626,2.571l3.135,0l0,1.66c0,0.829 0.677,1.493 1.525,1.493l6.269,0c0.932,0 1.609,-0.664 1.609,-1.493l0,-1.66l14.656,0l0,1.66c0,0.829 0.678,1.493 1.609,1.493l6.269,0c0.847,0 1.525,-0.664 1.525,-1.493l0,-1.66l4.151,0c1.44,0 2.626,-1.161 2.626,-2.571l0,-8.71c0,-0.663 -0.339,-1.327 -0.762,-1.825c0.423,-0.414 0.762,-1.078 0.762,-1.741l0,-8.793c0,-0.664 -0.339,-1.327 -0.762,-1.742c0.423,-0.498 0.762,-1.078 0.762,-1.825l0,-8.71c0,-0.746 -0.339,-1.327 -0.762,-1.824c0.423,-0.415 0.762,-1.079 0.762,-1.742l0,-8.793Zm-32.445,49.936l-6.269,0l0,-1.66l6.269,0l0,1.66Zm24.143,0l-6.269,0l0,-1.66l6.269,0l0,1.66Zm6.693,-4.231c0,0.581 -0.424,1.078 -1.017,1.078l-40.748,0c-0.593,0 -1.101,-0.497 -1.101,-1.078l0,-8.71c0,-0.581 0.508,-0.995 1.101,-0.995l40.748,0c0.593,0 1.017,0.414 1.017,0.995l0,8.71Zm0,-12.276c0,0.58 -0.424,0.995 -1.017,0.995l-40.748,0c-0.593,0 -1.101,-0.415 -1.101,-0.995l0,-8.793c0,-0.498 0.508,-0.996 1.101,-0.996l40.748,0c0.593,0 1.017,0.498 1.017,0.996l0,8.793Zm0,-12.36c0,0.581 -0.424,1.078 -1.017,1.078l-40.748,0c-0.593,0 -1.101,-0.497 -1.101,-1.078l0,-8.71c0,-0.58 0.508,-1.078 1.101,-1.078l40.748,0c0.593,0 1.017,0.498 1.017,1.078l0,8.71Zm0,-12.276c0,0.497 -0.424,0.995 -1.017,0.995l-40.748,0c-0.593,0 -1.101,-0.498 -1.101,-0.995l0,-8.793c0,-0.581 0.508,-0.995 1.101,-0.995l40.748,0c0.593,0 1.017,0.414 1.017,0.995l0,8.793Zm-30.074,6.552c-0.762,0 -1.355,0.664 -1.355,1.328c0,0.746 0.593,1.41 1.355,1.41c0.763,0 1.355,-0.664 1.355,-1.41c0,-0.664 -0.592,-1.328 -1.355,-1.328Zm-0.169,1.328c0,-0.083 0.084,-0.166 0.169,-0.166c0.085,0 0.17,0.083 0.17,0.166c0,0.248 -0.339,0.248 -0.339,0Zm-5.507,-1.328c-0.762,0 -1.355,0.664 -1.355,1.328c0,0.746 0.593,1.41 1.355,1.41c0.763,0 1.356,-0.664 1.356,-1.41c0,-0.664 -0.593,-1.328 -1.356,-1.328Zm-0.169,1.328c0,-0.083 0.084,-0.166 0.169,-0.166c0.085,0 0.17,0.083 0.17,0.166c0,0.248 -0.339,0.248 -0.339,0Zm11.521,-1.328c-0.763,0 -1.356,0.664 -1.356,1.328c0,0.746 0.593,1.41 1.356,1.41c0.762,0 1.355,-0.664 1.355,-1.41c0,-0.664 -0.593,-1.328 -1.355,-1.328Zm-0.17,1.328c0,-0.083 0.085,-0.166 0.17,-0.166c0.169,0 0.254,0.083 0.254,0.166c0,0.248 -0.424,0.248 -0.424,0Zm20.417,-0.747l-10.335,0c-0.424,0 -0.763,0.332 -0.763,0.747c0,0.497 0.339,0.829 0.763,0.829l10.335,0c0.423,0 0.762,-0.332 0.762,-0.829c0,-0.415 -0.339,-0.747 -0.762,-0.747Zm-31.599,-12.857c-0.762,0 -1.355,0.581 -1.355,1.327c0,0.747 0.593,1.328 1.355,1.328c0.763,0 1.356,-0.581 1.356,-1.328c0,-0.746 -0.593,-1.327 -1.356,-1.327Zm-0.169,1.327c0,-0.083 0.084,-0.166 0.169,-0.166c0.085,0 0.17,0.083 0.17,0.166c0,0.249 -0.339,0.249 -0.339,0Z" style="fill:#394e55;"/><rect x="90.547" y="271.104" width="35" height="11" style="fill:#fff;"/><rect x="89.547" y="275.104" width="39" height="15" style="fill:#fff;"/><path d="M110.54,280.195l3.147,0l0,-2.627l-3.147,0l0,2.627Zm-3.566,0l3.147,0l0,-2.627l-3.147,0l0,2.627Zm-3.567,0l2.937,0l0,-2.627l-2.937,0l0,2.627Zm-3.776,0l3.147,0l0,-2.627l-3.147,0l0,2.627Zm-3.566,0l3.147,0l0,-2.627l-3.147,0l0,2.627Zm3.566,-3.233l3.147,0l0,-2.626l-3.147,0l0,2.626Zm3.776,0l2.937,0l0,-2.626l-2.937,0l0,2.626Zm3.567,0l3.147,0l0,-2.626l-3.147,0l0,2.626Zm0,-3.232l3.147,0l0,-2.626l-3.147,0l0,2.626Zm15.944,5.05c-0.629,-0.606 -2.098,-0.606 -3.357,-0.404c-0.21,-1.212 -0.839,-2.02 -1.888,-2.828l-0.629,-0.606l-0.42,0.808c-0.629,0.808 -0.839,1.818 -0.839,2.828c0,0.404 0.21,1.213 0.629,1.819c-0.419,0.202 -1.258,0.404 -2.307,0.404l-20.14,0l-0.21,0.202c-0.21,1.01 -0.21,4.444 2.098,7.07c1.888,2.021 4.406,3.031 7.762,3.031c7.343,0 12.797,-3.233 15.315,-9.293c1.049,0 3.147,0 4.196,-2.02c0,0 0.209,-0.202 0.419,-0.405l0,-0.202l-0.629,-0.404Z" style="fill:#1aaaf8;"/></g><path id="engine" d="M67.547,215.29c0,-0.655 0.532,-1.186 1.187,-1.186l78.627,0c0.655,0 1.186,0.531 1.186,1.186l0,16.627c0,0.656 -0.531,1.187 -1.186,1.187l-78.627,0c-0.655,0 -1.187,-0.531 -1.187,-1.187l0,-16.627Z" style="fill:#0095e5;fill-rule:nonzero;"/><clipPath id="_clip1"><path d="M67.547,215.29c0,-0.655 0.532,-1.186 1.187,-1.186l78.627,0c0.655,0 1.186,0.531 1.186,1.186l0,16.627c0,0.656 -0.531,1.187 -1.186,1.187l-78.627,0c-0.655,0 -1.187,-0.531 -1.187,-1.187l0,-16.627Z" clip-rule="nonzero"/></clipPath><g clip-path="url(#_clip1)"><g transform="matrix(1,0,0,1,-3.45262,-60.8963)"><text x="77.279px" y="288.174px" style="font-family:'ArialMT', 'Arial', sans-serif;font-size:10px;fill:#fff;">D</text><text x="84.3px" y="288.174px" style="font-family:'ArialMT', 'Arial', sans-serif;font-size:10px;fill:#fff;">o</text><text x="90.262px" y="288.174px" style="font-family:'ArialMT', 'Arial', sans-serif;font-size:10px;fill:#fff;">ck</text><text x="100.262px" y="288.174px" style="font-family:'ArialMT', 'Arial', sans-serif;font-size:10px;fill:#fff;">e</text><text x="106.224px" y="288.174px" style="font-family:'ArialMT', 'Arial', sans-serif;font-size:10px;fill:#fff;">r</text><text x="111.282px" y="288.174px" style="font-family:'ArialMT', 'Arial', sans-serif;font-size:10px;fill:#fff;">E</text><text x="118.302px" y="288.174px" style="font-family:'ArialMT', 'Arial', sans-serif;font-size:10px;fill:#fff;">n<tspan x="124.263px " y="288.174px ">g</tspan></text><text x="130.225px" y="288.174px" style="font-family:'ArialMT', 'Arial', sans-serif;font-size:10px;fill:#fff;">i</text><text x="132.297px" y="288.174px" style="font-family:'ArialMT', 'Arial', sans-serif;font-size:10px;fill:#fff;">n</text><text x="138.258px" y="288.174px" style="font-family:'ArialMT', 'Arial', sans-serif;font-size:10px;fill:#fff;">e</text></g></g><path id="linux" d="M67.547,237.165c0,-0.586 0.476,-1.061 1.062,-1.061l78.877,0c0.586,0 1.061,0.475 1.061,1.061l0,14.877c0,0.586 -0.475,1.062 -1.061,1.062l-78.877,0c-0.586,0 -1.062,-0.476 -1.062,-1.062l0,-14.877Z" style="fill:#004a72;fill-rule:nonzero;"/><clipPath id="_clip2"><path d="M67.547,237.165c0,-0.586 0.476,-1.061 1.062,-1.061l78.877,0c0.586,0 1.061,0.475 1.061,1.061l0,14.877c0,0.586 -0.475,1.062 -1.061,1.062l-78.877,0c-0.586,0 -1.062,-0.476 -1.062,-1.062l0,-14.877Z" clip-rule="nonzero"/></clipPath><g clip-path="url(#_clip2)"><g transform="matrix(1,0,0,1,-3.45262,-60.8963)"><text x="98.279px" y="309.458px" style="font-family:'ArialMT', 'Arial', sans-serif;font-size:10px;fill:#fff;">L</text><text x="104.24px" y="309.458px" style="font-family:'ArialMT', 'Arial', sans-serif;font-size:10px;fill:#fff;">i</text><text x="106.262px" y="309.458px" style="font-family:'ArialMT', 'Arial', sans-serif;font-size:10px;fill:#fff;">n<tspan x="112.224px " y="309.458px ">u</tspan></text><text x="118.185px" y="309.458px" style="font-family:'ArialMT', 'Arial', sans-serif;font-size:10px;fill:#fff;">x</text></g></g><rect x="21.547" y="186.104" width="173" height="20" style="fill:#171717;"/><g transform="matrix(1,0,0,1,-3.45262,-60.8963)"><text x="32.447px" y="259.676px" style="font-family:'CourierNewPS-BoldMT', 'Courier New', monospace;font-weight:700;font-size:10px;fill:#fff;">$ docker run</text><text x="110.46px" y="259.676px" style="font-family:'CourierNewPS-BoldMT', 'Courier New', monospace;font-weight:700;font-size:10px;fill:#ef4a52;">alpine ls –l</text></g><g id="run-box-header" serif:id="run box header"><text x="16.223px" y="105.339px" style="font-family:'AppleSDGothicNeo-Bold', 'Apple SD Gothic Neo';font-weight:700;font-size:16px;fill:#01a08d;">❶</text><g transform="matrix(1,0,0,1,-3.45262,-60.8963)"><text x="43.471px" y="159.477px" style="font-family:'OpenSans-Regular', 'Open Sans', sans-serif;font-size:9px;fill:#535353;">R</text><text x="49.485px" y="159.477px" style="font-family:'OpenSans-Regular', 'Open Sans', sans-serif;font-size:9px;fill:#535353;">u<tspan x="55.509px " y="159.477px ">n</tspan></text><text x="63.47px" y="159.477px" style="font-family:'OpenSans-Regular', 'Open Sans', sans-serif;font-size:9px;fill:#535353;">t</text><text x="66.448px" y="159.477px" style="font-family:'OpenSans-Regular', 'Open Sans', sans-serif;font-size:9px;fill:#535353;">h</text><text x="72.471px" y="159.477px" style="font-family:'OpenSans-Regular', 'Open Sans', sans-serif;font-size:9px;fill:#535353;">e</text><text x="79.459px" y="159.477px" style="font-family:'OpenSans-Regular', 'Open Sans', sans-serif;font-size:9px;fill:#ef4a52;">a</text><text x="84.464px" y="159.477px" style="font-family:'OpenSans-Regular', 'Open Sans', sans-serif;font-size:9px;fill:#ef4a52;">l</text><text x="86.44px" y="159.477px" style="font-family:'OpenSans-Regular', 'Open Sans', sans-serif;font-size:9px;fill:#ef4a52;">p</text><text x="92.456px" y="159.477px" style="font-family:'OpenSans-Regular', 'Open Sans', sans-serif;font-size:9px;fill:#ef4a52;">i</text><text x="94.432px" y="159.477px" style="font-family:'OpenSans-Regular', 'Open Sans', sans-serif;font-size:9px;fill:#ef4a52;">n</text><text x="100.456px" y="159.477px" style="font-family:'OpenSans-Regular', 'Open Sans', sans-serif;font-size:9px;fill:#ef4a52;">e</text><text x="107.493px" y="159.477px" style="font-family:'OpenSans-Regular', 'Open Sans', sans-serif;font-size:9px;fill:#535353;">c</text><text x="111.478px" y="159.477px" style="font-family:'OpenSans-Regular', 'Open Sans', sans-serif;font-size:9px;fill:#535353;">o</text><text x="116.464px" y="159.477px" style="font-family:'OpenSans-Regular', 'Open Sans', sans-serif;font-size:9px;fill:#535353;">n</text><text x="122.488px" y="159.477px" style="font-family:'OpenSans-Regular', 'Open Sans', sans-serif;font-size:9px;fill:#535353;">t</text><text x="125.465px" y="159.477px" style="font-family:'OpenSans-Regular', 'Open Sans', sans-serif;font-size:9px;fill:#535353;">a</text><text x="130.47px" y="159.477px" style="font-family:'OpenSans-Regular', 'Open Sans', sans-serif;font-size:9px;fill:#535353;">i</text><text x="132.447px" y="159.477px" style="font-family:'OpenSans-Regular', 'Open Sans', sans-serif;font-size:9px;fill:#535353;">n</text><text x="138.471px" y="159.477px" style="font-family:'OpenSans-Regular', 'Open Sans', sans-serif;font-size:9px;fill:#535353;">er a</text><text x="154.537px" y="159.477px" style="font-family:'OpenSans-Regular', 'Open Sans', sans-serif;font-size:9px;fill:#535353;">n</text><text x="160.461px" y="159.477px" style="font-family:'OpenSans-Regular', 'Open Sans', sans-serif;font-size:9px;fill:#535353;">d</text><text x="168.464px" y="159.477px" style="font-family:'OpenSans-Regular', 'Open Sans', sans-serif;font-size:9px;fill:#535353;">s</text><text x="172.457px" y="159.477px" style="font-family:'OpenSans-Regular', 'Open Sans', sans-serif;font-size:9px;fill:#535353;">e</text><text x="177.507px" y="159.477px" style="font-family:'OpenSans-Regular', 'Open Sans', sans-serif;font-size:9px;fill:#535353;">n<tspan x="183.531px " y="159.477px ">d</tspan></text></g><g transform="matrix(1,0,0,1,-3.45262,-60.8963)"><text x="43.471px" y="170.477px" style="font-family:'CourierNewPS-BoldMT', 'Courier New', monospace;font-weight:700;font-size:9px;fill:#ef4a52;">l<tspan x="48.472px " y="170.477px ">s</tspan></text><text x="59.468px" y="170.477px" style="font-family:'CourierNewPS-BoldMT', 'Courier New', monospace;font-weight:700;font-size:9px;fill:#ef4a52;">-</text><text x="64.469px" y="170.477px" style="font-family:'CourierNewPS-BoldMT', 'Courier New', monospace;font-weight:700;font-size:9px;fill:#ef4a52;">l</text></g></g></g><g id="launch-panel" serif:id="launch panel"><rect id="panel-bounding-box" serif:id="panel bounding box" x="221.047" y="87.604" width="192" height="236" style="fill:none;stroke:#535353;stroke-width:1px;"/><g id="launch-header-text" serif:id="launch header text"><g transform="matrix(1,0,0,1,-3.45262,-60.8963)"><text x="250.806px" y="159.003px" style="font-family:'OpenSans-Regular', 'Open Sans', sans-serif;font-size:9px;fill:#ef4a52;">a</text><text x="255.812px" y="159.003px" style="font-family:'OpenSans-Regular', 'Open Sans', sans-serif;font-size:9px;fill:#ef4a52;">l</text><text x="257.788px" y="159.003px" style="font-family:'OpenSans-Regular', 'Open Sans', sans-serif;font-size:9px;fill:#ef4a52;">p</text><text x="263.803px" y="159.003px" style="font-family:'OpenSans-Regular', 'Open Sans', sans-serif;font-size:9px;fill:#ef4a52;">i</text><text x="265.779px" y="159.003px" style="font-family:'OpenSans-Regular', 'Open Sans', sans-serif;font-size:9px;fill:#ef4a52;">n</text><text x="271.803px" y="159.003px" style="font-family:'OpenSans-Regular', 'Open Sans', sans-serif;font-size:9px;fill:#ef4a52;">e</text><text x="278.791px" y="159.003px" style="font-family:'OpenSans-Regular', 'Open Sans', sans-serif;font-size:9px;fill:#535353;">l</text><text x="280.767px" y="159.003px" style="font-family:'OpenSans-Regular', 'Open Sans', sans-serif;font-size:9px;fill:#535353;">a</text><text x="285.772px" y="159.003px" style="font-family:'OpenSans-Regular', 'Open Sans', sans-serif;font-size:9px;fill:#535353;">u<tspan x="291.796px " y="159.003px ">n</tspan></text><text x="297.82px" y="159.003px" style="font-family:'OpenSans-Regular', 'Open Sans', sans-serif;font-size:9px;fill:#535353;">c</text><text x="301.805px" y="159.003px" style="font-family:'OpenSans-Regular', 'Open Sans', sans-serif;font-size:9px;fill:#535353;">h</text><text x="307.829px" y="159.003px" style="font-family:'OpenSans-Regular', 'Open Sans', sans-serif;font-size:9px;fill:#535353;">e</text><text x="312.878px" y="159.003px" style="font-family:'OpenSans-Regular', 'Open Sans', sans-serif;font-size:9px;fill:#535353;">s</text><text x="318.809px" y="159.003px" style="font-family:'OpenSans-Regular', 'Open Sans', sans-serif;font-size:9px;fill:#535353;">a</text><text x="323.815px" y="159.003px" style="font-family:'OpenSans-Regular', 'Open Sans', sans-serif;font-size:9px;fill:#535353;">n<tspan x="329.839px " y="159.003px ">d</tspan></text><text x="337.792px" y="159.003px" style="font-family:'OpenSans-Regular', 'Open Sans', sans-serif;font-size:9px;fill:#535353;">r</text><text x="341.816px" y="159.003px" style="font-family:'OpenSans-Regular', 'Open Sans', sans-serif;font-size:9px;fill:#535353;">u<tspan x="347.84px " y="159.003px ">n</tspan></text><text x="353.863px" y="159.003px" style="font-family:'OpenSans-Regular', 'Open Sans', sans-serif;font-size:9px;fill:#535353;">s</text><text x="359.795px" y="159.003px" style="font-family:'CourierNewPS-BoldMT', 'Courier New', monospace;font-weight:700;font-size:9px;fill:#ef4a52;">l<tspan x="364.796px " y="159.003px ">s</tspan></text><text x="373.797px" y="159.003px" style="font-family:'CourierNewPS-BoldMT', 'Courier New', monospace;font-weight:700;font-size:9px;fill:#ef4a52;">-</text><text x="378.798px" y="159.003px" style="font-family:'CourierNewPS-BoldMT', 'Courier New', monospace;font-weight:700;font-size:9px;fill:#ef4a52;">l</text></g><text x="223.513px" y="105.339px" style="font-family:'AppleSDGothicNeo-Bold', 'Apple SD Gothic Neo';font-weight:700;font-size:16px;fill:#01a08d;">❷</text></g><g><path d="M307.864,286.38c-0.762,0 -1.355,0.581 -1.355,1.327c0,0.747 0.593,1.327 1.355,1.327c0.763,0 1.355,-0.58 1.355,-1.327c0,-0.746 -0.592,-1.327 -1.355,-1.327Zm-0.169,1.327c0,-0.083 0.084,-0.166 0.169,-0.166c0.085,0 0.17,0.083 0.17,0.166c0,0.249 -0.339,0.249 -0.339,0Zm26.092,-0.746l-10.335,0c-0.424,0 -0.763,0.331 -0.763,0.746c0,0.415 0.339,0.747 0.763,0.747l10.335,0c0.423,0 0.762,-0.332 0.762,-0.747c0,-0.415 -0.339,-0.746 -0.762,-0.746Zm-20.247,11.778c-0.763,0 -1.356,0.581 -1.356,1.327c0,0.747 0.593,1.328 1.356,1.328c0.762,0 1.355,-0.581 1.355,-1.328c0,-0.746 -0.593,-1.327 -1.355,-1.327Zm-0.17,1.327c0,-0.165 0.085,-0.248 0.17,-0.248c0.169,0 0.254,0.083 0.254,0.248c0,0.167 -0.424,0.167 -0.424,0Zm20.417,-0.829l-10.335,0c-0.424,0 -0.763,0.415 -0.763,0.829c0,0.415 0.339,0.747 0.763,0.747l10.335,0c0.423,0 0.762,-0.332 0.762,-0.747c0,-0.414 -0.339,-0.829 -0.762,-0.829Zm-20.247,-12.857c-0.763,0 -1.356,0.581 -1.356,1.327c0,0.747 0.593,1.327 1.356,1.327c0.762,0 1.355,-0.58 1.355,-1.327c0,-0.746 -0.593,-1.327 -1.355,-1.327Zm-0.17,1.327c0,-0.083 0.085,-0.166 0.17,-0.166c0.169,0 0.254,0.083 0.254,0.166c0,0.249 -0.424,0.249 -0.424,0Zm-11.182,-1.327c-0.762,0 -1.355,0.581 -1.355,1.327c0,0.747 0.593,1.327 1.355,1.327c0.763,0 1.356,-0.58 1.356,-1.327c0,-0.746 -0.593,-1.327 -1.356,-1.327Zm-0.169,1.327c0,-0.083 0.084,-0.166 0.169,-0.166c0.085,0 0.17,0.083 0.17,0.166c0,0.249 -0.339,0.249 -0.339,0Zm5.845,11.032c-0.762,0 -1.355,0.581 -1.355,1.327c0,0.747 0.593,1.328 1.355,1.328c0.763,0 1.355,-0.581 1.355,-1.328c0,-0.746 -0.592,-1.327 -1.355,-1.327Zm-0.169,1.327c0,-0.165 0.084,-0.248 0.169,-0.248c0.085,0 0.17,0.083 0.17,0.248c0,0.167 -0.339,0.167 -0.339,0Zm-5.507,-1.327c-0.762,0 -1.355,0.581 -1.355,1.327c0,0.747 0.593,1.328 1.355,1.328c0.763,0 1.356,-0.581 1.356,-1.328c0,-0.746 -0.593,-1.327 -1.356,-1.327Zm-0.169,1.327c0,-0.165 0.084,-0.248 0.169,-0.248c0.085,0 0.17,0.083 0.17,0.248c0,0.167 -0.339,0.167 -0.339,0Zm11.521,-38.322c-0.763,0 -1.356,0.581 -1.356,1.327c0,0.747 0.593,1.328 1.356,1.328c0.762,0 1.355,-0.581 1.355,-1.328c0,-0.746 -0.593,-1.327 -1.355,-1.327Zm-0.17,1.327c0,-0.083 0.085,-0.166 0.17,-0.166c0.169,0 0.254,0.083 0.254,0.166c0,0.249 -0.424,0.249 -0.424,0Zm-5.506,-1.327c-0.762,0 -1.355,0.581 -1.355,1.327c0,0.747 0.593,1.328 1.355,1.328c0.763,0 1.355,-0.581 1.355,-1.328c0,-0.746 -0.592,-1.327 -1.355,-1.327Zm-0.169,1.327c0,-0.083 0.084,-0.166 0.169,-0.166c0.085,0 0.17,0.083 0.17,0.166c0,0.249 -0.339,0.249 -0.339,0Zm26.092,-0.746l-10.335,0c-0.424,0 -0.763,0.332 -0.763,0.746c0,0.415 0.339,0.747 0.763,0.747l10.335,0c0.423,0 0.762,-0.332 0.762,-0.747c0,-0.414 -0.339,-0.746 -0.762,-0.746Zm5.76,-3.65c0,-1.41 -1.186,-2.571 -2.626,-2.571l-40.748,0c-1.44,0 -2.626,1.161 -2.626,2.571l0,8.793c0,0.663 0.254,1.327 0.762,1.742c-0.508,0.497 -0.762,1.078 -0.762,1.824l0,8.71c0,0.747 0.254,1.327 0.762,1.825c-0.508,0.415 -0.762,1.078 -0.762,1.742l0,8.793c0,0.663 0.254,1.327 0.762,1.741c-0.508,0.498 -0.762,1.162 -0.762,1.825l0,8.71c0,1.41 1.186,2.571 2.626,2.571l3.135,0l0,1.66c0,0.829 0.677,1.493 1.525,1.493l6.269,0c0.932,0 1.609,-0.664 1.609,-1.493l0,-1.66l14.656,0l0,1.66c0,0.829 0.678,1.493 1.609,1.493l6.269,0c0.847,0 1.525,-0.664 1.525,-1.493l0,-1.66l4.151,0c1.44,0 2.626,-1.161 2.626,-2.571l0,-8.71c0,-0.663 -0.339,-1.327 -0.762,-1.825c0.423,-0.414 0.762,-1.078 0.762,-1.741l0,-8.793c0,-0.664 -0.339,-1.327 -0.762,-1.742c0.423,-0.498 0.762,-1.078 0.762,-1.825l0,-8.71c0,-0.746 -0.339,-1.327 -0.762,-1.824c0.423,-0.415 0.762,-1.079 0.762,-1.742l0,-8.793Zm-32.445,49.936l-6.269,0l0,-1.66l6.269,0l0,1.66Zm24.143,0l-6.269,0l0,-1.66l6.269,0l0,1.66Zm6.693,-4.231c0,0.581 -0.424,1.078 -1.017,1.078l-40.748,0c-0.593,0 -1.101,-0.497 -1.101,-1.078l0,-8.71c0,-0.581 0.508,-0.995 1.101,-0.995l40.748,0c0.593,0 1.017,0.414 1.017,0.995l0,8.71Zm0,-12.276c0,0.58 -0.424,0.995 -1.017,0.995l-40.748,0c-0.593,0 -1.101,-0.415 -1.101,-0.995l0,-8.793c0,-0.498 0.508,-0.996 1.101,-0.996l40.748,0c0.593,0 1.017,0.498 1.017,0.996l0,8.793Zm0,-12.36c0,0.581 -0.424,1.078 -1.017,1.078l-40.748,0c-0.593,0 -1.101,-0.497 -1.101,-1.078l0,-8.71c0,-0.58 0.508,-1.078 1.101,-1.078l40.748,0c0.593,0 1.017,0.498 1.017,1.078l0,8.71Zm0,-12.276c0,0.497 -0.424,0.995 -1.017,0.995l-40.748,0c-0.593,0 -1.101,-0.498 -1.101,-0.995l0,-8.793c0,-0.581 0.508,-0.995 1.101,-0.995l40.748,0c0.593,0 1.017,0.414 1.017,0.995l0,8.793Zm-30.074,6.552c-0.762,0 -1.355,0.664 -1.355,1.328c0,0.746 0.593,1.41 1.355,1.41c0.763,0 1.355,-0.664 1.355,-1.41c0,-0.664 -0.592,-1.328 -1.355,-1.328Zm-0.169,1.328c0,-0.083 0.084,-0.166 0.169,-0.166c0.085,0 0.17,0.083 0.17,0.166c0,0.248 -0.339,0.248 -0.339,0Zm-5.507,-1.328c-0.762,0 -1.355,0.664 -1.355,1.328c0,0.746 0.593,1.41 1.355,1.41c0.763,0 1.356,-0.664 1.356,-1.41c0,-0.664 -0.593,-1.328 -1.356,-1.328Zm-0.169,1.328c0,-0.083 0.084,-0.166 0.169,-0.166c0.085,0 0.17,0.083 0.17,0.166c0,0.248 -0.339,0.248 -0.339,0Zm11.521,-1.328c-0.763,0 -1.356,0.664 -1.356,1.328c0,0.746 0.593,1.41 1.356,1.41c0.762,0 1.355,-0.664 1.355,-1.41c0,-0.664 -0.593,-1.328 -1.355,-1.328Zm-0.17,1.328c0,-0.083 0.085,-0.166 0.17,-0.166c0.169,0 0.254,0.083 0.254,0.166c0,0.248 -0.424,0.248 -0.424,0Zm20.417,-0.747l-10.335,0c-0.424,0 -0.763,0.332 -0.763,0.747c0,0.497 0.339,0.829 0.763,0.829l10.335,0c0.423,0 0.762,-0.332 0.762,-0.829c0,-0.415 -0.339,-0.747 -0.762,-0.747Zm-31.599,-12.857c-0.762,0 -1.355,0.581 -1.355,1.327c0,0.747 0.593,1.328 1.355,1.328c0.763,0 1.356,-0.581 1.356,-1.328c0,-0.746 -0.593,-1.327 -1.356,-1.327Zm-0.169,1.327c0,-0.083 0.084,-0.166 0.169,-0.166c0.085,0 0.17,0.083 0.17,0.166c0,0.249 -0.339,0.249 -0.339,0Z" style="fill:#394e55;"/><rect x="298.547" y="271.104" width="35" height="11" style="fill:#fff;"/><rect x="297.547" y="275.104" width="39" height="15" style="fill:#fff;"/><path d="M318.974,280.195l3.042,0l0,-2.627l-3.042,0l0,2.627Zm-3.448,0l3.042,0l0,-2.627l-3.042,0l0,2.627Zm-3.447,0l2.839,0l0,-2.627l-2.839,0l0,2.627Zm-3.651,0l3.042,0l0,-2.627l-3.042,0l0,2.627Zm-3.447,0l3.042,0l0,-2.627l-3.042,0l0,2.627Zm3.447,-3.233l3.042,0l0,-2.626l-3.042,0l0,2.626Zm3.651,0l2.839,0l0,-2.626l-2.839,0l0,2.626Zm3.447,0l3.042,0l0,-2.626l-3.042,0l0,2.626Zm0,-3.232l3.042,0l0,-2.626l-3.042,0l0,2.626Zm15.413,5.05c-0.608,-0.606 -2.028,-0.606 -3.245,-0.404c-0.203,-1.212 -0.811,-2.02 -1.825,-2.828l-0.608,-0.606l-0.406,0.808c-0.608,0.808 -0.811,1.818 -0.811,2.828c0,0.404 0.203,1.213 0.608,1.819c-0.405,0.202 -1.217,0.404 -2.231,0.404l-19.468,0l-0.203,0.202c-0.203,1.01 -0.203,4.444 2.028,7.07c1.825,2.021 4.259,3.031 7.503,3.031c7.098,0 12.371,-3.233 14.805,-9.293c1.014,0 3.042,0 4.056,-2.02c0,0 0.202,-0.202 0.405,-0.405l0,-0.202l-0.608,-0.404Z" style="fill:#1aaaf8;"/></g><path d="M275.547,215.29c0,-0.655 0.532,-1.186 1.187,-1.186l78.627,0c0.655,0 1.186,0.531 1.186,1.186l0,16.627c0,0.656 -0.531,1.187 -1.186,1.187l-78.627,0c-0.655,0 -1.187,-0.531 -1.187,-1.187l0,-16.627Z" style="fill:#0095e5;fill-rule:nonzero;"/><clipPath id="_clip3"><path d="M275.547,215.29c0,-0.655 0.532,-1.186 1.187,-1.186l78.627,0c0.655,0 1.186,0.531 1.186,1.186l0,16.627c0,0.656 -0.531,1.187 -1.186,1.187l-78.627,0c-0.655,0 -1.187,-0.531 -1.187,-1.187l0,-16.627Z" clip-rule="nonzero"/></clipPath><g clip-path="url(#_clip3)"><g transform="matrix(1,0,0,1,-3.45262,-60.8963)"><text x="285.55px" y="288.174px" style="font-family:'ArialMT', 'Arial', sans-serif;font-size:10px;fill:#fff;">D</text><text x="292.572px" y="288.174px" style="font-family:'ArialMT', 'Arial', sans-serif;font-size:10px;fill:#fff;">o</text><text x="298.533px" y="288.174px" style="font-family:'ArialMT', 'Arial', sans-serif;font-size:10px;fill:#fff;">ck</text><text x="308.533px" y="288.174px" style="font-family:'ArialMT', 'Arial', sans-serif;font-size:10px;fill:#fff;">e</text><text x="314.495px" y="288.174px" style="font-family:'ArialMT', 'Arial', sans-serif;font-size:10px;fill:#fff;">r</text><text x="319.553px" y="288.174px" style="font-family:'ArialMT', 'Arial', sans-serif;font-size:10px;fill:#fff;">E</text><text x="326.573px" y="288.174px" style="font-family:'ArialMT', 'Arial', sans-serif;font-size:10px;fill:#fff;">n<tspan x="332.535px " y="288.174px ">g</tspan></text><text x="338.496px" y="288.174px" style="font-family:'ArialMT', 'Arial', sans-serif;font-size:10px;fill:#fff;">i</text><text x="340.568px" y="288.174px" style="font-family:'ArialMT', 'Arial', sans-serif;font-size:10px;fill:#fff;">n</text><text x="346.529px" y="288.174px" style="font-family:'ArialMT', 'Arial', sans-serif;font-size:10px;fill:#fff;">e</text></g></g><path d="M275.547,237.165c0,-0.586 0.476,-1.061 1.062,-1.061l78.877,0c0.586,0 1.061,0.475 1.061,1.061l0,14.877c0,0.586 -0.475,1.062 -1.061,1.062l-78.877,0c-0.586,0 -1.062,-0.476 -1.062,-1.062l0,-14.877Z" style="fill:#004a72;fill-rule:nonzero;"/><clipPath id="_clip4"><path d="M275.547,237.165c0,-0.586 0.476,-1.061 1.062,-1.061l78.877,0c0.586,0 1.061,0.475 1.061,1.061l0,14.877c0,0.586 -0.475,1.062 -1.061,1.062l-78.877,0c-0.586,0 -1.062,-0.476 -1.062,-1.062l0,-14.877Z" clip-rule="nonzero"/></clipPath><g clip-path="url(#_clip4)"><g transform="matrix(1,0,0,1,-3.45262,-60.8963)"><text x="306.55px" y="309.458px" style="font-family:'ArialMT', 'Arial', sans-serif;font-size:10px;fill:#fff;">L</text><text x="312.512px" y="309.458px" style="font-family:'ArialMT', 'Arial', sans-serif;font-size:10px;fill:#fff;">i</text><text x="314.533px" y="309.458px" style="font-family:'ArialMT', 'Arial', sans-serif;font-size:10px;fill:#fff;">n<tspan x="320.495px " y="309.458px ">u</tspan></text><text x="326.456px" y="309.458px" style="font-family:'ArialMT', 'Arial', sans-serif;font-size:10px;fill:#fff;">x</text></g></g><g><path d="M277.047,119.54c0,-2.174 1.763,-3.936 3.936,-3.936l72.128,0c2.174,0 3.936,1.762 3.936,3.936l0,83.128c0,2.174 -1.762,3.936 -3.936,3.936l-72.128,0c-2.173,0 -3.936,-1.762 -3.936,-3.936l0,-83.128Z" style="fill:none;stroke:#ef4a52;stroke-width:1px;stroke-linejoin:round;"/><g transform="matrix(1,0,0,1,-3.45262,-60.8963)"><text x="303.636px" y="188.451px" style="font-family:'OpenSans-Bold', 'Open Sans', sans-serif;font-weight:700;font-size:10px;fill:#ef4a52;">A</text><text x="310.635px" y="188.451px" style="font-family:'OpenSans-Bold', 'Open Sans', sans-serif;font-weight:700;font-size:10px;fill:#ef4a52;">l</text><text x="313.687px" y="188.451px" style="font-family:'OpenSans-Bold', 'Open Sans', sans-serif;font-weight:700;font-size:10px;fill:#ef4a52;">p</text><text x="319.615px" y="188.451px" style="font-family:'OpenSans-Bold', 'Open Sans', sans-serif;font-weight:700;font-size:10px;fill:#ef4a52;">i</text><text x="322.667px" y="188.451px" style="font-family:'OpenSans-Bold', 'Open Sans', sans-serif;font-weight:700;font-size:10px;fill:#ef4a52;">n</text><text x="329.639px" y="188.451px" style="font-family:'OpenSans-Bold', 'Open Sans', sans-serif;font-weight:700;font-size:10px;fill:#ef4a52;">e</text></g><g transform="matrix(1,0,0,1,-3.45262,-60.8963)"><text x="296.636px" y="200.451px" style="font-family:'OpenSans-Regular', 'Open Sans', sans-serif;font-size:10px;fill:#0095e5;">c</text><text x="301.646px" y="200.451px" style="font-family:'OpenSans-Regular', 'Open Sans', sans-serif;font-size:10px;fill:#0095e5;">o</text><text x="307.686px" y="200.451px" style="font-family:'OpenSans-Regular', 'Open Sans', sans-serif;font-size:10px;fill:#0095e5;">n</text><text x="313.624px" y="200.451px" style="font-family:'OpenSans-Regular', 'Open Sans', sans-serif;font-size:10px;fill:#0095e5;">t</text><text x="317.654px" y="200.451px" style="font-family:'OpenSans-Regular', 'Open Sans', sans-serif;font-size:10px;fill:#0095e5;">a</text><text x="323.616px" y="200.451px" style="font-family:'OpenSans-Regular', 'Open Sans', sans-serif;font-size:10px;fill:#0095e5;">i</text><text x="326.645px" y="200.451px" style="font-family:'OpenSans-Regular', 'Open Sans', sans-serif;font-size:10px;fill:#0095e5;">n</text><text x="332.633px" y="200.451px" style="font-family:'OpenSans-Regular', 'Open Sans', sans-serif;font-size:10px;fill:#0095e5;">e</text><text x="338.643px" y="200.451px" style="font-family:'OpenSans-Regular', 'Open Sans', sans-serif;font-size:10px;fill:#0095e5;">r</text></g><rect x="279.547" y="149.104" width="75" height="20" style="fill:#171717;"/><g transform="matrix(1,0,0,1,-3.45262,-60.8963)"><text x="292.673px" y="223.366px" style="font-family:'CourierNewPS-BoldMT', 'Courier New', monospace;font-weight:700;font-size:12px;fill:#ef4a52;">$</text><text x="307.652px" y="223.366px" style="font-family:'CourierNewPS-BoldMT', 'Courier New', monospace;font-weight:700;font-size:12px;fill:#ef4a52;">l<tspan x="314.653px " y="223.366px ">s</tspan></text><text x="329.647px" y="223.366px" style="font-family:'CourierNewPS-BoldMT', 'Courier New', monospace;font-weight:700;font-size:12px;fill:#ef4a52;">–</text><text x="336.649px" y="223.366px" style="font-family:'CourierNewPS-BoldMT', 'Courier New', monospace;font-weight:700;font-size:12px;fill:#ef4a52;">l</text></g><g id="alpine-container" serif:id="alpine container"><path d="M276.599,113.604l12.155,0c0.776,0 1.293,0.448 1.293,1.12l0,10.759c0,0.672 -0.517,1.121 -1.293,1.121l-12.155,0c-0.776,0 -1.552,-0.449 -1.552,-1.121l0,-10.759c0,-0.672 0.776,-1.12 1.552,-1.12Z" style="fill:#fff;stroke:#ef4a52;stroke-width:1px;stroke-linejoin:miter;stroke-miterlimit:8;"/><path d="M279.047,123.223l0,-6.619" style="fill:none;stroke:#ef4a52;stroke-width:1px;stroke-linecap:round;stroke-linejoin:round;"/><path d="M281.381,123.223l0,-6.619" style="fill:none;stroke:#ef4a52;stroke-width:1px;stroke-linecap:round;stroke-linejoin:round;"/><path d="M283.714,123.223l0,-6.619" style="fill:none;stroke:#ef4a52;stroke-width:1px;stroke-linecap:round;stroke-linejoin:round;"/><path d="M286.047,123.223l0,-6.619" style="fill:none;stroke:#ef4a52;stroke-width:1px;stroke-linecap:round;stroke-linejoin:round;"/></g><g><path d="M279.547,186.228c0,-0.621 0.504,-1.124 1.124,-1.124l72.752,0c0.621,0 1.124,0.503 1.124,1.124l0,15.752c0,0.62 -0.503,1.124 -1.124,1.124l-72.752,0c-0.62,0 -1.124,-0.504 -1.124,-1.124l0,-15.752Z" style="fill:#004a72;fill-rule:nonzero;"/><g transform="matrix(1,0,0,1,9.26359,-60.8963)"><text x="286.121px" y="258.621px" style="font-family:'OpenSans-Italic', 'Open Sans', sans-serif;font-style:italic;font-size:10px;fill:#fff;">a<tspan x="291.57px " y="258.621px ">l</tspan></text><text x="293.909px" y="258.621px" style="font-family:'OpenSans-Italic', 'Open Sans', sans-serif;font-style:italic;font-size:10px;fill:#fff;">p</text><text x="300.081px" y="258.621px" style="font-family:'OpenSans-Italic', 'Open Sans', sans-serif;font-style:italic;font-size:10px;fill:#fff;">i</text><text x="302.42px" y="258.621px" style="font-family:'OpenSans-Italic', 'Open Sans', sans-serif;font-style:italic;font-size:10px;fill:#fff;">n<tspan x="308.591px " y="258.621px ">e</tspan></text><text x="315.771px" y="258.621px" style="font-family:'OpenSans-Regular', 'Open Sans', sans-serif;font-size:10px;fill:#fff;">O<tspan x="323.959px " y="258.621px ">S</tspan></text></g></g></g></g><g id="shut-down-panel" serif:id="shut down panel"><rect x="429.047" y="87.604" width="248" height="236" style="fill:none;stroke:#535353;stroke-width:1px;"/><g><path d="M543.864,286.38c-0.762,0 -1.355,0.581 -1.355,1.327c0,0.747 0.593,1.327 1.355,1.327c0.763,0 1.355,-0.58 1.355,-1.327c0,-0.746 -0.592,-1.327 -1.355,-1.327Zm-0.169,1.327c0,-0.083 0.084,-0.166 0.169,-0.166c0.085,0 0.17,0.083 0.17,0.166c0,0.249 -0.339,0.249 -0.339,0Zm26.092,-0.746l-10.335,0c-0.424,0 -0.763,0.331 -0.763,0.746c0,0.415 0.339,0.747 0.763,0.747l10.335,0c0.423,0 0.762,-0.332 0.762,-0.747c0,-0.415 -0.339,-0.746 -0.762,-0.746Zm-20.247,11.778c-0.763,0 -1.356,0.581 -1.356,1.327c0,0.747 0.593,1.328 1.356,1.328c0.762,0 1.355,-0.581 1.355,-1.328c0,-0.746 -0.593,-1.327 -1.355,-1.327Zm-0.17,1.327c0,-0.165 0.085,-0.248 0.17,-0.248c0.169,0 0.254,0.083 0.254,0.248c0,0.167 -0.424,0.167 -0.424,0Zm20.417,-0.829l-10.335,0c-0.424,0 -0.763,0.415 -0.763,0.829c0,0.415 0.339,0.747 0.763,0.747l10.335,0c0.423,0 0.762,-0.332 0.762,-0.747c0,-0.414 -0.339,-0.829 -0.762,-0.829Zm-20.247,-12.857c-0.763,0 -1.356,0.581 -1.356,1.327c0,0.747 0.593,1.327 1.356,1.327c0.762,0 1.355,-0.58 1.355,-1.327c0,-0.746 -0.593,-1.327 -1.355,-1.327Zm-0.17,1.327c0,-0.083 0.085,-0.166 0.17,-0.166c0.169,0 0.254,0.083 0.254,0.166c0,0.249 -0.424,0.249 -0.424,0Zm-11.182,-1.327c-0.762,0 -1.355,0.581 -1.355,1.327c0,0.747 0.593,1.327 1.355,1.327c0.763,0 1.356,-0.58 1.356,-1.327c0,-0.746 -0.593,-1.327 -1.356,-1.327Zm-0.169,1.327c0,-0.083 0.084,-0.166 0.169,-0.166c0.085,0 0.17,0.083 0.17,0.166c0,0.249 -0.339,0.249 -0.339,0Zm5.845,11.032c-0.762,0 -1.355,0.581 -1.355,1.327c0,0.747 0.593,1.328 1.355,1.328c0.763,0 1.355,-0.581 1.355,-1.328c0,-0.746 -0.592,-1.327 -1.355,-1.327Zm-0.169,1.327c0,-0.165 0.084,-0.248 0.169,-0.248c0.085,0 0.17,0.083 0.17,0.248c0,0.167 -0.339,0.167 -0.339,0Zm-5.507,-1.327c-0.762,0 -1.355,0.581 -1.355,1.327c0,0.747 0.593,1.328 1.355,1.328c0.763,0 1.356,-0.581 1.356,-1.328c0,-0.746 -0.593,-1.327 -1.356,-1.327Zm-0.169,1.327c0,-0.165 0.084,-0.248 0.169,-0.248c0.085,0 0.17,0.083 0.17,0.248c0,0.167 -0.339,0.167 -0.339,0Zm11.521,-38.322c-0.763,0 -1.356,0.581 -1.356,1.327c0,0.747 0.593,1.328 1.356,1.328c0.762,0 1.355,-0.581 1.355,-1.328c0,-0.746 -0.593,-1.327 -1.355,-1.327Zm-0.17,1.327c0,-0.083 0.085,-0.166 0.17,-0.166c0.169,0 0.254,0.083 0.254,0.166c0,0.249 -0.424,0.249 -0.424,0Zm-5.506,-1.327c-0.762,0 -1.355,0.581 -1.355,1.327c0,0.747 0.593,1.328 1.355,1.328c0.763,0 1.355,-0.581 1.355,-1.328c0,-0.746 -0.592,-1.327 -1.355,-1.327Zm-0.169,1.327c0,-0.083 0.084,-0.166 0.169,-0.166c0.085,0 0.17,0.083 0.17,0.166c0,0.249 -0.339,0.249 -0.339,0Zm26.092,-0.746l-10.335,0c-0.424,0 -0.763,0.332 -0.763,0.746c0,0.415 0.339,0.747 0.763,0.747l10.335,0c0.423,0 0.762,-0.332 0.762,-0.747c0,-0.414 -0.339,-0.746 -0.762,-0.746Zm5.76,-3.65c0,-1.41 -1.186,-2.571 -2.626,-2.571l-40.748,0c-1.44,0 -2.626,1.161 -2.626,2.571l0,8.793c0,0.663 0.254,1.327 0.762,1.742c-0.508,0.497 -0.762,1.078 -0.762,1.824l0,8.71c0,0.747 0.254,1.327 0.762,1.825c-0.508,0.415 -0.762,1.078 -0.762,1.742l0,8.793c0,0.663 0.254,1.327 0.762,1.741c-0.508,0.498 -0.762,1.162 -0.762,1.825l0,8.71c0,1.41 1.186,2.571 2.626,2.571l3.135,0l0,1.66c0,0.829 0.677,1.493 1.525,1.493l6.269,0c0.932,0 1.609,-0.664 1.609,-1.493l0,-1.66l14.656,0l0,1.66c0,0.829 0.678,1.493 1.609,1.493l6.269,0c0.847,0 1.525,-0.664 1.525,-1.493l0,-1.66l4.151,0c1.44,0 2.626,-1.161 2.626,-2.571l0,-8.71c0,-0.663 -0.339,-1.327 -0.762,-1.825c0.423,-0.414 0.762,-1.078 0.762,-1.741l0,-8.793c0,-0.664 -0.339,-1.327 -0.762,-1.742c0.423,-0.498 0.762,-1.078 0.762,-1.825l0,-8.71c0,-0.746 -0.339,-1.327 -0.762,-1.824c0.423,-0.415 0.762,-1.079 0.762,-1.742l0,-8.793Zm-32.445,49.936l-6.269,0l0,-1.66l6.269,0l0,1.66Zm24.143,0l-6.269,0l0,-1.66l6.269,0l0,1.66Zm6.693,-4.231c0,0.581 -0.424,1.078 -1.017,1.078l-40.748,0c-0.593,0 -1.101,-0.497 -1.101,-1.078l0,-8.71c0,-0.581 0.508,-0.995 1.101,-0.995l40.748,0c0.593,0 1.017,0.414 1.017,0.995l0,8.71Zm0,-12.276c0,0.58 -0.424,0.995 -1.017,0.995l-40.748,0c-0.593,0 -1.101,-0.415 -1.101,-0.995l0,-8.793c0,-0.498 0.508,-0.996 1.101,-0.996l40.748,0c0.593,0 1.017,0.498 1.017,0.996l0,8.793Zm0,-12.36c0,0.581 -0.424,1.078 -1.017,1.078l-40.748,0c-0.593,0 -1.101,-0.497 -1.101,-1.078l0,-8.71c0,-0.58 0.508,-1.078 1.101,-1.078l40.748,0c0.593,0 1.017,0.498 1.017,1.078l0,8.71Zm0,-12.276c0,0.497 -0.424,0.995 -1.017,0.995l-40.748,0c-0.593,0 -1.101,-0.498 -1.101,-0.995l0,-8.793c0,-0.581 0.508,-0.995 1.101,-0.995l40.748,0c0.593,0 1.017,0.414 1.017,0.995l0,8.793Zm-30.074,6.552c-0.762,0 -1.355,0.664 -1.355,1.328c0,0.746 0.593,1.41 1.355,1.41c0.763,0 1.355,-0.664 1.355,-1.41c0,-0.664 -0.592,-1.328 -1.355,-1.328Zm-0.169,1.328c0,-0.083 0.084,-0.166 0.169,-0.166c0.085,0 0.17,0.083 0.17,0.166c0,0.248 -0.339,0.248 -0.339,0Zm-5.507,-1.328c-0.762,0 -1.355,0.664 -1.355,1.328c0,0.746 0.593,1.41 1.355,1.41c0.763,0 1.356,-0.664 1.356,-1.41c0,-0.664 -0.593,-1.328 -1.356,-1.328Zm-0.169,1.328c0,-0.083 0.084,-0.166 0.169,-0.166c0.085,0 0.17,0.083 0.17,0.166c0,0.248 -0.339,0.248 -0.339,0Zm11.521,-1.328c-0.763,0 -1.356,0.664 -1.356,1.328c0,0.746 0.593,1.41 1.356,1.41c0.762,0 1.355,-0.664 1.355,-1.41c0,-0.664 -0.593,-1.328 -1.355,-1.328Zm-0.17,1.328c0,-0.083 0.085,-0.166 0.17,-0.166c0.169,0 0.254,0.083 0.254,0.166c0,0.248 -0.424,0.248 -0.424,0Zm20.417,-0.747l-10.335,0c-0.424,0 -0.763,0.332 -0.763,0.747c0,0.497 0.339,0.829 0.763,0.829l10.335,0c0.423,0 0.762,-0.332 0.762,-0.829c0,-0.415 -0.339,-0.747 -0.762,-0.747Zm-31.599,-12.857c-0.762,0 -1.355,0.581 -1.355,1.327c0,0.747 0.593,1.328 1.355,1.328c0.763,0 1.356,-0.581 1.356,-1.328c0,-0.746 -0.593,-1.327 -1.356,-1.327Zm-0.169,1.327c0,-0.083 0.084,-0.166 0.169,-0.166c0.085,0 0.17,0.083 0.17,0.166c0,0.249 -0.339,0.249 -0.339,0Z" style="fill:#394e55;"/><rect x="535.547" y="271.104" width="35" height="11" style="fill:#fff;"/><rect x="534.547" y="275.104" width="38" height="15" style="fill:#fff;"/><path d="M555.54,280.195l3.147,0l0,-2.627l-3.147,0l0,2.627Zm-3.566,0l3.147,0l0,-2.627l-3.147,0l0,2.627Zm-3.567,0l2.937,0l0,-2.627l-2.937,0l0,2.627Zm-3.776,0l3.147,0l0,-2.627l-3.147,0l0,2.627Zm-3.566,0l3.147,0l0,-2.627l-3.147,0l0,2.627Zm3.566,-3.233l3.147,0l0,-2.626l-3.147,0l0,2.626Zm3.776,0l2.937,0l0,-2.626l-2.937,0l0,2.626Zm3.567,0l3.147,0l0,-2.626l-3.147,0l0,2.626Zm0,-3.232l3.147,0l0,-2.626l-3.147,0l0,2.626Zm15.944,5.05c-0.629,-0.606 -2.098,-0.606 -3.357,-0.404c-0.21,-1.212 -0.839,-2.02 -1.888,-2.828l-0.629,-0.606l-0.42,0.808c-0.629,0.808 -0.839,1.818 -0.839,2.828c0,0.404 0.21,1.213 0.629,1.819c-0.419,0.202 -1.258,0.404 -2.307,0.404l-20.14,0l-0.21,0.202c-0.21,1.01 -0.21,4.444 2.098,7.07c1.888,2.021 4.406,3.031 7.762,3.031c7.343,0 12.797,-3.233 15.315,-9.293c1.049,0 3.147,0 4.196,-2.02c0,0 0.209,-0.202 0.419,-0.405l0,-0.202l-0.629,-0.404Z" style="fill:#1aaaf8;"/></g><path d="M512.547,215.29c0,-0.655 0.532,-1.186 1.187,-1.186l77.627,0c0.655,0 1.186,0.531 1.186,1.186l0,16.627c0,0.656 -0.531,1.187 -1.186,1.187l-77.627,0c-0.655,0 -1.187,-0.531 -1.187,-1.187l0,-16.627Z" style="fill:#0095e5;fill-rule:nonzero;"/><clipPath id="_clip5"><path d="M512.547,215.29c0,-0.655 0.532,-1.186 1.187,-1.186l77.627,0c0.655,0 1.186,0.531 1.186,1.186l0,16.627c0,0.656 -0.531,1.187 -1.186,1.187l-77.627,0c-0.655,0 -1.187,-0.531 -1.187,-1.187l0,-16.627Z" clip-rule="nonzero"/></clipPath><g clip-path="url(#_clip5)"><g transform="matrix(1,0,0,1,-3.45262,-60.8963)"><text x="521.935px" y="288.174px" style="font-family:'ArialMT', 'Arial', sans-serif;font-size:10px;fill:#fff;">D</text><text x="528.957px" y="288.174px" style="font-family:'ArialMT', 'Arial', sans-serif;font-size:10px;fill:#fff;">o</text><text x="534.919px" y="288.174px" style="font-family:'ArialMT', 'Arial', sans-serif;font-size:10px;fill:#fff;">ck</text><text x="544.919px" y="288.174px" style="font-family:'ArialMT', 'Arial', sans-serif;font-size:10px;fill:#fff;">e</text><text x="550.88px" y="288.174px" style="font-family:'ArialMT', 'Arial', sans-serif;font-size:10px;fill:#fff;">r</text><text x="555.939px" y="288.174px" style="font-family:'ArialMT', 'Arial', sans-serif;font-size:10px;fill:#fff;">E</text><text x="562.959px" y="288.174px" style="font-family:'ArialMT', 'Arial', sans-serif;font-size:10px;fill:#fff;">n<tspan x="568.92px " y="288.174px ">g</tspan></text><text x="574.882px" y="288.174px" style="font-family:'ArialMT', 'Arial', sans-serif;font-size:10px;fill:#fff;">i</text><text x="576.953px" y="288.174px" style="font-family:'ArialMT', 'Arial', sans-serif;font-size:10px;fill:#fff;">n</text><text x="582.915px" y="288.174px" style="font-family:'ArialMT', 'Arial', sans-serif;font-size:10px;fill:#fff;">e</text></g></g><path d="M512.547,237.165c0,-0.586 0.476,-1.061 1.062,-1.061l77.877,0c0.586,0 1.061,0.475 1.061,1.061l0,14.877c0,0.586 -0.475,1.062 -1.061,1.062l-77.877,0c-0.586,0 -1.062,-0.476 -1.062,-1.062l0,-14.877Z" style="fill:#004a72;fill-rule:nonzero;"/><clipPath id="_clip6"><path d="M512.547,237.165c0,-0.586 0.476,-1.061 1.062,-1.061l77.877,0c0.586,0 1.061,0.475 1.061,1.061l0,14.877c0,0.586 -0.475,1.062 -1.061,1.062l-77.877,0c-0.586,0 -1.062,-0.476 -1.062,-1.062l0,-14.877Z" clip-rule="nonzero"/></clipPath><g clip-path="url(#_clip6)"><g transform="matrix(1,0,0,1,-3.45262,-60.8963)"><text x="542.935px" y="309.458px" style="font-family:'ArialMT', 'Arial', sans-serif;font-size:10px;fill:#fff;">L</text><text x="548.897px" y="309.458px" style="font-family:'ArialMT', 'Arial', sans-serif;font-size:10px;fill:#fff;">i</text><text x="550.919px" y="309.458px" style="font-family:'ArialMT', 'Arial', sans-serif;font-size:10px;fill:#fff;">n<tspan x="556.88px " y="309.458px ">u</tspan></text><text x="562.842px" y="309.458px" style="font-family:'ArialMT', 'Arial', sans-serif;font-size:10px;fill:#fff;">x</text></g></g><g id="output"><rect x="499.547" y="132.104" width="106" height="74" style="fill:#171717;"/><g transform="matrix(1,0,0,1,-3.45262,-60.8963)"><text x="505.607px" y="202.98px" style="font-family:'CourierNewPSMT', 'Courier New', monospace;font-size:8px;fill:#fff;">t<tspan x="510.608px 515.609px 520.61px 525.61px " y="202.98px 202.98px 202.98px 202.98px ">otal</tspan></text><text x="534.612px" y="202.98px" style="font-family:'CourierNewPSMT', 'Courier New', monospace;font-size:8px;fill:#fff;">8</text></g><g transform="matrix(1,0,0,1,-3.45262,-60.8963)"><text x="505.607px" y="212.98px" style="font-family:'CourierNewPSMT', 'Courier New', monospace;font-size:8px;fill:#fff;">d<tspan x="510.608px 515.609px 520.61px 525.61px 530.611px 535.612px 540.613px 545.613px " y="212.98px 212.98px 212.98px 212.98px 212.98px 212.98px 212.98px 212.98px ">rwxr-xr-</tspan></text><text x="550.614px" y="212.98px" style="font-family:'CourierNewPSMT', 'Courier New', monospace;font-size:8px;fill:#fff;">x</text></g><g transform="matrix(1,0,0,1,-3.45262,-60.8963)"><text x="563.607px" y="212.98px" style="font-family:'CourierNewPSMT', 'Courier New', monospace;font-size:8px;fill:#fff;">.<tspan x="568.608px 573.609px " y="212.98px 212.98px ">..</tspan></text><text x="586.61px" y="212.98px" style="font-family:'CourierNewPSMT', 'Courier New', monospace;font-size:8px;fill:#fff;">b<tspan x="591.611px 596.612px " y="212.98px 212.98px ">in</tspan></text></g><g transform="matrix(1,0,0,1,-3.45262,-60.8963)"><text x="505.607px" y="221.98px" style="font-family:'CourierNewPSMT', 'Courier New', monospace;font-size:8px;fill:#fff;">d<tspan x="510.608px 515.609px 520.61px 525.61px 530.611px 535.612px 540.613px 545.613px " y="221.98px 221.98px 221.98px 221.98px 221.98px 221.98px 221.98px 221.98px ">rwxr-xr-</tspan></text><text x="550.614px" y="221.98px" style="font-family:'CourierNewPSMT', 'Courier New', monospace;font-size:8px;fill:#fff;">x</text></g><g transform="matrix(1,0,0,1,-3.45262,-60.8963)"><text x="563.607px" y="221.98px" style="font-family:'CourierNewPSMT', 'Courier New', monospace;font-size:8px;fill:#fff;">.<tspan x="568.608px 573.609px " y="221.98px 221.98px ">..</tspan></text><text x="586.61px" y="221.98px" style="font-family:'CourierNewPSMT', 'Courier New', monospace;font-size:8px;fill:#fff;">d<tspan x="591.611px 596.612px " y="221.98px 221.98px ">ev</tspan></text></g><g transform="matrix(1,0,0,1,-3.45262,-60.8963)"><text x="505.607px" y="231.98px" style="font-family:'CourierNewPSMT', 'Courier New', monospace;font-size:8px;fill:#fff;">d<tspan x="510.608px 515.609px 520.61px 525.61px 530.611px 535.612px 540.613px 545.613px " y="231.98px 231.98px 231.98px 231.98px 231.98px 231.98px 231.98px 231.98px ">rwxr-xr-</tspan></text><text x="550.614px" y="231.98px" style="font-family:'CourierNewPSMT', 'Courier New', monospace;font-size:8px;fill:#fff;">x</text></g><g transform="matrix(1,0,0,1,-3.45262,-60.8963)"><text x="563.607px" y="231.98px" style="font-family:'CourierNewPSMT', 'Courier New', monospace;font-size:8px;fill:#fff;">.<tspan x="568.608px 573.609px " y="231.98px 231.98px ">..</tspan></text><text x="586.61px" y="231.98px" style="font-family:'CourierNewPSMT', 'Courier New', monospace;font-size:8px;fill:#fff;">e<tspan x="591.611px 596.612px " y="231.98px 231.98px ">tc</tspan></text></g><g transform="matrix(1,0,0,1,-3.45262,-60.8963)"><text x="505.607px" y="240.98px" style="font-family:'CourierNewPSMT', 'Courier New', monospace;font-size:8px;fill:#fff;">d<tspan x="510.608px 515.609px 520.61px 525.61px 530.611px 535.612px 540.613px 545.613px " y="240.98px 240.98px 240.98px 240.98px 240.98px 240.98px 240.98px 240.98px ">rwxr-xr-</tspan></text><text x="550.614px" y="240.98px" style="font-family:'CourierNewPSMT', 'Courier New', monospace;font-size:8px;fill:#fff;">x</text></g><g transform="matrix(1,0,0,1,-3.45262,-60.8963)"><text x="563.607px" y="240.98px" style="font-family:'CourierNewPSMT', 'Courier New', monospace;font-size:8px;fill:#fff;">.<tspan x="568.608px 573.609px " y="240.98px 240.98px ">..</tspan></text><text x="586.61px" y="240.98px" style="font-family:'CourierNewPSMT', 'Courier New', monospace;font-size:8px;fill:#fff;">h<tspan x="591.611px 596.612px 601.613px " y="240.98px 240.98px 240.98px ">ome</tspan></text></g><text x="502.155px" y="190.083px" style="font-family:'CourierNewPS-BoldMT', 'Courier New', monospace;font-weight:700;font-size:8px;fill:#fff;">.</text><text x="502.155px" y="200.083px" style="font-family:'CourierNewPS-BoldMT', 'Courier New', monospace;font-weight:700;font-size:8px;fill:#fff;">.</text></g><g id="shut-down-panel-text" serif:id="shut down panel text"><text x="432.084px" y="105.313px" style="font-family:'AppleSDGothicNeo-Bold', 'Apple SD Gothic Neo';font-weight:700;font-size:16px;fill:#01a08d;">❸</text><g transform="matrix(1,0,0,1,-3.45262,-60.8963)"><text x="461.446px" y="157.378px" style="font-family:'OpenSans-Regular', 'Open Sans', sans-serif;font-size:9px;fill:#535353;">a</text><text x="466.452px" y="157.378px" style="font-family:'OpenSans-Regular', 'Open Sans', sans-serif;font-size:9px;fill:#535353;">l</text><text x="468.428px" y="157.378px" style="font-family:'OpenSans-Regular', 'Open Sans', sans-serif;font-size:9px;fill:#535353;">p</text><text x="474.443px" y="157.378px" style="font-family:'OpenSans-Regular', 'Open Sans', sans-serif;font-size:9px;fill:#535353;">i</text><text x="476.42px" y="157.378px" style="font-family:'OpenSans-Regular', 'Open Sans', sans-serif;font-size:9px;fill:#535353;">n</text><text x="482.444px" y="157.378px" style="font-family:'OpenSans-Regular', 'Open Sans', sans-serif;font-size:9px;fill:#535353;">e</text><text x="489.431px" y="157.378px" style="font-family:'OpenSans-Regular', 'Open Sans', sans-serif;font-size:9px;fill:#535353;">s</text><text x="493.424px" y="157.378px" style="font-family:'OpenSans-Regular', 'Open Sans', sans-serif;font-size:9px;fill:#535353;">h<tspan x="499.448px " y="157.378px ">u</tspan></text><text x="505.472px" y="157.378px" style="font-family:'OpenSans-Regular', 'Open Sans', sans-serif;font-size:9px;fill:#535353;">t</text><text x="508.449px" y="157.378px" style="font-family:'OpenSans-Regular', 'Open Sans', sans-serif;font-size:9px;fill:#535353;">s</text><text x="514.431px" y="157.378px" style="font-family:'OpenSans-Regular', 'Open Sans', sans-serif;font-size:9px;fill:#535353;">d</text><text x="520.446px" y="157.378px" style="font-family:'OpenSans-Regular', 'Open Sans', sans-serif;font-size:9px;fill:#535353;">o</text><text x="525.482px" y="157.378px" style="font-family:'OpenSans-Regular', 'Open Sans', sans-serif;font-size:9px;fill:#535353;">w</text><text x="532.482px" y="157.378px" style="font-family:'OpenSans-Regular', 'Open Sans', sans-serif;font-size:9px;fill:#535353;">n</text><text x="540.444px" y="157.378px" style="font-family:'OpenSans-Regular', 'Open Sans', sans-serif;font-size:9px;fill:#535353;">a</text><text x="545.45px" y="157.378px" style="font-family:'OpenSans-Regular', 'Open Sans', sans-serif;font-size:9px;fill:#535353;">n<tspan x="551.474px " y="157.378px ">d</tspan></text><text x="559.427px" y="157.378px" style="font-family:'OpenSans-Regular', 'Open Sans', sans-serif;font-size:9px;fill:#535353;"><tspan x="559.427px " y="157.378px ">o</tspan></text><text x="564.463px" y="157.378px" style="font-family:'OpenSans-Regular', 'Open Sans', sans-serif;font-size:9px;fill:#535353;">u</text><text x="570.487px" y="157.378px" style="font-family:'OpenSans-Regular', 'Open Sans', sans-serif;font-size:9px;fill:#535353;">t</text><text x="573.464px" y="157.378px" style="font-family:'OpenSans-Regular', 'Open Sans', sans-serif;font-size:9px;fill:#535353;">p<tspan x="579.479px " y="157.378px ">u</tspan></text><text x="585.503px" y="157.378px" style="font-family:'OpenSans-Regular', 'Open Sans', sans-serif;font-size:9px;fill:#535353;">t</text><text x="590.468px" y="157.378px" style="font-family:'OpenSans-Regular', 'Open Sans', sans-serif;font-size:9px;fill:#535353;">o</text><text x="595.504px" y="157.378px" style="font-family:'OpenSans-Regular', 'Open Sans', sans-serif;font-size:9px;fill:#535353;">f</text><text x="600.442px" y="157.378px" style="font-family:'CourierNewPS-BoldMT', 'Courier New', monospace;font-weight:700;font-size:9px;fill:#ef4a52;">l<tspan x="605.443px 610.443px 615.444px 620.445px " y="157.378px 157.378px 157.378px 157.378px ">s –l</tspan></text></g><g transform="matrix(1,0,0,1,-3.45262,-60.8963)"><text x="461.446px" y="168.378px" style="font-family:'OpenSans-Regular', 'Open Sans', sans-serif;font-size:9px;fill:#535353;">s</text><text x="465.44px" y="168.378px" style="font-family:'OpenSans-Regular', 'Open Sans', sans-serif;font-size:9px;fill:#535353;">e</text><text x="470.489px" y="168.378px" style="font-family:'OpenSans-Regular', 'Open Sans', sans-serif;font-size:9px;fill:#535353;">n</text><text x="476.513px" y="168.378px" style="font-family:'OpenSans-Regular', 'Open Sans', sans-serif;font-size:9px;fill:#535353;">t</text><text x="481.459px" y="168.378px" style="font-family:'OpenSans-Regular', 'Open Sans', sans-serif;font-size:9px;fill:#535353;">b</text><text x="487.474px" y="168.378px" style="font-family:'OpenSans-Regular', 'Open Sans', sans-serif;font-size:9px;fill:#535353;">a</text><text x="492.479px" y="168.378px" style="font-family:'OpenSans-Regular', 'Open Sans', sans-serif;font-size:9px;fill:#535353;">c</text><text x="496.464px" y="168.378px" style="font-family:'OpenSans-Regular', 'Open Sans', sans-serif;font-size:9px;fill:#535353;">k</text><text x="503.413px" y="168.378px" style="font-family:'OpenSans-Regular', 'Open Sans', sans-serif;font-size:9px;fill:#535353;">t</text><text x="506.39px" y="168.378px" style="font-family:'OpenSans-Regular', 'Open Sans', sans-serif;font-size:9px;fill:#535353;">o</text><text x="514.435px" y="168.378px" style="font-family:'OpenSans-Regular', 'Open Sans', sans-serif;font-size:9px;fill:#535353;">h</text><text x="520.458px" y="168.378px" style="font-family:'OpenSans-Regular', 'Open Sans', sans-serif;font-size:9px;fill:#535353;">o</text><text x="525.444px" y="168.378px" style="font-family:'OpenSans-Regular', 'Open Sans', sans-serif;font-size:9px;fill:#535353;">s</text><text x="529.438px" y="168.378px" style="font-family:'OpenSans-Regular', 'Open Sans', sans-serif;font-size:9px;fill:#535353;">t</text><text x="535.408px" y="168.378px" style="font-family:'OpenSans-Regular', 'Open Sans', sans-serif;font-size:9px;fill:#535353;"><tspan x="535.408px " y="168.378px ">O</tspan></text><text x="542.417px" y="168.378px" style="font-family:'OpenSans-Regular', 'Open Sans', sans-serif;font-size:9px;fill:#535353;">S</text></g></g><g id="alpine-container1" serif:id="alpine container"><path d="M486.808,215.726l12.155,0c0.776,0 1.293,0.449 1.293,1.121l0,10.759c0,0.672 -0.517,1.12 -1.293,1.12l-12.155,0c-0.776,0 -1.552,-0.448 -1.552,-1.12l0,-10.759c0,-0.672 0.776,-1.121 1.552,-1.121Z" style="fill:#fff;stroke:#ef4a52;stroke-width:1px;stroke-linejoin:miter;stroke-miterlimit:8;stroke-dasharray:1,1;"/><path d="M489.256,225.346l0,-6.62" style="fill:none;stroke:#ef4a52;stroke-width:1px;stroke-linecap:round;stroke-linejoin:round;stroke-dasharray:1,2,0,0;"/><path d="M491.589,225.346l0,-6.62" style="fill:none;stroke:#ef4a52;stroke-width:1px;stroke-linecap:round;stroke-linejoin:round;stroke-dasharray:1,2,0,0;"/><path d="M493.923,225.346l0,-6.62" style="fill:none;stroke:#ef4a52;stroke-width:1px;stroke-linecap:round;stroke-linejoin:round;stroke-dasharray:1,2,0,0;"/><path d="M496.256,225.346l0,-6.62" style="fill:none;stroke:#ef4a52;stroke-width:1px;stroke-linecap:round;stroke-linejoin:round;stroke-dasharray:1,2,0,0;"/></g></g><g id="title" transform="matrix(1,0,0,1,-3.45262,-60.8963)"><text x="226.25px" y="112.808px" style="font-family:'CourierNewPS-ItalicMT', 'Courier New', monospace;font-style:italic;font-size:24px;fill:#008ec0;">d<tspan x="240.252px 254.255px 268.257px 282.259px 296.262px " y="112.808px 112.808px 112.808px 112.808px 112.808px ">ocker</tspan></text><text x="327.218px" y="112.808px" style="font-family:'CourierNewPS-ItalicMT', 'Courier New', monospace;font-style:italic;font-size:24px;fill:#008ec0;">r<tspan x="341.221px 355.223px " y="112.808px 112.808px ">un</tspan></text><text x="384.204px" y="112.808px" style="font-family:'OpenSans-Regular', 'Open Sans', sans-serif;font-size:24px;fill:#008ec0;">D<tspan x="401.2px " y="112.808px ">e</tspan></text><text x="414.165px" y="112.808px" style="font-family:'OpenSans-Regular', 'Open Sans', sans-serif;font-size:24px;fill:#008ec0;">t<tspan x="422.238px " y="112.808px ">a</tspan></text><text x="435.185px" y="112.808px" style="font-family:'OpenSans-Regular', 'Open Sans', sans-serif;font-size:24px;fill:#008ec0;">il</text><text x="447.326px" y="112.808px" style="font-family:'OpenSans-Regular', 'Open Sans', sans-serif;font-size:24px;fill:#008ec0;">s</text></g><path d="M164.047,11.604l351.458,0" style="fill:none;stroke:#a7a7a7;stroke-width:1px;"/><path d="M163.047,357.604l351.458,0" style="fill:none;stroke:#a7a7a7;stroke-width:1px;"/></svg>