<?xml version="1.0" encoding="UTF-8" standalone="no"?><!DOCTYPE svg PUBLIC "-//W3C//DTD SVG 1.1//EN" "http://www.w3.org/Graphics/SVG/1.1/DTD/svg11.dtd"><svg width="100%" height="100%" viewBox="0 0 370 250" version="1.1" xmlns="http://www.w3.org/2000/svg" xmlns:xlink="http://www.w3.org/1999/xlink" xml:space="preserve" xmlns:serif="http://www.serif.com/" style="fill-rule:evenodd;clip-rule:evenodd;stroke-linejoin:bevel;stroke-miterlimit:10;"><rect id="images---layers" serif:id="images - layers" x="-29.055" y="-33.029" width="429.638" height="343.719" style="fill:none;"/><g id="title-and-bounding-lines" serif:id="title and bounding lines"><text x="97.199px" y="36.801px" style="font-family:'OpenSans-Regular', 'Open Sans', sans-serif;font-size:24px;fill:#008ec0;">L<tspan x="109.956px 123.604px 135.998px 149.762px 159.859px 171.609px 178.927px 196.747px 204.065px 219.506px 233.153px 244.879px 259.91px " y="36.801px 36.801px 36.801px 36.801px 36.801px 36.801px 36.801px 36.801px 36.801px 36.801px 36.801px 36.801px 36.801px ">ayers &amp; Cache</tspan></text><path d="M7.343,8.474l351.458,0" style="fill:none;stroke:#a7a7a7;stroke-width:1px;"/><path d="M6.343,241.474l351.458,0" style="fill:none;stroke:#a7a7a7;stroke-width:1px;"/></g><g id="hello-v0.1-container" serif:id="hello v0.1 container"><path d="M92.367,92.367c0,-1.51 -1.227,-2.736 -2.737,-2.736l-63.937,0c-1.51,0 -2.736,1.226 -2.736,2.736l0,127.656c0,1.51 1.226,2.736 2.736,2.736l63.937,0c1.51,0 2.737,-1.226 2.737,-2.736l0,-127.656Z" style="fill:none;stroke:#0095e5;stroke-width:1px;stroke-linejoin:round;stroke-miterlimit:1.5;"/><g><path d="M30.567,75.795l17.18,0c1.096,0 1.827,0.747 1.827,1.868l0,17.935c0,1.121 -0.731,1.868 -1.827,1.868l-17.18,0c-1.097,0 -2.193,-0.747 -2.193,-1.868l0,-17.935c0,-1.121 1.096,-1.868 2.193,-1.868Z" style="fill:#fff;fill-rule:nonzero;stroke:#0095e5;stroke-width:1px;stroke-linejoin:miter;stroke-miterlimit:8;"/><g><path d="M34.082,91.734l0,-10.938" style="fill:none;stroke:#0095e5;stroke-width:1px;stroke-linecap:round;stroke-linejoin:round;"/><path d="M37.343,91.734l0,-10.938" style="fill:none;stroke:#0095e5;stroke-width:1px;stroke-linecap:round;stroke-linejoin:round;"/><path d="M40.605,91.734l0,-10.938" style="fill:none;stroke:#0095e5;stroke-width:1px;stroke-linecap:round;stroke-linejoin:round;"/><path d="M43.866,91.734l0,-10.938" style="fill:none;stroke:#0095e5;stroke-width:1px;stroke-linecap:round;stroke-linejoin:round;"/></g></g><text x="38.201px" y="63.782px" style="font-family:'OpenSans-Regular', 'Open Sans', sans-serif;font-size:9px;fill:#0095e5;">hello:v0.1</text><g id="layer---alpine" serif:id="layer - alpine"><path d="M87.338,195.441c0,-1.488 -1.208,-2.697 -2.696,-2.697l-53.96,0c-1.489,0 -2.697,1.209 -2.697,2.697l0,12.732c0,1.488 1.208,2.696 2.697,2.696l53.96,0c1.488,0 2.696,-1.208 2.696,-2.696l0,-12.732Z" style="fill:#00b050;"/><text x="40.564px" y="206.366px" style="font-family:'OpenSans-Regular', 'Open Sans', sans-serif;font-size:12px;fill:#fff;">alpine</text></g><g id="layer---nodejs" serif:id="layer - nodejs"><path d="M87.338,173.388c0,-1.488 -1.208,-2.697 -2.696,-2.697l-53.96,0c-1.489,0 -2.697,1.209 -2.697,2.697l0,12.732c0,1.488 1.208,2.696 2.697,2.696l53.96,0c1.488,0 2.696,-1.208 2.696,-2.696l0,-12.732Z" style="fill:#69c;"/><text x="38.932px" y="184.312px" style="font-family:'OpenSans-Regular', 'Open Sans', sans-serif;font-size:12px;fill:#fff;">nodejs</text></g><g id="layer---nodejs-v0.1" serif:id="layer - nodejs v0.1"><path d="M27.985,109.669l59.353,0l0,48.085l-5.647,8.791l-53.706,0l0,-56.876Z" style="fill:#fff;fill-rule:nonzero;stroke:#ccc;stroke-width:1px;stroke-linejoin:round;stroke-miterlimit:1.41421;"/><path d="M81.717,166.545l-0.087,-8.83l5.708,0.039l-5.621,8.791Z" style="fill:#ccc;fill-rule:nonzero;"/><g transform="matrix(1,0,0,1,-1110.62,-1846.02)"><text x="1141.34px" y="1963.65px" style="font-family:'Hack-Regular', 'Hack', monospace;font-size:5px;fill:#808080;">va<tspan x="1147.16px 1150.07px 1152.98px 1155.89px 1158.8px " y="1963.65px 1963.65px 1963.65px 1963.65px 1963.65px ">r os </tspan>=</text><text x="1147.34px" y="1968.65px" style="font-family:'Hack-Regular', 'Hack', monospace;font-size:5px;fill:#808080;">re<tspan x="1153.16px 1156.07px 1158.98px 1161.89px 1164.8px 1167.71px 1170.62px 1173.53px 1176.44px 1179.35px 1182.26px " y="1968.65px 1968.65px 1968.65px 1968.65px 1968.65px 1968.65px 1968.65px 1968.65px 1968.65px 1968.65px 1968.65px ">quire(&quot;os&quot;)</tspan>;</text><text x="1141.34px" y="1977.65px" style="font-family:'Hack-Regular', 'Hack', monospace;font-size:5px;fill:#808080;">va<tspan x="1147.16px 1150.07px 1152.98px 1155.89px 1158.8px 1161.71px 1164.62px 1167.53px 1170.44px 1173.35px 1176.26px " y="1977.65px 1977.65px 1977.65px 1977.65px 1977.65px 1977.65px 1977.65px 1977.65px 1977.65px 1977.65px 1977.65px ">r hostname </tspan>=</text><text x="1147.34px" y="1982.65px" style="font-family:'Hack-Regular', 'Hack', monospace;font-size:5px;fill:#808080;">os<tspan x="1153.16px 1156.07px 1158.98px 1161.89px 1164.8px 1167.71px 1170.62px 1173.53px 1176.44px 1179.35px 1182.26px " y="1982.65px 1982.65px 1982.65px 1982.65px 1982.65px 1982.65px 1982.65px 1982.65px 1982.65px 1982.65px 1982.65px ">.hostname()</tspan>;</text><text x="1141.34px" y="1991.65px" style="font-family:'Hack-Regular', 'Hack', monospace;font-size:5px;fill:#808080;">co<tspan x="1147.16px 1150.07px 1152.98px 1155.89px 1158.8px 1161.71px 1164.62px 1167.53px 1170.44px 1173.35px 1176.26px 1179.17px 1182.08px 1184.99px 1187.9px " y="1991.65px 1991.65px 1991.65px 1991.65px 1991.65px 1991.65px 1991.65px 1991.65px 1991.65px 1991.65px 1991.65px 1991.65px 1991.65px 1991.65px 1991.65px ">nsole.log(&quot;hell</tspan>o</text><text x="1147.34px" y="1996.65px" style="font-family:'Hack-Regular', 'Hack', monospace;font-size:5px;fill:#808080;">fr<tspan x="1153.16px 1156.07px 1158.98px 1161.89px 1164.8px " y="1996.65px 1996.65px 1996.65px 1996.65px 1996.65px ">om &quot; </tspan>+</text><text x="1147.34px" y="2001.65px" style="font-family:'Hack-Regular', 'Hack', monospace;font-size:5px;fill:#808080;">ho<tspan x="1153.16px 1156.07px 1158.98px 1161.89px 1164.8px 1167.71px 1170.62px " y="2001.65px 2001.65px 2001.65px 2001.65px 2001.65px 2001.65px 2001.65px ">stname)</tspan>;</text></g></g></g><g id="hello-v0.2-container" serif:id="hello v0.2 container"><path d="M348.571,92.367c0,-1.51 -1.227,-2.736 -2.737,-2.736l-63.937,0c-1.51,0 -2.736,1.226 -2.736,2.736l0,127.656c0,1.51 1.226,2.736 2.736,2.736l63.937,0c1.51,0 2.737,-1.226 2.737,-2.736l0,-127.656Z" style="fill:none;stroke:#0095e5;stroke-width:1px;stroke-linejoin:round;stroke-miterlimit:1.5;"/><g><path d="M286.771,75.795l17.18,0c1.096,0 1.827,0.747 1.827,1.868l0,17.935c0,1.121 -0.731,1.868 -1.827,1.868l-17.18,0c-1.097,0 -2.193,-0.747 -2.193,-1.868l0,-17.935c0,-1.121 1.096,-1.868 2.193,-1.868Z" style="fill:#fff;fill-rule:nonzero;stroke:#0095e5;stroke-width:1px;stroke-linejoin:miter;stroke-miterlimit:8;"/><g><path d="M290.286,91.734l0,-10.938" style="fill:none;stroke:#0095e5;stroke-width:1px;stroke-linecap:round;stroke-linejoin:round;"/><path d="M293.547,91.734l0,-10.938" style="fill:none;stroke:#0095e5;stroke-width:1px;stroke-linecap:round;stroke-linejoin:round;"/><path d="M296.809,91.734l0,-10.938" style="fill:none;stroke:#0095e5;stroke-width:1px;stroke-linecap:round;stroke-linejoin:round;"/><path d="M300.07,91.734l0,-10.938" style="fill:none;stroke:#0095e5;stroke-width:1px;stroke-linecap:round;stroke-linejoin:round;"/></g></g><text x="294.405px" y="63.782px" style="font-family:'OpenSans-Regular', 'Open Sans', sans-serif;font-size:9px;fill:#0095e5;">hello:v0.2</text><g id="layer---alpine1" serif:id="layer - alpine"><path d="M343.542,195.441c0,-1.488 -1.208,-2.697 -2.696,-2.697l-53.96,0c-1.489,0 -2.697,1.209 -2.697,2.697l0,12.732c0,1.488 1.208,2.696 2.697,2.696l53.96,0c1.488,0 2.696,-1.208 2.696,-2.696l0,-12.732Z" style="fill:#00b050;"/><text x="296.768px" y="206.366px" style="font-family:'OpenSans-Regular', 'Open Sans', sans-serif;font-size:12px;fill:#fff;">alpine</text></g><g id="layer---nodejs1" serif:id="layer - nodejs"><path d="M343.542,173.388c0,-1.488 -1.208,-2.697 -2.696,-2.697l-53.96,0c-1.489,0 -2.697,1.209 -2.697,2.697l0,12.732c0,1.488 1.208,2.696 2.697,2.696l53.96,0c1.488,0 2.696,-1.208 2.696,-2.696l0,-12.732Z" style="fill:#69c;"/><text x="295.136px" y="184.312px" style="font-family:'OpenSans-Regular', 'Open Sans', sans-serif;font-size:12px;fill:#fff;">nodejs</text></g><g id="layer---nodejs-v0.11" serif:id="layer - nodejs v0.1"><path d="M284.189,100.303l59.353,0l0,56.003l-5.647,10.239l-53.706,0l0,-66.242Z" style="fill:#fff;fill-rule:nonzero;stroke:#ccc;stroke-width:1px;stroke-linejoin:round;stroke-miterlimit:1.41421;"/><path d="M337.921,166.545l-0.087,-10.284l5.708,0.045l-5.621,10.239Z" style="fill:#ccc;fill-rule:nonzero;"/><g transform="matrix(1,0,0,1,-854.414,-1855.38)"><text x="1141.34px" y="1963.65px" style="font-family:'Hack-Regular', 'Hack', monospace;font-size:5px;fill:#808080;">va<tspan x="1147.16px 1150.07px 1152.98px 1155.89px 1158.8px " y="1963.65px 1963.65px 1963.65px 1963.65px 1963.65px ">r os </tspan>=</text><text x="1147.34px" y="1968.65px" style="font-family:'Hack-Regular', 'Hack', monospace;font-size:5px;fill:#808080;">re<tspan x="1153.16px 1156.07px 1158.98px 1161.89px 1164.8px 1167.71px 1170.62px 1173.53px 1176.44px 1179.35px 1182.26px " y="1968.65px 1968.65px 1968.65px 1968.65px 1968.65px 1968.65px 1968.65px 1968.65px 1968.65px 1968.65px 1968.65px ">quire(&quot;os&quot;)</tspan>;</text><text x="1141.34px" y="1977.65px" style="font-family:'Hack-Regular', 'Hack', monospace;font-size:5px;fill:#808080;">va<tspan x="1147.16px 1150.07px 1152.98px 1155.89px 1158.8px 1161.71px 1164.62px 1167.53px 1170.44px 1173.35px 1176.26px " y="1977.65px 1977.65px 1977.65px 1977.65px 1977.65px 1977.65px 1977.65px 1977.65px 1977.65px 1977.65px 1977.65px ">r hostname </tspan>=</text><text x="1147.34px" y="1982.65px" style="font-family:'Hack-Regular', 'Hack', monospace;font-size:5px;fill:#808080;">os<tspan x="1153.16px 1156.07px 1158.98px 1161.89px 1164.8px 1167.71px 1170.62px 1173.53px 1176.44px 1179.35px 1182.26px " y="1982.65px 1982.65px 1982.65px 1982.65px 1982.65px 1982.65px 1982.65px 1982.65px 1982.65px 1982.65px 1982.65px ">.hostname()</tspan>;</text><text x="1141.34px" y="1991.65px" style="font-family:'Hack-Regular', 'Hack', monospace;font-size:5px;fill:#808080;">co<tspan x="1147.16px 1150.07px 1152.98px 1155.89px 1158.8px 1161.71px 1164.62px 1167.53px 1170.44px 1173.35px 1176.26px 1179.17px 1182.08px 1184.99px 1187.9px " y="1991.65px 1991.65px 1991.65px 1991.65px 1991.65px 1991.65px 1991.65px 1991.65px 1991.65px 1991.65px 1991.65px 1991.65px 1991.65px 1991.65px 1991.65px ">nsole.log(&quot;hell</tspan>o</text><text x="1147.34px" y="1996.65px" style="font-family:'Hack-Regular', 'Hack', monospace;font-size:5px;fill:#808080;">fr<tspan x="1153.16px 1156.07px 1158.98px 1161.89px 1164.8px " y="1996.65px 1996.65px 1996.65px 1996.65px 1996.65px ">om &quot; </tspan>+</text><text x="1147.34px" y="2001.65px" style="font-family:'Hack-Regular', 'Hack', monospace;font-size:5px;fill:#808080;">ho<tspan x="1153.16px 1156.07px 1158.98px 1161.89px 1164.8px 1167.71px 1170.62px " y="2001.65px 2001.65px 2001.65px 2001.65px 2001.65px 2001.65px 2001.65px ">stname)</tspan>;</text><text x="1141.34px" y="2010.65px" style="font-family:'Hack-Regular', 'Hack', monospace;font-size:5px;fill:#ef4a52;">co<tspan x="1147.16px 1150.07px 1152.98px 1155.89px 1158.8px 1161.71px 1164.62px 1167.53px 1170.44px 1173.35px 1176.26px 1179.17px 1182.08px 1184.99px 1187.9px " y="2010.65px 2010.65px 2010.65px 2010.65px 2010.65px 2010.65px 2010.65px 2010.65px 2010.65px 2010.65px 2010.65px 2010.65px 2010.65px 2010.65px 2010.65px ">nsole.log(\&quot;thi</tspan>s</text><text x="1147.34px" y="2015.65px" style="font-family:'Hack-Regular', 'Hack', monospace;font-size:5px;fill:#ef4a52;">is<tspan x="1153.16px 1156.07px 1158.98px 1161.89px 1164.8px 1167.71px 1170.62px " y="2015.65px 2015.65px 2015.65px 2015.65px 2015.65px 2015.65px 2015.65px "> v0.2\&quot;</tspan>)</text></g></g></g><g id="layer---nodejs-v0.12" serif:id="layer - nodejs v0.1"><path d="M156.087,100.303l59.353,0l0,56.003l-5.647,10.239l-53.706,0l0,-66.242Z" style="fill:#fff;fill-rule:nonzero;stroke:#ccc;stroke-width:1px;stroke-linejoin:round;stroke-miterlimit:1.41421;"/><path d="M209.819,166.545l-0.087,-10.284l5.708,0.045l-5.621,10.239Z" style="fill:#ccc;fill-rule:nonzero;"/><g transform="matrix(1,0,0,1,-982.516,-1855.38)"><text x="1141.34px" y="1963.65px" style="font-family:'Hack-Regular', 'Hack', monospace;font-size:5px;fill:#808080;">va<tspan x="1147.16px 1150.07px 1152.98px 1155.89px 1158.8px " y="1963.65px 1963.65px 1963.65px 1963.65px 1963.65px ">r os </tspan>=</text><text x="1147.34px" y="1968.65px" style="font-family:'Hack-Regular', 'Hack', monospace;font-size:5px;fill:#808080;">re<tspan x="1153.16px 1156.07px 1158.98px 1161.89px 1164.8px 1167.71px 1170.62px 1173.53px 1176.44px 1179.35px 1182.26px " y="1968.65px 1968.65px 1968.65px 1968.65px 1968.65px 1968.65px 1968.65px 1968.65px 1968.65px 1968.65px 1968.65px ">quire(&quot;os&quot;)</tspan>;</text><text x="1141.34px" y="1977.65px" style="font-family:'Hack-Regular', 'Hack', monospace;font-size:5px;fill:#808080;">va<tspan x="1147.16px 1150.07px 1152.98px 1155.89px 1158.8px 1161.71px 1164.62px 1167.53px 1170.44px 1173.35px 1176.26px " y="1977.65px 1977.65px 1977.65px 1977.65px 1977.65px 1977.65px 1977.65px 1977.65px 1977.65px 1977.65px 1977.65px ">r hostname </tspan>=</text><text x="1147.34px" y="1982.65px" style="font-family:'Hack-Regular', 'Hack', monospace;font-size:5px;fill:#808080;">os<tspan x="1153.16px 1156.07px 1158.98px 1161.89px 1164.8px 1167.71px 1170.62px 1173.53px 1176.44px 1179.35px 1182.26px " y="1982.65px 1982.65px 1982.65px 1982.65px 1982.65px 1982.65px 1982.65px 1982.65px 1982.65px 1982.65px 1982.65px ">.hostname()</tspan>;</text><text x="1141.34px" y="1991.65px" style="font-family:'Hack-Regular', 'Hack', monospace;font-size:5px;fill:#808080;">co<tspan x="1147.16px 1150.07px 1152.98px 1155.89px 1158.8px 1161.71px 1164.62px 1167.53px 1170.44px 1173.35px 1176.26px 1179.17px 1182.08px 1184.99px 1187.9px " y="1991.65px 1991.65px 1991.65px 1991.65px 1991.65px 1991.65px 1991.65px 1991.65px 1991.65px 1991.65px 1991.65px 1991.65px 1991.65px 1991.65px 1991.65px ">nsole.log(&quot;hell</tspan>o</text><text x="1147.34px" y="1996.65px" style="font-family:'Hack-Regular', 'Hack', monospace;font-size:5px;fill:#808080;">fr<tspan x="1153.16px 1156.07px 1158.98px 1161.89px 1164.8px " y="1996.65px 1996.65px 1996.65px 1996.65px 1996.65px ">om &quot; </tspan>+</text><text x="1147.34px" y="2001.65px" style="font-family:'Hack-Regular', 'Hack', monospace;font-size:5px;fill:#808080;">ho<tspan x="1153.16px 1156.07px 1158.98px 1161.89px 1164.8px 1167.71px 1170.62px " y="2001.65px 2001.65px 2001.65px 2001.65px 2001.65px 2001.65px 2001.65px ">stname)</tspan>;</text><text x="1141.34px" y="2010.65px" style="font-family:'Hack-Regular', 'Hack', monospace;font-size:5px;fill:#ef4a52;">co<tspan x="1147.16px 1150.07px 1152.98px 1155.89px 1158.8px 1161.71px 1164.62px 1167.53px 1170.44px 1173.35px 1176.26px 1179.17px 1182.08px 1184.99px 1187.9px " y="2010.65px 2010.65px 2010.65px 2010.65px 2010.65px 2010.65px 2010.65px 2010.65px 2010.65px 2010.65px 2010.65px 2010.65px 2010.65px 2010.65px 2010.65px ">nsole.log(\&quot;thi</tspan>s</text><text x="1147.34px" y="2015.65px" style="font-family:'Hack-Regular', 'Hack', monospace;font-size:5px;fill:#ef4a52;">is<tspan x="1153.16px 1156.07px 1158.98px 1161.89px 1164.8px 1167.71px 1170.62px " y="2015.65px 2015.65px 2015.65px 2015.65px 2015.65px 2015.65px 2015.65px "> v0.2\&quot;</tspan>)</text></g></g><g><g id="arrow"><path d="M183.801,177.922l-2.076,-3.746l4.133,0.031l-2.057,3.715Z" style="fill:#ef4a52;"/><path d="M183.791,167.317l0,7.744" style="fill:none;stroke:#ef4a52;stroke-width:1px;stroke-linejoin:round;stroke-miterlimit:1.5;"/></g><g id="x"><path d="M188.028,183.196l0.532,-0.865l-9.005,-4.88l-0.532,0.866l9.005,4.879Z" style="fill:#ef4a52;"/><path d="M179.023,182.331l0.532,0.865l9.005,-4.879l-0.532,-0.866l-9.005,4.88Z" style="fill:#ef4a52;"/></g></g><g id="arrow1" serif:id="arrow"><path d="M284.259,133.428l-3.991,2.076l0.033,-4.134l3.958,2.058Z" style="fill:#06d7bf;"/><path d="M218.389,133.437l62.454,0" style="fill:none;stroke:#06d7bf;stroke-width:1px;stroke-linejoin:round;stroke-miterlimit:1.5;"/></g><path d="M105.511,197.23c-2.371,4.107 -6.752,6.637 -11.494,6.637c3.919,-2.057 7.101,-7.297 7.101,-13.273c0,-5.977 -3.182,-11.216 -7.101,-13.273c4.742,0 9.123,2.53 11.494,6.636l158.727,0l0,-6.636l13.273,13.273l-13.273,13.273l0,-6.637l-158.727,0Z" style="fill:#06d7bf;"/><text x="168.698px" y="194.393px" style="font-family:'OpenSans-Bold', 'Open Sans', sans-serif;font-weight:700;font-size:10px;fill:#fff;">c<tspan x="173.639px 179.479px 184.421px 190.793px 196.502px " y="194.393px 194.393px 194.393px 194.393px 194.393px ">ached</tspan></text></svg>