<?xml version="1.0" encoding="UTF-8" standalone="no"?><!DOCTYPE svg PUBLIC "-//W3C//DTD SVG 1.1//EN" "http://www.w3.org/Graphics/SVG/1.1/DTD/svg11.dtd"><svg width="100%" height="100%" viewBox="0 0 370 287" version="1.1" xmlns="http://www.w3.org/2000/svg" xmlns:xlink="http://www.w3.org/1999/xlink" xml:space="preserve" xmlns:serif="http://www.serif.com/" style="fill-rule:evenodd;clip-rule:evenodd;stroke-linejoin:bevel;stroke-miterlimit:10;"><rect id="Basics---Isolation" serif:id="Basics - Isolation" x="-30.478" y="-38.988" width="429.638" height="343.719" style="fill:none;"/><g id="Title" transform="matrix(1,0,0,1,-157.919,-73.2794)"><text x="194.25px" y="113.808px" style="font-family:'OpenSans-Regular', 'Open Sans', sans-serif;font-size:24px;fill:#008ec0;">D<tspan x="211.246px " y="113.808px ">o</tspan></text><text x="225.242px" y="113.808px" style="font-family:'OpenSans-Regular', 'Open Sans', sans-serif;font-size:24px;fill:#008ec0;">c</text><text x="236.268px" y="113.808px" style="font-family:'OpenSans-Regular', 'Open Sans', sans-serif;font-size:24px;fill:#008ec0;">k</text><text x="249.235px" y="113.808px" style="font-family:'OpenSans-Regular', 'Open Sans', sans-serif;font-size:24px;fill:#008ec0;">e</text><text x="262.2px" y="113.808px" style="font-family:'OpenSans-Regular', 'Open Sans', sans-serif;font-size:24px;fill:#008ec0;">r</text><text x="280.211px" y="113.808px" style="font-family:'OpenSans-Regular', 'Open Sans', sans-serif;font-size:24px;fill:#008ec0;">C</text><text x="295.252px" y="113.808px" style="font-family:'OpenSans-Regular', 'Open Sans', sans-serif;font-size:24px;fill:#008ec0;">o</text><text x="309.248px" y="113.808px" style="font-family:'OpenSans-Regular', 'Open Sans', sans-serif;font-size:24px;fill:#008ec0;">n</text><text x="324.279px" y="113.808px" style="font-family:'OpenSans-Regular', 'Open Sans', sans-serif;font-size:24px;fill:#008ec0;">t</text><text x="332.251px" y="113.808px" style="font-family:'OpenSans-Regular', 'Open Sans', sans-serif;font-size:24px;fill:#008ec0;">a</text><text x="345.199px" y="113.808px" style="font-family:'OpenSans-Regular', 'Open Sans', sans-serif;font-size:24px;fill:#008ec0;">i</text><text x="351.169px" y="113.808px" style="font-family:'OpenSans-Regular', 'Open Sans', sans-serif;font-size:24px;fill:#008ec0;">n</text><text x="366.2px" y="113.808px" style="font-family:'OpenSans-Regular', 'Open Sans', sans-serif;font-size:24px;fill:#008ec0;">e</text><text x="379.165px" y="113.808px" style="font-family:'OpenSans-Regular', 'Open Sans', sans-serif;font-size:24px;fill:#008ec0;">r</text><text x="396.224px" y="113.808px" style="font-family:'OpenSans-Regular', 'Open Sans', sans-serif;font-size:24px;fill:#008ec0;">I</text><text x="403.215px" y="113.808px" style="font-family:'OpenSans-Regular', 'Open Sans', sans-serif;font-size:24px;fill:#008ec0;">s<tspan x="414.165px " y="113.808px ">o</tspan></text><text x="428.161px" y="113.808px" style="font-family:'OpenSans-Regular', 'Open Sans', sans-serif;font-size:24px;fill:#008ec0;">l</text><text x="434.131px" y="113.808px" style="font-family:'OpenSans-Regular', 'Open Sans', sans-serif;font-size:24px;fill:#008ec0;">a</text><text x="447.179px" y="113.808px" style="font-family:'OpenSans-Regular', 'Open Sans', sans-serif;font-size:24px;fill:#008ec0;">t</text><text x="455.151px" y="113.808px" style="font-family:'OpenSans-Regular', 'Open Sans', sans-serif;font-size:24px;fill:#008ec0;">i</text><text x="461.122px" y="113.808px" style="font-family:'OpenSans-Regular', 'Open Sans', sans-serif;font-size:24px;fill:#008ec0;">o</text><text x="475.118px" y="113.808px" style="font-family:'OpenSans-Regular', 'Open Sans', sans-serif;font-size:24px;fill:#008ec0;">n</text></g><g id="bounding-lines" serif:id="bounding lines"><path d="M9.604,9.674l351.458,0" style="fill:none;stroke:#a7a7a7;stroke-width:1px;"/><path d="M8.604,278.307l351.458,0" style="fill:none;stroke:#a7a7a7;stroke-width:1px;"/></g><g><path d="M219.36,232.827c-0.414,0 -0.736,0.312 -0.736,0.713c0,0.401 0.322,0.712 0.736,0.712c0.415,0 0.737,-0.311 0.737,-0.712c0,-0.401 -0.322,-0.713 -0.737,-0.713Zm-0.092,0.713c0,-0.045 0.046,-0.09 0.092,-0.09c0.046,0 0.092,0.045 0.092,0.09c0,0.133 -0.184,0.133 -0.184,0Zm14.181,-0.401l-5.617,0c-0.23,0 -0.415,0.178 -0.415,0.401c0,0.222 0.185,0.401 0.415,0.401l5.617,0c0.23,0 0.414,-0.179 0.414,-0.401c0,-0.223 -0.184,-0.401 -0.414,-0.401Zm-11.004,6.325c-0.415,0 -0.737,0.312 -0.737,0.713c0,0.401 0.322,0.713 0.737,0.713c0.414,0 0.737,-0.312 0.737,-0.713c0,-0.401 -0.323,-0.713 -0.737,-0.713Zm-0.092,0.713c0,-0.089 0.046,-0.134 0.092,-0.134c0.092,0 0.138,0.045 0.138,0.134c0,0.089 -0.23,0.089 -0.23,0Zm11.096,-0.445l-5.617,0c-0.23,0 -0.415,0.222 -0.415,0.445c0,0.223 0.185,0.401 0.415,0.401l5.617,0c0.23,0 0.414,-0.178 0.414,-0.401c0,-0.223 -0.184,-0.445 -0.414,-0.445Zm-11.004,-6.905c-0.415,0 -0.737,0.312 -0.737,0.713c0,0.401 0.322,0.712 0.737,0.712c0.414,0 0.737,-0.311 0.737,-0.712c0,-0.401 -0.323,-0.713 -0.737,-0.713Zm-0.092,0.713c0,-0.045 0.046,-0.09 0.092,-0.09c0.092,0 0.138,0.045 0.138,0.09c0,0.133 -0.23,0.133 -0.23,0Zm-6.078,-0.713c-0.414,0 -0.736,0.312 -0.736,0.713c0,0.401 0.322,0.712 0.736,0.712c0.415,0 0.737,-0.311 0.737,-0.712c0,-0.401 -0.322,-0.713 -0.737,-0.713Zm-0.092,0.713c0,-0.045 0.046,-0.09 0.092,-0.09c0.047,0 0.093,0.045 0.093,0.09c0,0.133 -0.185,0.133 -0.185,0Zm3.177,5.924c-0.414,0 -0.736,0.312 -0.736,0.713c0,0.401 0.322,0.713 0.736,0.713c0.415,0 0.737,-0.312 0.737,-0.713c0,-0.401 -0.322,-0.713 -0.737,-0.713Zm-0.092,0.713c0,-0.089 0.046,-0.134 0.092,-0.134c0.046,0 0.092,0.045 0.092,0.134c0,0.089 -0.184,0.089 -0.184,0Zm-2.993,-0.713c-0.414,0 -0.736,0.312 -0.736,0.713c0,0.401 0.322,0.713 0.736,0.713c0.415,0 0.737,-0.312 0.737,-0.713c0,-0.401 -0.322,-0.713 -0.737,-0.713Zm-0.092,0.713c0,-0.089 0.046,-0.134 0.092,-0.134c0.047,0 0.093,0.045 0.093,0.134c0,0.089 -0.185,0.089 -0.185,0Zm6.262,-20.581c-0.415,0 -0.737,0.312 -0.737,0.713c0,0.401 0.322,0.713 0.737,0.713c0.414,0 0.737,-0.312 0.737,-0.713c0,-0.401 -0.323,-0.713 -0.737,-0.713Zm-0.092,0.713c0,-0.044 0.046,-0.089 0.092,-0.089c0.092,0 0.138,0.045 0.138,0.089c0,0.134 -0.23,0.134 -0.23,0Zm-2.993,-0.713c-0.414,0 -0.736,0.312 -0.736,0.713c0,0.401 0.322,0.713 0.736,0.713c0.415,0 0.737,-0.312 0.737,-0.713c0,-0.401 -0.322,-0.713 -0.737,-0.713Zm-0.092,0.713c0,-0.044 0.046,-0.089 0.092,-0.089c0.046,0 0.092,0.045 0.092,0.089c0,0.134 -0.184,0.134 -0.184,0Zm14.181,-0.401l-5.617,0c-0.23,0 -0.415,0.179 -0.415,0.401c0,0.223 0.185,0.401 0.415,0.401l5.617,0c0.23,0 0.414,-0.178 0.414,-0.401c0,-0.222 -0.184,-0.401 -0.414,-0.401Zm3.13,-1.96c0,-0.757 -0.644,-1.381 -1.427,-1.381l-22.145,0c-0.783,0 -1.428,0.624 -1.428,1.381l0,4.722c0,0.357 0.138,0.713 0.415,0.936c-0.277,0.267 -0.415,0.579 -0.415,0.98l0,4.677c0,0.401 0.138,0.713 0.415,0.98c-0.277,0.223 -0.415,0.579 -0.415,0.936l0,4.722c0,0.356 0.138,0.712 0.415,0.935c-0.277,0.267 -0.415,0.624 -0.415,0.98l0,4.678c0,0.757 0.645,1.381 1.428,1.381l1.703,0l0,0.891c0,0.445 0.368,0.801 0.829,0.801l3.407,0c0.506,0 0.875,-0.356 0.875,-0.801l0,-0.891l7.965,0l0,0.891c0,0.445 0.368,0.801 0.874,0.801l3.407,0c0.461,0 0.829,-0.356 0.829,-0.801l0,-0.891l2.256,0c0.783,0 1.427,-0.624 1.427,-1.381l0,-4.678c0,-0.356 -0.184,-0.713 -0.414,-0.98c0.23,-0.223 0.414,-0.579 0.414,-0.935l0,-4.722c0,-0.357 -0.184,-0.713 -0.414,-0.936c0.23,-0.267 0.414,-0.579 0.414,-0.98l0,-4.677c0,-0.401 -0.184,-0.713 -0.414,-0.98c0.23,-0.223 0.414,-0.579 0.414,-0.936l0,-4.722Zm-17.633,26.818l-3.407,0l0,-0.891l3.407,0l0,0.891Zm13.121,0l-3.407,0l0,-0.891l3.407,0l0,0.891Zm3.638,-2.272c0,0.311 -0.231,0.579 -0.553,0.579l-22.145,0c-0.323,0 -0.599,-0.268 -0.599,-0.579l0,-4.678c0,-0.312 0.276,-0.534 0.599,-0.534l22.145,0c0.322,0 0.553,0.222 0.553,0.534l0,4.678Zm0,-6.593c0,0.312 -0.231,0.534 -0.553,0.534l-22.145,0c-0.323,0 -0.599,-0.222 -0.599,-0.534l0,-4.722c0,-0.268 0.276,-0.535 0.599,-0.535l22.145,0c0.322,0 0.553,0.267 0.553,0.535l0,4.722Zm0,-6.638c0,0.312 -0.231,0.579 -0.553,0.579l-22.145,0c-0.323,0 -0.599,-0.267 -0.599,-0.579l0,-4.677c0,-0.312 0.276,-0.579 0.599,-0.579l22.145,0c0.322,0 0.553,0.267 0.553,0.579l0,4.677Zm0,-6.593c0,0.268 -0.231,0.535 -0.553,0.535l-22.145,0c-0.323,0 -0.599,-0.267 -0.599,-0.535l0,-4.722c0,-0.312 0.276,-0.534 0.599,-0.534l22.145,0c0.322,0 0.553,0.222 0.553,0.534l0,4.722Zm-16.345,3.519c-0.414,0 -0.736,0.357 -0.736,0.713c0,0.401 0.322,0.757 0.736,0.757c0.415,0 0.737,-0.356 0.737,-0.757c0,-0.356 -0.322,-0.713 -0.737,-0.713Zm-0.092,0.713c0,-0.044 0.046,-0.089 0.092,-0.089c0.046,0 0.092,0.045 0.092,0.089c0,0.134 -0.184,0.134 -0.184,0Zm-2.993,-0.713c-0.414,0 -0.736,0.357 -0.736,0.713c0,0.401 0.322,0.757 0.736,0.757c0.415,0 0.737,-0.356 0.737,-0.757c0,-0.356 -0.322,-0.713 -0.737,-0.713Zm-0.092,0.713c0,-0.044 0.046,-0.089 0.092,-0.089c0.047,0 0.093,0.045 0.093,0.089c0,0.134 -0.185,0.134 -0.185,0Zm6.262,-0.713c-0.415,0 -0.737,0.357 -0.737,0.713c0,0.401 0.322,0.757 0.737,0.757c0.414,0 0.737,-0.356 0.737,-0.757c0,-0.356 -0.323,-0.713 -0.737,-0.713Zm-0.092,0.713c0,-0.044 0.046,-0.089 0.092,-0.089c0.092,0 0.138,0.045 0.138,0.089c0,0.134 -0.23,0.134 -0.23,0Zm11.096,-0.401l-5.617,0c-0.23,0 -0.415,0.178 -0.415,0.401c0,0.267 0.185,0.446 0.415,0.446l5.617,0c0.23,0 0.414,-0.179 0.414,-0.446c0,-0.223 -0.184,-0.401 -0.414,-0.401Zm-17.174,-6.905c-0.414,0 -0.736,0.312 -0.736,0.713c0,0.401 0.322,0.713 0.736,0.713c0.415,0 0.737,-0.312 0.737,-0.713c0,-0.401 -0.322,-0.713 -0.737,-0.713Zm-0.092,0.713c0,-0.044 0.046,-0.089 0.092,-0.089c0.047,0 0.093,0.045 0.093,0.089c0,0.134 -0.185,0.134 -0.185,0Z" style="fill:#394e55;"/><rect x="213.579" y="221.567" width="21" height="14" style="fill:#fff;"/><path d="M226.342,227.476l1.993,0l0,-1.707l-1.993,0l0,1.707Zm-2.259,0l1.993,0l0,-1.707l-1.993,0l0,1.707Zm-2.259,0l1.86,0l0,-1.707l-1.86,0l0,1.707Zm-2.392,0l1.994,0l0,-1.707l-1.994,0l0,1.707Zm-2.258,0l1.993,0l0,-1.707l-1.993,0l0,1.707Zm2.258,-2.101l1.994,0l0,-1.707l-1.994,0l0,1.707Zm2.392,0l1.86,0l0,-1.707l-1.86,0l0,1.707Zm2.259,0l1.993,0l0,-1.707l-1.993,0l0,1.707Zm0,-2.101l1.993,0l0,-1.707l-1.993,0l0,1.707Zm10.098,3.283c-0.399,-0.394 -1.329,-0.394 -2.126,-0.262c-0.133,-0.788 -0.532,-1.313 -1.196,-1.839l-0.398,-0.394l-0.266,0.526c-0.399,0.525 -0.532,1.181 -0.532,1.838c0,0.263 0.133,0.788 0.399,1.182c-0.266,0.131 -0.797,0.262 -1.462,0.262l-12.755,0l-0.133,0.132c-0.133,0.656 -0.133,2.889 1.329,4.596c1.196,1.313 2.79,1.969 4.916,1.969c4.65,0 8.105,-2.101 9.699,-6.04c0.665,0 1.993,0 2.658,-1.313c0,0 0.132,-0.131 0.265,-0.263l0,-0.131l-0.398,-0.263Z" style="fill:#1aaaf8;"/></g><g><path d="M183.579,174.754c0,-0.655 0.532,-1.187 1.187,-1.187l78.627,0c0.655,0 1.186,0.532 1.186,1.187l0,16.627c0,0.655 -0.531,1.186 -1.186,1.186l-78.627,0c-0.655,0 -1.187,-0.531 -1.187,-1.186l0,-16.627Z" style="fill:#0095e5;fill-rule:nonzero;"/><g transform="matrix(1,0,0,1,-150.421,-84.4326)"><text x="340.823px" y="271.282px" style="font-family:'ArialMT', 'Arial', sans-serif;font-size:10px;fill:#fff;">D</text><text x="347.845px" y="271.282px" style="font-family:'ArialMT', 'Arial', sans-serif;font-size:10px;fill:#fff;">o</text><text x="353.806px" y="271.282px" style="font-family:'ArialMT', 'Arial', sans-serif;font-size:10px;fill:#fff;">ck</text><text x="363.806px" y="271.282px" style="font-family:'ArialMT', 'Arial', sans-serif;font-size:10px;fill:#fff;">e</text><text x="369.768px" y="271.282px" style="font-family:'ArialMT', 'Arial', sans-serif;font-size:10px;fill:#fff;">r</text><text x="374.826px" y="271.282px" style="font-family:'ArialMT', 'Arial', sans-serif;font-size:10px;fill:#fff;">E</text><text x="381.846px" y="271.282px" style="font-family:'ArialMT', 'Arial', sans-serif;font-size:10px;fill:#fff;">n<tspan x="387.808px " y="271.282px ">g</tspan></text><text x="393.769px" y="271.282px" style="font-family:'ArialMT', 'Arial', sans-serif;font-size:10px;fill:#fff;">i</text><text x="395.841px" y="271.282px" style="font-family:'ArialMT', 'Arial', sans-serif;font-size:10px;fill:#fff;">n</text><text x="401.802px" y="271.282px" style="font-family:'ArialMT', 'Arial', sans-serif;font-size:10px;fill:#fff;">e</text></g></g><g><path d="M183.579,196.629c0,-0.586 0.476,-1.062 1.062,-1.062l78.877,0c0.586,0 1.061,0.476 1.061,1.062l0,14.877c0,0.586 -0.475,1.061 -1.061,1.061l-78.877,0c-0.586,0 -1.062,-0.475 -1.062,-1.061l0,-14.877Z" style="fill:#004a72;fill-rule:nonzero;"/><g transform="matrix(1,0,0,1,-150.421,-84.4326)"><text x="361.823px" y="292.566px" style="font-family:'ArialMT', 'Arial', sans-serif;font-size:10px;fill:#fff;">L</text><text x="367.785px" y="292.566px" style="font-family:'ArialMT', 'Arial', sans-serif;font-size:10px;fill:#fff;">i</text><text x="369.806px" y="292.566px" style="font-family:'ArialMT', 'Arial', sans-serif;font-size:10px;fill:#fff;">n<tspan x="375.768px " y="292.566px ">u</tspan></text><text x="381.729px" y="292.566px" style="font-family:'ArialMT', 'Arial', sans-serif;font-size:10px;fill:#fff;">x</text></g></g><g id="hello-world-image" serif:id="hello-world image"><path d="M294.769,221.067l21.069,0c1.345,0 2.241,0.897 2.241,2.242l0,21.517c0,1.345 -0.896,2.241 -2.241,2.241l-21.069,0c-1.345,0 -2.69,-0.896 -2.69,-2.241l0,-21.517c0,-1.345 1.345,-2.242 2.69,-2.242Z" style="fill:none;stroke:#ef4a52;stroke-width:1px;stroke-linejoin:miter;stroke-miterlimit:8;"/><path d="M299.079,240.19l0,-13.123" style="fill:none;stroke:#ef4a52;stroke-width:1px;stroke-linecap:round;stroke-linejoin:round;"/><path d="M303.079,240.19l0,-13.123" style="fill:none;stroke:#ef4a52;stroke-width:1px;stroke-linecap:round;stroke-linejoin:round;"/><path d="M307.079,240.19l0,-13.123" style="fill:none;stroke:#ef4a52;stroke-width:1px;stroke-linecap:round;stroke-linejoin:round;"/><path d="M311.079,240.19l0,-13.123" style="fill:none;stroke:#ef4a52;stroke-width:1px;stroke-linecap:round;stroke-linejoin:round;"/><text x="277.256px" y="256.985px" style="font-family:'CourierNewPS-BoldMT', 'Courier New', monospace;font-weight:700;font-size:9px;fill:#ef4a52;">h<tspan x="282.257px 287.258px 292.259px 297.259px 302.26px 307.261px 312.262px 317.263px 322.264px 327.265px " y="256.985px 256.985px 256.985px 256.985px 256.985px 256.985px 256.985px 256.985px 256.985px 256.985px ">ello-world</tspan></text></g><g id="alpine-image" serif:id="alpine image"><path d="M134.769,222.067l21.069,0c1.345,0 2.241,0.897 2.241,2.242l0,21.517c0,1.345 -0.896,2.241 -2.241,2.241l-21.069,0c-1.345,0 -2.69,-0.896 -2.69,-2.241l0,-21.517c0,-1.345 1.345,-2.242 2.69,-2.242Z" style="fill:none;stroke:#00b050;stroke-width:1px;stroke-linejoin:miter;stroke-miterlimit:8;"/><path d="M139.079,241.19l0,-13.123" style="fill:none;stroke:#00b050;stroke-width:1px;stroke-linecap:round;stroke-linejoin:round;"/><path d="M143.079,241.19l0,-13.123" style="fill:none;stroke:#00b050;stroke-width:1px;stroke-linecap:round;stroke-linejoin:round;"/><path d="M147.079,241.19l0,-13.123" style="fill:none;stroke:#00b050;stroke-width:1px;stroke-linecap:round;stroke-linejoin:round;"/><path d="M151.079,241.19l0,-13.123" style="fill:none;stroke:#00b050;stroke-width:1px;stroke-linecap:round;stroke-linejoin:round;"/><text x="129.899px" y="256.117px" style="font-family:'CourierNewPS-BoldMT', 'Courier New', monospace;font-weight:700;font-size:9px;fill:#00b050;">a<tspan x="134.9px 139.901px 144.901px 149.902px 154.903px " y="256.117px 256.117px 256.117px 256.117px 256.117px ">lpine</tspan></text></g><g id="alpine-container-1" serif:id="alpine container 1"><path d="M102.079,90.626c0,-1.413 1.146,-2.559 2.559,-2.559l53.883,0c1.413,0 2.558,1.146 2.558,2.559l0,46.883c0,1.413 -1.145,2.558 -2.558,2.558l-53.883,0c-1.413,0 -2.559,-1.145 -2.559,-2.558l0,-46.883Z" style="fill:none;stroke:#75a0af;stroke-width:1px;stroke-linejoin:round;stroke-dasharray:1,1;"/><rect x="103.579" y="108.567" width="56" height="18" style="fill:#171717;"/><path d="M124.441,133.067l14.587,0c0.931,0 1.551,0.621 1.551,1.552l0,14.897c0,0.931 -0.62,1.551 -1.551,1.551l-14.587,0c-0.931,0 -1.862,-0.62 -1.862,-1.551l0,-14.897c0,-0.931 0.931,-1.552 1.862,-1.552Z" style="fill:#fff;stroke:#00b050;stroke-width:1px;stroke-linejoin:miter;stroke-miterlimit:8;stroke-dasharray:3,1;"/><g><path d="M127.579,138.63c-0.276,0 -0.5,-0.224 -0.5,-0.5l0,-0.001c0,-0.276 0.224,-0.5 0.5,-0.5c0.277,0 0.5,0.224 0.5,0.5l0,0.001c0,0.276 -0.223,0.5 -0.5,0.5Zm0,2.001c-0.276,0 -0.5,-0.224 -0.5,-0.5l0,-0.001c0,-0.276 0.224,-0.5 0.5,-0.5c0.277,0 0.5,0.224 0.5,0.5l0,0.001c0,0.276 -0.223,0.5 -0.5,0.5Zm0,2.001c-0.276,0 -0.5,-0.224 -0.5,-0.5l0,-0.001c0,-0.276 0.224,-0.5 0.5,-0.5c0.277,0 0.5,0.224 0.5,0.5l0,0.001c0,0.276 -0.223,0.5 -0.5,0.5Zm0,2.001c-0.276,0 -0.5,-0.224 -0.5,-0.5l0,-0.001c0,-0.276 0.224,-0.5 0.5,-0.5c0.277,0 0.5,0.224 0.5,0.5l0,0.001c0,0.276 -0.223,0.5 -0.5,0.5Zm0,2.001c-0.276,0 -0.5,-0.224 -0.5,-0.5l0,-0.001c0,-0.276 0.224,-0.5 0.5,-0.5c0.277,0 0.5,0.224 0.5,0.5l0,0.001c0,0.276 -0.223,0.5 -0.5,0.5Z" style="fill:#00b050;fill-rule:nonzero;"/><path d="M130.246,138.63c-0.276,0 -0.5,-0.224 -0.5,-0.5l0,-0.001c0,-0.276 0.224,-0.5 0.5,-0.5c0.276,0 0.5,0.224 0.5,0.5l0,0.001c0,0.276 -0.224,0.5 -0.5,0.5Zm0,2.001c-0.276,0 -0.5,-0.224 -0.5,-0.5l0,-0.001c0,-0.276 0.224,-0.5 0.5,-0.5c0.276,0 0.5,0.224 0.5,0.5l0,0.001c0,0.276 -0.224,0.5 -0.5,0.5Zm0,2.001c-0.276,0 -0.5,-0.224 -0.5,-0.5l0,-0.001c0,-0.276 0.224,-0.5 0.5,-0.5c0.276,0 0.5,0.224 0.5,0.5l0,0.001c0,0.276 -0.224,0.5 -0.5,0.5Zm0,2.001c-0.276,0 -0.5,-0.224 -0.5,-0.5l0,-0.001c0,-0.276 0.224,-0.5 0.5,-0.5c0.276,0 0.5,0.224 0.5,0.5l0,0.001c0,0.276 -0.224,0.5 -0.5,0.5Zm0,2.001c-0.276,0 -0.5,-0.224 -0.5,-0.5l0,-0.001c0,-0.276 0.224,-0.5 0.5,-0.5c0.276,0 0.5,0.224 0.5,0.5l0,0.001c0,0.276 -0.224,0.5 -0.5,0.5Z" style="fill:#00b050;fill-rule:nonzero;"/><path d="M132.913,138.63c-0.276,0 -0.5,-0.224 -0.5,-0.5l0,-0.001c0,-0.276 0.224,-0.5 0.5,-0.5c0.276,0 0.5,0.224 0.5,0.5l0,0.001c0,0.276 -0.224,0.5 -0.5,0.5Zm0,2.001c-0.276,0 -0.5,-0.224 -0.5,-0.5l0,-0.001c0,-0.276 0.224,-0.5 0.5,-0.5c0.276,0 0.5,0.224 0.5,0.5l0,0.001c0,0.276 -0.224,0.5 -0.5,0.5Zm0,2.001c-0.276,0 -0.5,-0.224 -0.5,-0.5l0,-0.001c0,-0.276 0.224,-0.5 0.5,-0.5c0.276,0 0.5,0.224 0.5,0.5l0,0.001c0,0.276 -0.224,0.5 -0.5,0.5Zm0,2.001c-0.276,0 -0.5,-0.224 -0.5,-0.5l0,-0.001c0,-0.276 0.224,-0.5 0.5,-0.5c0.276,0 0.5,0.224 0.5,0.5l0,0.001c0,0.276 -0.224,0.5 -0.5,0.5Zm0,2.001c-0.276,0 -0.5,-0.224 -0.5,-0.5l0,-0.001c0,-0.276 0.224,-0.5 0.5,-0.5c0.276,0 0.5,0.224 0.5,0.5l0,0.001c0,0.276 -0.224,0.5 -0.5,0.5Z" style="fill:#00b050;fill-rule:nonzero;"/><path d="M135.579,138.63c-0.276,0 -0.5,-0.224 -0.5,-0.5l0,-0.001c0,-0.276 0.224,-0.5 0.5,-0.5c0.277,0 0.5,0.224 0.5,0.5l0,0.001c0,0.276 -0.223,0.5 -0.5,0.5Zm0,2.001c-0.276,0 -0.5,-0.224 -0.5,-0.5l0,-0.001c0,-0.276 0.224,-0.5 0.5,-0.5c0.277,0 0.5,0.224 0.5,0.5l0,0.001c0,0.276 -0.223,0.5 -0.5,0.5Zm0,2.001c-0.276,0 -0.5,-0.224 -0.5,-0.5l0,-0.001c0,-0.276 0.224,-0.5 0.5,-0.5c0.277,0 0.5,0.224 0.5,0.5l0,0.001c0,0.276 -0.223,0.5 -0.5,0.5Zm0,2.001c-0.276,0 -0.5,-0.224 -0.5,-0.5l0,-0.001c0,-0.276 0.224,-0.5 0.5,-0.5c0.277,0 0.5,0.224 0.5,0.5l0,0.001c0,0.276 -0.223,0.5 -0.5,0.5Zm0,2.001c-0.276,0 -0.5,-0.224 -0.5,-0.5l0,-0.001c0,-0.276 0.224,-0.5 0.5,-0.5c0.277,0 0.5,0.224 0.5,0.5l0,0.001c0,0.276 -0.223,0.5 -0.5,0.5Z" style="fill:#00b050;fill-rule:nonzero;"/></g><g transform="matrix(1,0,0,1,-149.296,-84.4326)"><text x="265.429px" y="184.047px" style="font-family:'OpenSans-Bold', 'Open Sans', sans-serif;font-weight:700;font-size:10px;fill:#00b050;">al</text><text x="274.521px" y="184.047px" style="font-family:'OpenSans-Bold', 'Open Sans', sans-serif;font-weight:700;font-size:10px;fill:#00b050;">p</text><text x="280.449px" y="184.047px" style="font-family:'OpenSans-Bold', 'Open Sans', sans-serif;font-weight:700;font-size:10px;fill:#00b050;">i</text><text x="283.5px" y="184.047px" style="font-family:'OpenSans-Bold', 'Open Sans', sans-serif;font-weight:700;font-size:10px;fill:#00b050;">n</text><text x="290.423px" y="184.047px" style="font-family:'OpenSans-Bold', 'Open Sans', sans-serif;font-weight:700;font-size:10px;fill:#00b050;">e</text></g><text x="116.577px" y="120.692px" style="font-family:'CourierNewPS-BoldMT', 'Courier New', monospace;font-weight:700;font-size:10px;fill:#fff;">ls –l</text><g transform="matrix(1,0,0,1,-147.566,-84.4326)"><text x="260.57px" y="166.368px" style="font-family:'CourierNewPS-BoldMT', 'Courier New', monospace;font-weight:700;font-size:6px;fill:#535353;">E<tspan x="264.571px 268.571px 272.572px 276.573px 280.573px " y="166.368px 166.368px 166.368px 166.368px 166.368px ">xited</tspan></text><text x="287.574px" y="166.368px" style="font-family:'CourierNewPS-BoldMT', 'Courier New', monospace;font-weight:700;font-size:6px;fill:#535353;">(<tspan x="291.575px " y="166.368px ">0</tspan></text><text x="295.575px" y="166.368px" style="font-family:'CourierNewPS-BoldMT', 'Courier New', monospace;font-weight:700;font-size:6px;fill:#535353;">)</text></g></g><g id="alpine-container-3" serif:id="alpine container 3"><path d="M236.079,90.626c0,-1.413 1.146,-2.559 2.559,-2.559l53.883,0c1.413,0 2.558,1.146 2.558,2.559l0,46.883c0,1.413 -1.145,2.558 -2.558,2.558l-53.883,0c-1.413,0 -2.559,-1.145 -2.559,-2.558l0,-46.883Z" style="fill:none;stroke:#75a0af;stroke-width:1px;stroke-linejoin:round;stroke-dasharray:1,1;"/><rect x="237.579" y="108.567" width="56" height="18" style="fill:#171717;"/><path d="M258.441,133.067l14.587,0c0.931,0 1.551,0.621 1.551,1.552l0,14.897c0,0.931 -0.62,1.551 -1.551,1.551l-14.587,0c-0.931,0 -1.862,-0.62 -1.862,-1.551l0,-14.897c0,-0.931 0.931,-1.552 1.862,-1.552Z" style="fill:#fff;stroke:#00b050;stroke-width:1px;stroke-linejoin:miter;stroke-miterlimit:8;stroke-dasharray:3,1;"/><g><path d="M261.579,138.63c-0.276,0 -0.5,-0.224 -0.5,-0.5l0,-0.001c0,-0.276 0.224,-0.5 0.5,-0.5c0.277,0 0.5,0.224 0.5,0.5l0,0.001c0,0.276 -0.223,0.5 -0.5,0.5Zm0,2.001c-0.276,0 -0.5,-0.224 -0.5,-0.5l0,-0.001c0,-0.276 0.224,-0.5 0.5,-0.5c0.277,0 0.5,0.224 0.5,0.5l0,0.001c0,0.276 -0.223,0.5 -0.5,0.5Zm0,2.001c-0.276,0 -0.5,-0.224 -0.5,-0.5l0,-0.001c0,-0.276 0.224,-0.5 0.5,-0.5c0.277,0 0.5,0.224 0.5,0.5l0,0.001c0,0.276 -0.223,0.5 -0.5,0.5Zm0,2.001c-0.276,0 -0.5,-0.224 -0.5,-0.5l0,-0.001c0,-0.276 0.224,-0.5 0.5,-0.5c0.277,0 0.5,0.224 0.5,0.5l0,0.001c0,0.276 -0.223,0.5 -0.5,0.5Zm0,2.001c-0.276,0 -0.5,-0.224 -0.5,-0.5l0,-0.001c0,-0.276 0.224,-0.5 0.5,-0.5c0.277,0 0.5,0.224 0.5,0.5l0,0.001c0,0.276 -0.223,0.5 -0.5,0.5Z" style="fill:#00b050;fill-rule:nonzero;"/><path d="M264.246,138.63c-0.276,0 -0.5,-0.224 -0.5,-0.5l0,-0.001c0,-0.276 0.224,-0.5 0.5,-0.5c0.276,0 0.5,0.224 0.5,0.5l0,0.001c0,0.276 -0.224,0.5 -0.5,0.5Zm0,2.001c-0.276,0 -0.5,-0.224 -0.5,-0.5l0,-0.001c0,-0.276 0.224,-0.5 0.5,-0.5c0.276,0 0.5,0.224 0.5,0.5l0,0.001c0,0.276 -0.224,0.5 -0.5,0.5Zm0,2.001c-0.276,0 -0.5,-0.224 -0.5,-0.5l0,-0.001c0,-0.276 0.224,-0.5 0.5,-0.5c0.276,0 0.5,0.224 0.5,0.5l0,0.001c0,0.276 -0.224,0.5 -0.5,0.5Zm0,2.001c-0.276,0 -0.5,-0.224 -0.5,-0.5l0,-0.001c0,-0.276 0.224,-0.5 0.5,-0.5c0.276,0 0.5,0.224 0.5,0.5l0,0.001c0,0.276 -0.224,0.5 -0.5,0.5Zm0,2.001c-0.276,0 -0.5,-0.224 -0.5,-0.5l0,-0.001c0,-0.276 0.224,-0.5 0.5,-0.5c0.276,0 0.5,0.224 0.5,0.5l0,0.001c0,0.276 -0.224,0.5 -0.5,0.5Z" style="fill:#00b050;fill-rule:nonzero;"/><path d="M266.913,138.63c-0.276,0 -0.5,-0.224 -0.5,-0.5l0,-0.001c0,-0.276 0.224,-0.5 0.5,-0.5c0.276,0 0.5,0.224 0.5,0.5l0,0.001c0,0.276 -0.224,0.5 -0.5,0.5Zm0,2.001c-0.276,0 -0.5,-0.224 -0.5,-0.5l0,-0.001c0,-0.276 0.224,-0.5 0.5,-0.5c0.276,0 0.5,0.224 0.5,0.5l0,0.001c0,0.276 -0.224,0.5 -0.5,0.5Zm0,2.001c-0.276,0 -0.5,-0.224 -0.5,-0.5l0,-0.001c0,-0.276 0.224,-0.5 0.5,-0.5c0.276,0 0.5,0.224 0.5,0.5l0,0.001c0,0.276 -0.224,0.5 -0.5,0.5Zm0,2.001c-0.276,0 -0.5,-0.224 -0.5,-0.5l0,-0.001c0,-0.276 0.224,-0.5 0.5,-0.5c0.276,0 0.5,0.224 0.5,0.5l0,0.001c0,0.276 -0.224,0.5 -0.5,0.5Zm0,2.001c-0.276,0 -0.5,-0.224 -0.5,-0.5l0,-0.001c0,-0.276 0.224,-0.5 0.5,-0.5c0.276,0 0.5,0.224 0.5,0.5l0,0.001c0,0.276 -0.224,0.5 -0.5,0.5Z" style="fill:#00b050;fill-rule:nonzero;"/><path d="M269.579,138.63c-0.276,0 -0.5,-0.224 -0.5,-0.5l0,-0.001c0,-0.276 0.224,-0.5 0.5,-0.5c0.277,0 0.5,0.224 0.5,0.5l0,0.001c0,0.276 -0.223,0.5 -0.5,0.5Zm0,2.001c-0.276,0 -0.5,-0.224 -0.5,-0.5l0,-0.001c0,-0.276 0.224,-0.5 0.5,-0.5c0.277,0 0.5,0.224 0.5,0.5l0,0.001c0,0.276 -0.223,0.5 -0.5,0.5Zm0,2.001c-0.276,0 -0.5,-0.224 -0.5,-0.5l0,-0.001c0,-0.276 0.224,-0.5 0.5,-0.5c0.277,0 0.5,0.224 0.5,0.5l0,0.001c0,0.276 -0.223,0.5 -0.5,0.5Zm0,2.001c-0.276,0 -0.5,-0.224 -0.5,-0.5l0,-0.001c0,-0.276 0.224,-0.5 0.5,-0.5c0.277,0 0.5,0.224 0.5,0.5l0,0.001c0,0.276 -0.223,0.5 -0.5,0.5Zm0,2.001c-0.276,0 -0.5,-0.224 -0.5,-0.5l0,-0.001c0,-0.276 0.224,-0.5 0.5,-0.5c0.277,0 0.5,0.224 0.5,0.5l0,0.001c0,0.276 -0.223,0.5 -0.5,0.5Z" style="fill:#00b050;fill-rule:nonzero;"/></g><g transform="matrix(1,0,0,1,-149.284,-84.4326)"><text x="399.417px" y="184.044px" style="font-family:'OpenSans-Bold', 'Open Sans', sans-serif;font-weight:700;font-size:10px;fill:#00b050;">al</text><text x="408.509px" y="184.044px" style="font-family:'OpenSans-Bold', 'Open Sans', sans-serif;font-weight:700;font-size:10px;fill:#00b050;">p</text><text x="414.437px" y="184.044px" style="font-family:'OpenSans-Bold', 'Open Sans', sans-serif;font-weight:700;font-size:10px;fill:#00b050;">i</text><text x="417.488px" y="184.044px" style="font-family:'OpenSans-Bold', 'Open Sans', sans-serif;font-weight:700;font-size:10px;fill:#00b050;">n</text><text x="424.411px" y="184.044px" style="font-family:'OpenSans-Bold', 'Open Sans', sans-serif;font-weight:700;font-size:10px;fill:#00b050;">e</text></g><text x="253.617px" y="120.495px" style="font-family:'CourierNewPS-BoldMT', 'Courier New', monospace;font-weight:700;font-size:10px;fill:#fff;">echo</text><g transform="matrix(1,0,0,1,-147.607,-84.4326)"><text x="394.612px" y="166.368px" style="font-family:'CourierNewPS-BoldMT', 'Courier New', monospace;font-weight:700;font-size:6px;fill:#535353;">E<tspan x="398.612px 402.613px 406.614px 410.614px 414.615px " y="166.368px 166.368px 166.368px 166.368px 166.368px ">xited</tspan></text><text x="421.616px" y="166.368px" style="font-family:'CourierNewPS-BoldMT', 'Courier New', monospace;font-weight:700;font-size:6px;fill:#535353;">(<tspan x="425.616px 429.617px " y="166.368px 166.368px ">0)</tspan></text></g></g><g id="hello-world-container-1" serif:id="hello-world container 1"><path d="M303.079,91.577c0,-1.386 1.124,-2.51 2.51,-2.51l53.981,0c1.386,0 2.509,1.124 2.509,2.51l0,45.981c0,1.386 -1.123,2.509 -2.509,2.509l-53.981,0c-1.386,0 -2.51,-1.123 -2.51,-2.509l0,-45.981Z" style="fill:none;stroke:#75a0af;stroke-width:1px;stroke-linejoin:round;stroke-dasharray:1,1;"/><rect x="304.579" y="108.567" width="56" height="18" style="fill:#171717;"/><path d="M325.441,133.067l14.587,0c0.931,0 1.551,0.621 1.551,1.552l0,14.897c0,0.931 -0.62,1.551 -1.551,1.551l-14.587,0c-0.931,0 -1.862,-0.62 -1.862,-1.551l0,-14.897c0,-0.931 0.931,-1.552 1.862,-1.552Z" style="fill:#fff;stroke:#ef4a52;stroke-width:1px;stroke-linejoin:miter;stroke-miterlimit:8;stroke-dasharray:3,1;"/><g><path d="M328.579,138.63c-0.276,0 -0.5,-0.224 -0.5,-0.5l0,-0.001c0,-0.276 0.224,-0.5 0.5,-0.5c0.277,0 0.5,0.224 0.5,0.5l0,0.001c0,0.276 -0.223,0.5 -0.5,0.5Zm0,2.001c-0.276,0 -0.5,-0.224 -0.5,-0.5l0,-0.001c0,-0.276 0.224,-0.5 0.5,-0.5c0.277,0 0.5,0.224 0.5,0.5l0,0.001c0,0.276 -0.223,0.5 -0.5,0.5Zm0,2.001c-0.276,0 -0.5,-0.224 -0.5,-0.5l0,-0.001c0,-0.276 0.224,-0.5 0.5,-0.5c0.277,0 0.5,0.224 0.5,0.5l0,0.001c0,0.276 -0.223,0.5 -0.5,0.5Zm0,2.001c-0.276,0 -0.5,-0.224 -0.5,-0.5l0,-0.001c0,-0.276 0.224,-0.5 0.5,-0.5c0.277,0 0.5,0.224 0.5,0.5l0,0.001c0,0.276 -0.223,0.5 -0.5,0.5Zm0,2.001c-0.276,0 -0.5,-0.224 -0.5,-0.5l0,-0.001c0,-0.276 0.224,-0.5 0.5,-0.5c0.277,0 0.5,0.224 0.5,0.5l0,0.001c0,0.276 -0.223,0.5 -0.5,0.5Z" style="fill:#ef4a52;fill-rule:nonzero;"/><path d="M331.246,138.63c-0.276,0 -0.5,-0.224 -0.5,-0.5l0,-0.001c0,-0.276 0.224,-0.5 0.5,-0.5c0.276,0 0.5,0.224 0.5,0.5l0,0.001c0,0.276 -0.224,0.5 -0.5,0.5Zm0,2.001c-0.276,0 -0.5,-0.224 -0.5,-0.5l0,-0.001c0,-0.276 0.224,-0.5 0.5,-0.5c0.276,0 0.5,0.224 0.5,0.5l0,0.001c0,0.276 -0.224,0.5 -0.5,0.5Zm0,2.001c-0.276,0 -0.5,-0.224 -0.5,-0.5l0,-0.001c0,-0.276 0.224,-0.5 0.5,-0.5c0.276,0 0.5,0.224 0.5,0.5l0,0.001c0,0.276 -0.224,0.5 -0.5,0.5Zm0,2.001c-0.276,0 -0.5,-0.224 -0.5,-0.5l0,-0.001c0,-0.276 0.224,-0.5 0.5,-0.5c0.276,0 0.5,0.224 0.5,0.5l0,0.001c0,0.276 -0.224,0.5 -0.5,0.5Zm0,2.001c-0.276,0 -0.5,-0.224 -0.5,-0.5l0,-0.001c0,-0.276 0.224,-0.5 0.5,-0.5c0.276,0 0.5,0.224 0.5,0.5l0,0.001c0,0.276 -0.224,0.5 -0.5,0.5Z" style="fill:#ef4a52;fill-rule:nonzero;"/><path d="M333.913,138.63c-0.276,0 -0.5,-0.224 -0.5,-0.5l0,-0.001c0,-0.276 0.224,-0.5 0.5,-0.5c0.276,0 0.5,0.224 0.5,0.5l0,0.001c0,0.276 -0.224,0.5 -0.5,0.5Zm0,2.001c-0.276,0 -0.5,-0.224 -0.5,-0.5l0,-0.001c0,-0.276 0.224,-0.5 0.5,-0.5c0.276,0 0.5,0.224 0.5,0.5l0,0.001c0,0.276 -0.224,0.5 -0.5,0.5Zm0,2.001c-0.276,0 -0.5,-0.224 -0.5,-0.5l0,-0.001c0,-0.276 0.224,-0.5 0.5,-0.5c0.276,0 0.5,0.224 0.5,0.5l0,0.001c0,0.276 -0.224,0.5 -0.5,0.5Zm0,2.001c-0.276,0 -0.5,-0.224 -0.5,-0.5l0,-0.001c0,-0.276 0.224,-0.5 0.5,-0.5c0.276,0 0.5,0.224 0.5,0.5l0,0.001c0,0.276 -0.224,0.5 -0.5,0.5Zm0,2.001c-0.276,0 -0.5,-0.224 -0.5,-0.5l0,-0.001c0,-0.276 0.224,-0.5 0.5,-0.5c0.276,0 0.5,0.224 0.5,0.5l0,0.001c0,0.276 -0.224,0.5 -0.5,0.5Z" style="fill:#ef4a52;fill-rule:nonzero;"/><path d="M336.579,138.63c-0.276,0 -0.5,-0.224 -0.5,-0.5l0,-0.001c0,-0.276 0.224,-0.5 0.5,-0.5c0.277,0 0.5,0.224 0.5,0.5l0,0.001c0,0.276 -0.223,0.5 -0.5,0.5Zm0,2.001c-0.276,0 -0.5,-0.224 -0.5,-0.5l0,-0.001c0,-0.276 0.224,-0.5 0.5,-0.5c0.277,0 0.5,0.224 0.5,0.5l0,0.001c0,0.276 -0.223,0.5 -0.5,0.5Zm0,2.001c-0.276,0 -0.5,-0.224 -0.5,-0.5l0,-0.001c0,-0.276 0.224,-0.5 0.5,-0.5c0.277,0 0.5,0.224 0.5,0.5l0,0.001c0,0.276 -0.223,0.5 -0.5,0.5Zm0,2.001c-0.276,0 -0.5,-0.224 -0.5,-0.5l0,-0.001c0,-0.276 0.224,-0.5 0.5,-0.5c0.277,0 0.5,0.224 0.5,0.5l0,0.001c0,0.276 -0.223,0.5 -0.5,0.5Zm0,2.001c-0.276,0 -0.5,-0.224 -0.5,-0.5l0,-0.001c0,-0.276 0.224,-0.5 0.5,-0.5c0.277,0 0.5,0.224 0.5,0.5l0,0.001c0,0.276 -0.223,0.5 -0.5,0.5Z" style="fill:#ef4a52;fill-rule:nonzero;"/></g><g transform="matrix(1,0,0,1,-149.466,-84.4326)"><text x="453.411px" y="184.615px" style="font-family:'OpenSans-Bold', 'Open Sans', sans-serif;font-weight:700;font-size:10px;fill:#ef4a52;">h</text><text x="460.383px" y="184.615px" style="font-family:'OpenSans-Bold', 'Open Sans', sans-serif;font-weight:700;font-size:10px;fill:#ef4a52;">e</text><text x="466.391px" y="184.615px" style="font-family:'OpenSans-Bold', 'Open Sans', sans-serif;font-weight:700;font-size:10px;fill:#ef4a52;">l</text><text x="469.343px" y="184.615px" style="font-family:'OpenSans-Bold', 'Open Sans', sans-serif;font-weight:700;font-size:10px;fill:#ef4a52;">l</text><text x="472.395px" y="184.615px" style="font-family:'OpenSans-Bold', 'Open Sans', sans-serif;font-weight:700;font-size:10px;fill:#ef4a52;">o<tspan x="478.386px " y="184.615px ">-</tspan></text><text x="481.404px" y="184.615px" style="font-family:'OpenSans-Bold', 'Open Sans', sans-serif;font-weight:700;font-size:10px;fill:#ef4a52;">w</text><text x="490.364px" y="184.615px" style="font-family:'OpenSans-Bold', 'Open Sans', sans-serif;font-weight:700;font-size:10px;fill:#ef4a52;">o</text><text x="496.355px" y="184.615px" style="font-family:'OpenSans-Bold', 'Open Sans', sans-serif;font-weight:700;font-size:10px;fill:#ef4a52;">r</text><text x="501.396px" y="184.615px" style="font-family:'OpenSans-Bold', 'Open Sans', sans-serif;font-weight:700;font-size:10px;fill:#ef4a52;">l</text><text x="504.348px" y="184.615px" style="font-family:'OpenSans-Bold', 'Open Sans', sans-serif;font-weight:700;font-size:10px;fill:#ef4a52;">d</text></g><text x="317.714px" y="120.495px" style="font-family:'CourierNewPS-BoldMT', 'Courier New', monospace;font-weight:700;font-size:10px;fill:#fff;">hello</text><g transform="matrix(1,0,0,1,-147.601,-84.4326)"><text x="461.606px" y="166.368px" style="font-family:'CourierNewPS-BoldMT', 'Courier New', monospace;font-weight:700;font-size:6px;fill:#535353;">E<tspan x="465.606px 469.607px 473.608px 477.608px 481.609px " y="166.368px 166.368px 166.368px 166.368px 166.368px ">xited</tspan></text><text x="488.61px" y="166.368px" style="font-family:'CourierNewPS-BoldMT', 'Courier New', monospace;font-weight:700;font-size:6px;fill:#535353;">(<tspan x="492.61px 496.611px " y="166.368px 166.368px ">0)</tspan></text></g></g><g id="alpine-container-2" serif:id="alpine container 2"><path d="M169.079,73.97c0,-1.603 1.3,-2.903 2.903,-2.903l53.195,0c1.603,0 2.902,1.3 2.902,2.903l0,63.195c0,1.603 -1.299,2.902 -2.902,2.902l-53.195,0c-1.603,0 -2.903,-1.299 -2.903,-2.902l0,-63.195Z" style="fill:none;stroke:#75a0af;stroke-width:1px;stroke-linejoin:round;stroke-dasharray:1,1;"/><rect x="170.579" y="108.567" width="56" height="18" style="fill:#171717;"/><path d="M191.441,133.067l14.587,0c0.931,0 1.551,0.621 1.551,1.552l0,14.897c0,0.931 -0.62,1.551 -1.551,1.551l-14.587,0c-0.931,0 -1.862,-0.62 -1.862,-1.551l0,-14.897c0,-0.931 0.931,-1.552 1.862,-1.552Z" style="fill:#fff;stroke:#00b050;stroke-width:1px;stroke-linejoin:miter;stroke-miterlimit:8;stroke-dasharray:3,1;"/><g><path d="M194.579,138.63c-0.276,0 -0.5,-0.224 -0.5,-0.5l0,-0.001c0,-0.276 0.224,-0.5 0.5,-0.5c0.277,0 0.5,0.224 0.5,0.5l0,0.001c0,0.276 -0.223,0.5 -0.5,0.5Zm0,2.001c-0.276,0 -0.5,-0.224 -0.5,-0.5l0,-0.001c0,-0.276 0.224,-0.5 0.5,-0.5c0.277,0 0.5,0.224 0.5,0.5l0,0.001c0,0.276 -0.223,0.5 -0.5,0.5Zm0,2.001c-0.276,0 -0.5,-0.224 -0.5,-0.5l0,-0.001c0,-0.276 0.224,-0.5 0.5,-0.5c0.277,0 0.5,0.224 0.5,0.5l0,0.001c0,0.276 -0.223,0.5 -0.5,0.5Zm0,2.001c-0.276,0 -0.5,-0.224 -0.5,-0.5l0,-0.001c0,-0.276 0.224,-0.5 0.5,-0.5c0.277,0 0.5,0.224 0.5,0.5l0,0.001c0,0.276 -0.223,0.5 -0.5,0.5Zm0,2.001c-0.276,0 -0.5,-0.224 -0.5,-0.5l0,-0.001c0,-0.276 0.224,-0.5 0.5,-0.5c0.277,0 0.5,0.224 0.5,0.5l0,0.001c0,0.276 -0.223,0.5 -0.5,0.5Z" style="fill:#00b050;fill-rule:nonzero;"/><path d="M197.246,138.63c-0.276,0 -0.5,-0.224 -0.5,-0.5l0,-0.001c0,-0.276 0.224,-0.5 0.5,-0.5c0.276,0 0.5,0.224 0.5,0.5l0,0.001c0,0.276 -0.224,0.5 -0.5,0.5Zm0,2.001c-0.276,0 -0.5,-0.224 -0.5,-0.5l0,-0.001c0,-0.276 0.224,-0.5 0.5,-0.5c0.276,0 0.5,0.224 0.5,0.5l0,0.001c0,0.276 -0.224,0.5 -0.5,0.5Zm0,2.001c-0.276,0 -0.5,-0.224 -0.5,-0.5l0,-0.001c0,-0.276 0.224,-0.5 0.5,-0.5c0.276,0 0.5,0.224 0.5,0.5l0,0.001c0,0.276 -0.224,0.5 -0.5,0.5Zm0,2.001c-0.276,0 -0.5,-0.224 -0.5,-0.5l0,-0.001c0,-0.276 0.224,-0.5 0.5,-0.5c0.276,0 0.5,0.224 0.5,0.5l0,0.001c0,0.276 -0.224,0.5 -0.5,0.5Zm0,2.001c-0.276,0 -0.5,-0.224 -0.5,-0.5l0,-0.001c0,-0.276 0.224,-0.5 0.5,-0.5c0.276,0 0.5,0.224 0.5,0.5l0,0.001c0,0.276 -0.224,0.5 -0.5,0.5Z" style="fill:#00b050;fill-rule:nonzero;"/><path d="M199.913,138.63c-0.276,0 -0.5,-0.224 -0.5,-0.5l0,-0.001c0,-0.276 0.224,-0.5 0.5,-0.5c0.276,0 0.5,0.224 0.5,0.5l0,0.001c0,0.276 -0.224,0.5 -0.5,0.5Zm0,2.001c-0.276,0 -0.5,-0.224 -0.5,-0.5l0,-0.001c0,-0.276 0.224,-0.5 0.5,-0.5c0.276,0 0.5,0.224 0.5,0.5l0,0.001c0,0.276 -0.224,0.5 -0.5,0.5Zm0,2.001c-0.276,0 -0.5,-0.224 -0.5,-0.5l0,-0.001c0,-0.276 0.224,-0.5 0.5,-0.5c0.276,0 0.5,0.224 0.5,0.5l0,0.001c0,0.276 -0.224,0.5 -0.5,0.5Zm0,2.001c-0.276,0 -0.5,-0.224 -0.5,-0.5l0,-0.001c0,-0.276 0.224,-0.5 0.5,-0.5c0.276,0 0.5,0.224 0.5,0.5l0,0.001c0,0.276 -0.224,0.5 -0.5,0.5Zm0,2.001c-0.276,0 -0.5,-0.224 -0.5,-0.5l0,-0.001c0,-0.276 0.224,-0.5 0.5,-0.5c0.276,0 0.5,0.224 0.5,0.5l0,0.001c0,0.276 -0.224,0.5 -0.5,0.5Z" style="fill:#00b050;fill-rule:nonzero;"/><path d="M202.579,138.63c-0.276,0 -0.5,-0.224 -0.5,-0.5l0,-0.001c0,-0.276 0.224,-0.5 0.5,-0.5c0.277,0 0.5,0.224 0.5,0.5l0,0.001c0,0.276 -0.223,0.5 -0.5,0.5Zm0,2.001c-0.276,0 -0.5,-0.224 -0.5,-0.5l0,-0.001c0,-0.276 0.224,-0.5 0.5,-0.5c0.277,0 0.5,0.224 0.5,0.5l0,0.001c0,0.276 -0.223,0.5 -0.5,0.5Zm0,2.001c-0.276,0 -0.5,-0.224 -0.5,-0.5l0,-0.001c0,-0.276 0.224,-0.5 0.5,-0.5c0.277,0 0.5,0.224 0.5,0.5l0,0.001c0,0.276 -0.223,0.5 -0.5,0.5Zm0,2.001c-0.276,0 -0.5,-0.224 -0.5,-0.5l0,-0.001c0,-0.276 0.224,-0.5 0.5,-0.5c0.277,0 0.5,0.224 0.5,0.5l0,0.001c0,0.276 -0.223,0.5 -0.5,0.5Zm0,2.001c-0.276,0 -0.5,-0.224 -0.5,-0.5l0,-0.001c0,-0.276 0.224,-0.5 0.5,-0.5c0.277,0 0.5,0.224 0.5,0.5l0,0.001c0,0.276 -0.223,0.5 -0.5,0.5Z" style="fill:#00b050;fill-rule:nonzero;"/></g><path d="M215.079,107.067l0.6,-2.4l2.4,-0.6l-3,3l-36,0l0,-18l39,0l0,15" style="fill:#0095e5;fill-opacity:0.196078;fill-rule:nonzero;stroke:#0095e5;stroke-width:1px;"/><g transform="matrix(1,0,0,1,-149.415,-84.4326)"><text x="332.548px" y="167.257px" style="font-family:'OpenSans-Bold', 'Open Sans', sans-serif;font-weight:700;font-size:10px;fill:#00b050;">al</text><text x="341.64px" y="167.257px" style="font-family:'OpenSans-Bold', 'Open Sans', sans-serif;font-weight:700;font-size:10px;fill:#00b050;">p</text><text x="347.568px" y="167.257px" style="font-family:'OpenSans-Bold', 'Open Sans', sans-serif;font-weight:700;font-size:10px;fill:#00b050;">i</text><text x="350.619px" y="167.257px" style="font-family:'OpenSans-Bold', 'Open Sans', sans-serif;font-weight:700;font-size:10px;fill:#00b050;">n</text><text x="357.542px" y="167.257px" style="font-family:'OpenSans-Bold', 'Open Sans', sans-serif;font-weight:700;font-size:10px;fill:#00b050;">e</text></g><text x="174.243px" y="120.495px" style="font-family:'CourierNewPS-BoldMT', 'Courier New', monospace;font-weight:700;font-size:10px;fill:#fff;">/bin/ash</text><g transform="matrix(1,0,0,1,-151.561,-84.4326)"><text x="332.857px" y="182.448px" style="font-family:'CourierNewPSMT', 'Courier New', monospace;font-size:8px;fill:#535353;">h<tspan x="336.857px 340.858px 344.859px 348.86px 352.86px " y="182.448px 182.448px 182.448px 182.448px 182.448px ">ello.</tspan></text><text x="356.861px" y="182.448px" style="font-family:'CourierNewPSMT', 'Courier New', monospace;font-size:8px;fill:#535353;">t<tspan x="359.862px " y="182.448px ">x</tspan></text><text x="362.863px" y="182.448px" style="font-family:'CourierNewPSMT', 'Courier New', monospace;font-size:8px;fill:#535353;">t</text></g><g transform="matrix(1,0,0,1,-148.166,-84.4326)"><text x="328.171px" y="149.409px" style="font-family:'CourierNewPS-BoldMT', 'Courier New', monospace;font-weight:700;font-size:6px;fill:#535353;">E<tspan x="332.171px 336.172px 340.172px 344.173px 348.174px " y="149.409px 149.409px 149.409px 149.409px 149.409px ">xited</tspan></text><text x="355.175px" y="149.409px" style="font-family:'CourierNewPS-BoldMT', 'Courier New', monospace;font-weight:700;font-size:6px;fill:#535353;">(<tspan x="359.175px 363.176px " y="149.409px 149.409px ">0)</tspan></text></g></g><g transform="matrix(1,0,0,1,-150.421,-84.4326)"><text x="179.048px" y="324.391px" style="font-family:'OpenSans-BoldItalic', 'Open Sans', sans-serif;font-weight:700;font-style:italic;font-size:16px;fill:#08d7be;">I</text><text x="184.047px" y="324.391px" style="font-family:'OpenSans-BoldItalic', 'Open Sans', sans-serif;font-weight:700;font-style:italic;font-size:16px;fill:#08d7be;">m</text><text x="198.023px" y="324.391px" style="font-family:'OpenSans-BoldItalic', 'Open Sans', sans-serif;font-weight:700;font-style:italic;font-size:16px;fill:#08d7be;">a</text><text x="208.031px" y="324.391px" style="font-family:'OpenSans-BoldItalic', 'Open Sans', sans-serif;font-weight:700;font-style:italic;font-size:16px;fill:#08d7be;">g</text><text x="217.037px" y="324.391px" style="font-family:'OpenSans-BoldItalic', 'Open Sans', sans-serif;font-weight:700;font-style:italic;font-size:16px;fill:#08d7be;">e</text><text x="226.051px" y="324.391px" style="font-family:'OpenSans-BoldItalic', 'Open Sans', sans-serif;font-weight:700;font-style:italic;font-size:16px;fill:#08d7be;">s</text></g><g transform="matrix(1,0,0,1,-145.838,-84.4326)"><text x="151.48px" y="195.757px" style="font-family:'OpenSans-BoldItalic', 'Open Sans', sans-serif;font-weight:700;font-style:italic;font-size:16px;fill:#08d7be;">C</text><text x="161.469px" y="195.757px" style="font-family:'OpenSans-BoldItalic', 'Open Sans', sans-serif;font-weight:700;font-style:italic;font-size:16px;fill:#08d7be;">o</text><text x="170.478px" y="195.757px" style="font-family:'OpenSans-BoldItalic', 'Open Sans', sans-serif;font-weight:700;font-style:italic;font-size:16px;fill:#08d7be;">n</text><text x="180.442px" y="195.757px" style="font-family:'OpenSans-BoldItalic', 'Open Sans', sans-serif;font-weight:700;font-style:italic;font-size:16px;fill:#08d7be;">t</text><text x="187.455px" y="195.757px" style="font-family:'OpenSans-BoldItalic', 'Open Sans', sans-serif;font-weight:700;font-style:italic;font-size:16px;fill:#08d7be;">a</text><text x="197.463px" y="195.757px" style="font-family:'OpenSans-BoldItalic', 'Open Sans', sans-serif;font-weight:700;font-style:italic;font-size:16px;fill:#08d7be;">i<tspan x="202.513px " y="195.757px ">n</tspan></text><text x="212.477px" y="195.757px" style="font-family:'OpenSans-BoldItalic', 'Open Sans', sans-serif;font-weight:700;font-style:italic;font-size:16px;fill:#08d7be;">e</text><text x="221.391px" y="195.757px" style="font-family:'OpenSans-BoldItalic', 'Open Sans', sans-serif;font-weight:700;font-style:italic;font-size:16px;fill:#08d7be;">r</text><text x="153.397px" y="211.757px" style="font-family:'OpenSans-BoldItalic', 'Open Sans', sans-serif;font-weight:700;font-style:italic;font-size:16px;fill:#08d7be;">I<tspan x="158.845px 168.809px 176.68px 183.542px 193.35px 203.314px 211.341px 220.555px " y="211.757px 211.757px 211.757px 211.757px 211.757px 211.757px 211.757px 211.757px ">nstances</tspan></text></g><g id="arrows"><g><path d="M140.078,222.067c0,0 -13.775,-34.919 -16.07,-45.963c-1.388,-6.681 2.301,-20.303 2.301,-20.303" style="fill:none;stroke:#ccc;stroke-width:1.5px;stroke-linejoin:round;stroke-miterlimit:1.5;"/><path d="M126.811,153.496l1.203,2.699l-3.376,-0.695l2.173,-2.004Z" style="fill:#ccc;"/></g><g><path d="M314.135,222.067c0,0 13.775,-34.919 16.07,-45.963c1.388,-6.681 -2.301,-20.303 -2.301,-20.303" style="fill:none;stroke:#ccc;stroke-width:1.5px;stroke-linejoin:round;stroke-miterlimit:1.5;"/><path d="M327.403,153.496l-1.204,2.699l3.376,-0.695l-2.172,-2.004Z" style="fill:#ccc;"/></g><g><path d="M140.044,222.765c0,0 6.502,-36.654 10.856,-47.06c3.075,-7.349 17.79,-16.877 34.7,-24.638" style="fill:none;stroke:#ccc;stroke-width:1.5px;stroke-linejoin:round;stroke-miterlimit:1.5;"/><path d="M187.662,150.036l-1.427,2.587l-1.481,-3.112l2.908,0.525Z" style="fill:#ccc;"/></g><g><path d="M140.044,222.765c0,0 19.029,-38.147 28.799,-47.033c5.893,-5.361 66.396,-16.904 83.306,-24.665" style="fill:none;stroke:#ccc;stroke-width:1.5px;stroke-linejoin:round;stroke-miterlimit:1.5;"/><path d="M254.147,150.039l-1.432,2.584l-1.475,-3.115l2.907,0.531Z" style="fill:#ccc;"/></g></g></svg>