<?xml version="1.0" encoding="UTF-8" standalone="no"?><!DOCTYPE svg PUBLIC "-//W3C//DTD SVG 1.1//EN" "http://www.w3.org/Graphics/SVG/1.1/DTD/svg11.dtd"><svg width="100%" height="100%" viewBox="0 0 481 303" version="1.1" xmlns="http://www.w3.org/2000/svg" xmlns:xlink="http://www.w3.org/1999/xlink" xml:space="preserve" xmlns:serif="http://www.serif.com/" style="fill-rule:evenodd;clip-rule:evenodd;stroke-linejoin:bevel;stroke-miterlimit:10;"><rect id="Images---commit" serif:id="Images - commit" x="-158.218" y="-172.442" width="800.007" height="587.952" style="fill:none;"/><g id="title-and-bounding-lines" serif:id="title and bounding lines"><g transform="matrix(1,0,0,1,-93.9574,-73.8492)"><text x="141.253px" y="113.808px" style="font-family:'OpenSans-Regular', 'Open Sans', sans-serif;font-size:24px;fill:#008ec0;">I</text><text x="148.244px" y="113.808px" style="font-family:'OpenSans-Regular', 'Open Sans', sans-serif;font-size:24px;fill:#008ec0;">m<tspan x="170.268px " y="113.808px ">a</tspan></text><text x="183.316px" y="113.808px" style="font-family:'OpenSans-Regular', 'Open Sans', sans-serif;font-size:24px;fill:#008ec0;">g</text><text x="196.264px" y="113.808px" style="font-family:'OpenSans-Regular', 'Open Sans', sans-serif;font-size:24px;fill:#008ec0;">e</text><text x="216.212px" y="113.808px" style="font-family:'OpenSans-Regular', 'Open Sans', sans-serif;font-size:24px;fill:#008ec0;">C</text><text x="231.252px" y="113.808px" style="font-family:'OpenSans-Regular', 'Open Sans', sans-serif;font-size:24px;fill:#008ec0;">r</text><text x="241.269px" y="113.808px" style="font-family:'OpenSans-Regular', 'Open Sans', sans-serif;font-size:24px;fill:#008ec0;">e</text><text x="254.233px" y="113.808px" style="font-family:'OpenSans-Regular', 'Open Sans', sans-serif;font-size:24px;fill:#008ec0;">a</text><text x="267.281px" y="113.808px" style="font-family:'OpenSans-Regular', 'Open Sans', sans-serif;font-size:24px;fill:#008ec0;">t</text><text x="275.254px" y="113.808px" style="font-family:'OpenSans-Regular', 'Open Sans', sans-serif;font-size:24px;fill:#008ec0;">i</text><text x="281.224px" y="113.808px" style="font-family:'OpenSans-Regular', 'Open Sans', sans-serif;font-size:24px;fill:#008ec0;">o</text><text x="295.22px" y="113.808px" style="font-family:'OpenSans-Regular', 'Open Sans', sans-serif;font-size:24px;fill:#008ec0;">n</text><text x="310.251px" y="113.808px" style="font-family:'OpenSans-Regular', 'Open Sans', sans-serif;font-size:24px;fill:#008ec0;">:</text><text x="325.236px" y="113.808px" style="font-family:'OpenSans-Regular', 'Open Sans', sans-serif;font-size:24px;fill:#008ec0;">I<tspan x="332.227px " y="113.808px ">n</tspan></text><text x="347.258px" y="113.808px" style="font-family:'OpenSans-Regular', 'Open Sans', sans-serif;font-size:24px;fill:#008ec0;">s</text><text x="358.307px" y="113.808px" style="font-family:'OpenSans-Regular', 'Open Sans', sans-serif;font-size:24px;fill:#008ec0;">t</text><text x="366.28px" y="113.808px" style="font-family:'OpenSans-Regular', 'Open Sans', sans-serif;font-size:24px;fill:#008ec0;">a</text><text x="379.327px" y="113.808px" style="font-family:'OpenSans-Regular', 'Open Sans', sans-serif;font-size:24px;fill:#008ec0;">n</text><text x="394.258px" y="113.808px" style="font-family:'OpenSans-Regular', 'Open Sans', sans-serif;font-size:24px;fill:#008ec0;">c</text><text x="405.284px" y="113.808px" style="font-family:'OpenSans-Regular', 'Open Sans', sans-serif;font-size:24px;fill:#008ec0;">e</text><text x="425.231px" y="113.808px" style="font-family:'OpenSans-Regular', 'Open Sans', sans-serif;font-size:24px;fill:#008ec0;">P</text><text x="439.28px" y="113.808px" style="font-family:'OpenSans-Regular', 'Open Sans', sans-serif;font-size:24px;fill:#008ec0;">r</text><text x="449.246px" y="113.808px" style="font-family:'OpenSans-Regular', 'Open Sans', sans-serif;font-size:24px;fill:#008ec0;">o</text><text x="463.243px" y="113.808px" style="font-family:'OpenSans-Regular', 'Open Sans', sans-serif;font-size:24px;fill:#008ec0;">m</text><text x="485.267px" y="113.808px" style="font-family:'OpenSans-Regular', 'Open Sans', sans-serif;font-size:24px;fill:#008ec0;">o<tspan x="499.263px " y="113.808px ">t</tspan></text><text x="507.236px" y="113.808px" style="font-family:'OpenSans-Regular', 'Open Sans', sans-serif;font-size:24px;fill:#008ec0;">i</text><text x="513.206px" y="113.808px" style="font-family:'OpenSans-Regular', 'Open Sans', sans-serif;font-size:24px;fill:#008ec0;">o</text><text x="527.202px" y="113.808px" style="font-family:'OpenSans-Regular', 'Open Sans', sans-serif;font-size:24px;fill:#008ec0;">n</text></g><path d="M73.543,7.651l351.458,0" style="fill:none;stroke:#a7a7a7;stroke-width:1px;"/><path d="M72.543,292.651l351.458,0" style="fill:none;stroke:#a7a7a7;stroke-width:1px;"/></g><g id="docker-engine" serif:id="docker engine"><g><path d="M243.127,254.388c-0.414,0 -0.737,0.312 -0.737,0.712c0,0.401 0.323,0.713 0.737,0.713c0.414,0 0.736,-0.312 0.736,-0.713c0,-0.4 -0.322,-0.712 -0.736,-0.712Zm-0.092,0.712c0,-0.044 0.046,-0.089 0.092,-0.089c0.046,0 0.092,0.045 0.092,0.089c0,0.134 -0.184,0.134 -0.184,0Zm14.18,-0.4l-5.617,0c-0.23,0 -0.414,0.178 -0.414,0.4c0,0.223 0.184,0.401 0.414,0.401l5.617,0c0.23,0 0.415,-0.178 0.415,-0.401c0,-0.222 -0.185,-0.4 -0.415,-0.4Zm-11.004,6.325c-0.414,0 -0.736,0.312 -0.736,0.713c0,0.401 0.322,0.713 0.736,0.713c0.415,0 0.737,-0.312 0.737,-0.713c0,-0.401 -0.322,-0.713 -0.737,-0.713Zm-0.092,0.713c0,-0.089 0.046,-0.134 0.092,-0.134c0.093,0 0.139,0.045 0.139,0.134c0,0.089 -0.231,0.089 -0.231,0Zm11.096,-0.446l-5.617,0c-0.23,0 -0.414,0.223 -0.414,0.446c0,0.223 0.184,0.401 0.414,0.401l5.617,0c0.23,0 0.415,-0.178 0.415,-0.401c0,-0.223 -0.185,-0.446 -0.415,-0.446Zm-11.004,-6.904c-0.414,0 -0.736,0.312 -0.736,0.712c0,0.401 0.322,0.713 0.736,0.713c0.415,0 0.737,-0.312 0.737,-0.713c0,-0.4 -0.322,-0.712 -0.737,-0.712Zm-0.092,0.712c0,-0.044 0.046,-0.089 0.092,-0.089c0.093,0 0.139,0.045 0.139,0.089c0,0.134 -0.231,0.134 -0.231,0Zm-6.077,-0.712c-0.414,0 -0.737,0.312 -0.737,0.712c0,0.401 0.323,0.713 0.737,0.713c0.414,0 0.737,-0.312 0.737,-0.713c0,-0.4 -0.323,-0.712 -0.737,-0.712Zm-0.092,0.712c0,-0.044 0.046,-0.089 0.092,-0.089c0.046,0 0.092,0.045 0.092,0.089c0,0.134 -0.184,0.134 -0.184,0Zm3.177,5.925c-0.414,0 -0.737,0.312 -0.737,0.713c0,0.401 0.323,0.713 0.737,0.713c0.414,0 0.736,-0.312 0.736,-0.713c0,-0.401 -0.322,-0.713 -0.736,-0.713Zm-0.092,0.713c0,-0.089 0.046,-0.134 0.092,-0.134c0.046,0 0.092,0.045 0.092,0.134c0,0.089 -0.184,0.089 -0.184,0Zm-2.993,-0.713c-0.414,0 -0.737,0.312 -0.737,0.713c0,0.401 0.323,0.713 0.737,0.713c0.414,0 0.737,-0.312 0.737,-0.713c0,-0.401 -0.323,-0.713 -0.737,-0.713Zm-0.092,0.713c0,-0.089 0.046,-0.134 0.092,-0.134c0.046,0 0.092,0.045 0.092,0.134c0,0.089 -0.184,0.089 -0.184,0Zm6.261,-20.581c-0.414,0 -0.736,0.312 -0.736,0.713c0,0.401 0.322,0.713 0.736,0.713c0.415,0 0.737,-0.312 0.737,-0.713c0,-0.401 -0.322,-0.713 -0.737,-0.713Zm-0.092,0.713c0,-0.044 0.046,-0.089 0.092,-0.089c0.093,0 0.139,0.045 0.139,0.089c0,0.134 -0.231,0.134 -0.231,0Zm-2.992,-0.713c-0.414,0 -0.737,0.312 -0.737,0.713c0,0.401 0.323,0.713 0.737,0.713c0.414,0 0.736,-0.312 0.736,-0.713c0,-0.401 -0.322,-0.713 -0.736,-0.713Zm-0.092,0.713c0,-0.044 0.046,-0.089 0.092,-0.089c0.046,0 0.092,0.045 0.092,0.089c0,0.134 -0.184,0.134 -0.184,0Zm14.18,-0.401l-5.617,0c-0.23,0 -0.414,0.178 -0.414,0.401c0,0.223 0.184,0.401 0.414,0.401l5.617,0c0.23,0 0.415,-0.178 0.415,-0.401c0,-0.223 -0.185,-0.401 -0.415,-0.401Zm3.131,-1.96c0,-0.757 -0.645,-1.381 -1.427,-1.381l-22.146,0c-0.783,0 -1.427,0.624 -1.427,1.381l0,4.722c0,0.357 0.138,0.713 0.414,0.936c-0.276,0.267 -0.414,0.579 -0.414,0.98l0,4.677c0,0.401 0.138,0.713 0.414,0.98c-0.276,0.223 -0.414,0.579 -0.414,0.935l0,4.723c0,0.356 0.138,0.712 0.414,0.935c-0.276,0.267 -0.414,0.624 -0.414,0.98l0,4.677c0,0.758 0.644,1.381 1.427,1.381l1.704,0l0,0.891c0,0.446 0.368,0.802 0.828,0.802l3.408,0c0.506,0 0.874,-0.356 0.874,-0.802l0,-0.891l7.965,0l0,0.891c0,0.446 0.369,0.802 0.875,0.802l3.407,0c0.46,0 0.829,-0.356 0.829,-0.802l0,-0.891l2.256,0c0.782,0 1.427,-0.623 1.427,-1.381l0,-4.677c0,-0.356 -0.184,-0.713 -0.414,-0.98c0.23,-0.223 0.414,-0.579 0.414,-0.935l0,-4.723c0,-0.356 -0.184,-0.712 -0.414,-0.935c0.23,-0.267 0.414,-0.579 0.414,-0.98l0,-4.677c0,-0.401 -0.184,-0.713 -0.414,-0.98c0.23,-0.223 0.414,-0.579 0.414,-0.936l0,-4.722Zm-17.633,26.817l-3.408,0l0,-0.891l3.408,0l0,0.891Zm13.121,0l-3.407,0l0,-0.891l3.407,0l0,0.891Zm3.637,-2.272c0,0.312 -0.23,0.58 -0.552,0.58l-22.146,0c-0.322,0 -0.598,-0.268 -0.598,-0.58l0,-4.677c0,-0.312 0.276,-0.535 0.598,-0.535l22.146,0c0.322,0 0.552,0.223 0.552,0.535l0,4.677Zm0,-6.592c0,0.311 -0.23,0.534 -0.552,0.534l-22.146,0c-0.322,0 -0.598,-0.223 -0.598,-0.534l0,-4.723c0,-0.267 0.276,-0.534 0.598,-0.534l22.146,0c0.322,0 0.552,0.267 0.552,0.534l0,4.723Zm0,-6.638c0,0.312 -0.23,0.579 -0.552,0.579l-22.146,0c-0.322,0 -0.598,-0.267 -0.598,-0.579l0,-4.677c0,-0.312 0.276,-0.58 0.598,-0.58l22.146,0c0.322,0 0.552,0.268 0.552,0.58l0,4.677Zm0,-6.593c0,0.267 -0.23,0.535 -0.552,0.535l-22.146,0c-0.322,0 -0.598,-0.268 -0.598,-0.535l0,-4.722c0,-0.312 0.276,-0.534 0.598,-0.534l22.146,0c0.322,0 0.552,0.222 0.552,0.534l0,4.722Zm-16.344,3.519c-0.414,0 -0.737,0.357 -0.737,0.713c0,0.401 0.323,0.757 0.737,0.757c0.414,0 0.736,-0.356 0.736,-0.757c0,-0.356 -0.322,-0.713 -0.736,-0.713Zm-0.092,0.713c0,-0.045 0.046,-0.089 0.092,-0.089c0.046,0 0.092,0.044 0.092,0.089c0,0.134 -0.184,0.134 -0.184,0Zm-2.993,-0.713c-0.414,0 -0.737,0.357 -0.737,0.713c0,0.401 0.323,0.757 0.737,0.757c0.414,0 0.737,-0.356 0.737,-0.757c0,-0.356 -0.323,-0.713 -0.737,-0.713Zm-0.092,0.713c0,-0.045 0.046,-0.089 0.092,-0.089c0.046,0 0.092,0.044 0.092,0.089c0,0.134 -0.184,0.134 -0.184,0Zm6.261,-0.713c-0.414,0 -0.736,0.357 -0.736,0.713c0,0.401 0.322,0.757 0.736,0.757c0.415,0 0.737,-0.356 0.737,-0.757c0,-0.356 -0.322,-0.713 -0.737,-0.713Zm-0.092,0.713c0,-0.045 0.046,-0.089 0.092,-0.089c0.093,0 0.139,0.044 0.139,0.089c0,0.134 -0.231,0.134 -0.231,0Zm11.096,-0.401l-5.617,0c-0.23,0 -0.414,0.178 -0.414,0.401c0,0.267 0.184,0.446 0.414,0.446l5.617,0c0.23,0 0.415,-0.179 0.415,-0.446c0,-0.223 -0.185,-0.401 -0.415,-0.401Zm-17.173,-6.905c-0.414,0 -0.737,0.312 -0.737,0.713c0,0.401 0.323,0.713 0.737,0.713c0.414,0 0.737,-0.312 0.737,-0.713c0,-0.401 -0.323,-0.713 -0.737,-0.713Zm-0.092,0.713c0,-0.044 0.046,-0.089 0.092,-0.089c0.046,0 0.092,0.045 0.092,0.089c0,0.134 -0.184,0.134 -0.184,0Z" style="fill:#394e55;"/><rect x="237.346" y="243.128" width="21" height="14" style="fill:#fff;"/><path d="M249.675,249.037l2.098,0l0,-1.707l-2.098,0l0,1.707Zm-2.378,0l2.098,0l0,-1.707l-2.098,0l0,1.707Zm-2.378,0l1.958,0l0,-1.707l-1.958,0l0,1.707Zm-2.517,0l2.098,0l0,-1.707l-2.098,0l0,1.707Zm-2.378,0l2.098,0l0,-1.707l-2.098,0l0,1.707Zm2.378,-2.101l2.098,0l0,-1.707l-2.098,0l0,1.707Zm2.517,0l1.958,0l0,-1.707l-1.958,0l0,1.707Zm2.378,0l2.098,0l0,-1.707l-2.098,0l0,1.707Zm0,-2.101l2.098,0l0,-1.707l-2.098,0l0,1.707Zm10.629,3.283c-0.419,-0.394 -1.398,-0.394 -2.237,-0.263c-0.14,-0.787 -0.56,-1.313 -1.259,-1.838l-0.42,-0.394l-0.279,0.525c-0.42,0.526 -0.56,1.182 -0.56,1.839c0,0.262 0.14,0.788 0.42,1.182c-0.28,0.131 -0.839,0.262 -1.539,0.262l-13.426,0l-0.14,0.131c-0.14,0.657 -0.14,2.889 1.398,4.597c1.259,1.313 2.938,1.969 5.175,1.969c4.895,0 8.532,-2.101 10.21,-6.04c0.699,0 2.098,0 2.797,-1.313c0,0 0.14,-0.132 0.28,-0.263l0,-0.131l-0.42,-0.263Z" style="fill:#1aaaf8;"/></g><g><path d="M207.346,196.315c0,-0.656 0.531,-1.187 1.187,-1.187l78.626,0c0.656,0 1.187,0.531 1.187,1.187l0,16.627c0,0.655 -0.531,1.186 -1.187,1.186l-78.626,0c-0.656,0 -1.187,-0.531 -1.187,-1.186l0,-16.627Z" style="fill:#0095e5;fill-rule:nonzero;"/><g transform="matrix(1,0,0,1,-93.654,-66.8718)"><text x="307.456px" y="275.252px" style="font-family:'ArialMT', 'Arial', sans-serif;font-size:10px;fill:#fff;">D</text><text x="314.478px" y="275.252px" style="font-family:'ArialMT', 'Arial', sans-serif;font-size:10px;fill:#fff;">o</text><text x="320.439px" y="275.252px" style="font-family:'ArialMT', 'Arial', sans-serif;font-size:10px;fill:#fff;">ck</text><text x="330.439px" y="275.252px" style="font-family:'ArialMT', 'Arial', sans-serif;font-size:10px;fill:#fff;">e</text><text x="336.401px" y="275.252px" style="font-family:'ArialMT', 'Arial', sans-serif;font-size:10px;fill:#fff;">r</text><text x="341.459px" y="275.252px" style="font-family:'ArialMT', 'Arial', sans-serif;font-size:10px;fill:#fff;">E</text><text x="348.479px" y="275.252px" style="font-family:'ArialMT', 'Arial', sans-serif;font-size:10px;fill:#fff;">n<tspan x="354.441px " y="275.252px ">g</tspan></text><text x="360.402px" y="275.252px" style="font-family:'ArialMT', 'Arial', sans-serif;font-size:10px;fill:#fff;">i</text><text x="362.474px" y="275.252px" style="font-family:'ArialMT', 'Arial', sans-serif;font-size:10px;fill:#fff;">n</text><text x="368.435px" y="275.252px" style="font-family:'ArialMT', 'Arial', sans-serif;font-size:10px;fill:#fff;">e</text></g></g><g><path d="M207.346,218.19c0,-0.586 0.475,-1.062 1.062,-1.062l78.876,0c0.587,0 1.062,0.476 1.062,1.062l0,14.877c0,0.586 -0.475,1.061 -1.062,1.061l-78.876,0c-0.587,0 -1.062,-0.475 -1.062,-1.061l0,-14.877Z" style="fill:#004a72;fill-rule:nonzero;"/><g transform="matrix(1,0,0,1,-93.654,-66.8718)"><text x="328.456px" y="296.536px" style="font-family:'ArialMT', 'Arial', sans-serif;font-size:10px;fill:#fff;">L</text><text x="334.418px" y="296.536px" style="font-family:'ArialMT', 'Arial', sans-serif;font-size:10px;fill:#fff;">i</text><text x="336.439px" y="296.536px" style="font-family:'ArialMT', 'Arial', sans-serif;font-size:10px;fill:#fff;">n<tspan x="342.401px " y="296.536px ">u</tspan></text><text x="348.362px" y="296.536px" style="font-family:'ArialMT', 'Arial', sans-serif;font-size:10px;fill:#fff;">x</text></g></g></g><g id="ubuntu-image" serif:id="ubuntu image"><g id="container"><path d="M127.536,234.628l21.069,0c1.344,0 2.241,0.897 2.241,2.241l0,21.518c0,1.345 -0.897,2.241 -2.241,2.241l-21.069,0c-1.345,0 -2.69,-0.896 -2.69,-2.241l0,-21.518c0,-1.344 1.345,-2.241 2.69,-2.241Z" style="fill:none;stroke:#ff9300;stroke-width:1px;stroke-linejoin:miter;stroke-miterlimit:8;"/><path d="M131.846,253.751l0,-13.123" style="fill:none;stroke:#ff9300;stroke-width:1px;stroke-linecap:round;stroke-linejoin:round;"/><path d="M135.846,253.751l0,-13.123" style="fill:none;stroke:#ff9300;stroke-width:1px;stroke-linecap:round;stroke-linejoin:round;"/><path d="M139.846,253.751l0,-13.123" style="fill:none;stroke:#ff9300;stroke-width:1px;stroke-linecap:round;stroke-linejoin:round;"/><path d="M143.846,253.751l0,-13.123" style="fill:none;stroke:#ff9300;stroke-width:1px;stroke-linecap:round;stroke-linejoin:round;"/></g><text x="121.201px" y="227.325px" style="font-family:'Hack-Regular', 'Hack', monospace;font-size:9px;fill:#ff9300;">ubuntu</text></g><g id="running-container" serif:id="running container"><path d="M109.568,71.031c0,-1.603 1.299,-2.903 2.902,-2.903l94.738,0c1.603,0 2.903,1.3 2.903,2.903l0,63.195c0,1.603 -1.3,2.902 -2.903,2.902l-94.738,0c-1.603,0 -2.902,-1.299 -2.902,-2.902l0,-63.195Z" style="fill:none;stroke:#ff9300;stroke-width:1px;stroke-linejoin:round;"/><g><rect x="113.124" y="89.84" width="92.136" height="21.158"/><text x="121.05px" y="102.598px" style="font-family:'Hack-Regular', 'Hack', monospace;font-size:8px;fill:#fff;"># apt-get figlet</text></g><text x="118.708px" y="80.067px" style="font-family:'Hack-Regular', 'Hack', monospace;font-size:10px;fill:#ff9300;">ubuntu</text><g id="container1" serif:id="container"><path d="M117.595,130.128l14.586,0c0.931,0 1.552,0.621 1.552,1.552l0,14.897c0,0.931 -0.621,1.551 -1.552,1.551l-14.586,0c-0.932,0 -1.862,-0.62 -1.862,-1.551l0,-14.897c0,-0.931 0.93,-1.552 1.862,-1.552Z" style="fill:#fff;fill-rule:nonzero;stroke:#ff9300;stroke-width:1px;stroke-linejoin:miter;stroke-miterlimit:8;"/><path d="M120.579,143.367l0,-9.085" style="fill:none;stroke:#ff9300;stroke-width:1px;stroke-linecap:round;stroke-linejoin:round;"/><path d="M123.348,143.367l0,-9.085" style="fill:none;stroke:#ff9300;stroke-width:1px;stroke-linecap:round;stroke-linejoin:round;"/><path d="M126.117,143.367l0,-9.085" style="fill:none;stroke:#ff9300;stroke-width:1px;stroke-linecap:round;stroke-linejoin:round;"/><path d="M128.886,143.367l0,-9.085" style="fill:none;stroke:#ff9300;stroke-width:1px;stroke-linecap:round;stroke-linejoin:round;"/></g></g><g id="stopped-container" serif:id="stopped container"><path d="M287.498,71.031c0,-1.603 1.299,-2.903 2.902,-2.903l94.738,0c1.603,0 2.903,1.3 2.903,2.903l0,63.195c0,1.603 -1.3,2.902 -2.903,2.902l-94.738,0c-1.603,0 -2.902,-1.299 -2.902,-2.902l0,-63.195Z" style="fill:none;stroke:#75a0af;stroke-width:1px;stroke-linejoin:round;stroke-dasharray:1,1;"/><g><path d="M309.36,130.128l14.586,0c0.931,0 1.552,0.621 1.552,1.552l0,14.897c0,0.931 -0.621,1.551 -1.552,1.551l-14.586,0c-0.931,0 -1.862,-0.62 -1.862,-1.551l0,-14.897c0,-0.931 0.931,-1.552 1.862,-1.552Z" style="fill:#fff;stroke:#ff9300;stroke-width:1px;stroke-linejoin:miter;stroke-miterlimit:8;stroke-dasharray:3,1;"/><path d="M312.498,135.691c-0.277,0 -0.5,-0.224 -0.5,-0.5l0,-0.001c0,-0.277 0.223,-0.5 0.5,-0.5c0.276,0 0.5,0.223 0.5,0.5l0,0.001c0,0.276 -0.224,0.5 -0.5,0.5Zm0,2.001c-0.277,0 -0.5,-0.224 -0.5,-0.5l0,-0.001c0,-0.277 0.223,-0.5 0.5,-0.5c0.276,0 0.5,0.223 0.5,0.5l0,0.001c0,0.276 -0.224,0.5 -0.5,0.5Zm0,2.001c-0.277,0 -0.5,-0.224 -0.5,-0.5l0,-0.001c0,-0.277 0.223,-0.5 0.5,-0.5c0.276,0 0.5,0.223 0.5,0.5l0,0.001c0,0.276 -0.224,0.5 -0.5,0.5Zm0,2.001c-0.277,0 -0.5,-0.224 -0.5,-0.5l0,-0.001c0,-0.277 0.223,-0.5 0.5,-0.5c0.276,0 0.5,0.223 0.5,0.5l0,0.001c0,0.276 -0.224,0.5 -0.5,0.5Zm0,2.001c-0.276,0 -0.5,-0.224 -0.5,-0.5l0,-0.001c0,-0.277 0.224,-0.5 0.5,-0.5c0.276,0 0.5,0.223 0.5,0.5l0,0.001c0,0.276 -0.224,0.5 -0.5,0.5Z" style="fill:#ff9300;fill-rule:nonzero;"/><path d="M315.498,135.691c-0.277,0 -0.5,-0.224 -0.5,-0.5l0,-0.001c0,-0.277 0.223,-0.5 0.5,-0.5c0.276,0 0.5,0.223 0.5,0.5l0,0.001c0,0.276 -0.224,0.5 -0.5,0.5Zm0,2.001c-0.277,0 -0.5,-0.224 -0.5,-0.5l0,-0.001c0,-0.277 0.223,-0.5 0.5,-0.5c0.276,0 0.5,0.223 0.5,0.5l0,0.001c0,0.276 -0.224,0.5 -0.5,0.5Zm0,2.001c-0.277,0 -0.5,-0.224 -0.5,-0.5l0,-0.001c0,-0.277 0.223,-0.5 0.5,-0.5c0.276,0 0.5,0.223 0.5,0.5l0,0.001c0,0.276 -0.224,0.5 -0.5,0.5Zm0,2.001c-0.277,0 -0.5,-0.224 -0.5,-0.5l0,-0.001c0,-0.277 0.223,-0.5 0.5,-0.5c0.276,0 0.5,0.223 0.5,0.5l0,0.001c0,0.276 -0.224,0.5 -0.5,0.5Zm0,2.001c-0.276,0 -0.5,-0.224 -0.5,-0.5l0,-0.001c0,-0.277 0.224,-0.5 0.5,-0.5c0.276,0 0.5,0.223 0.5,0.5l0,0.001c0,0.276 -0.224,0.5 -0.5,0.5Z" style="fill:#ff9300;fill-rule:nonzero;"/><path d="M318.498,135.691c-0.277,0 -0.5,-0.224 -0.5,-0.5l0,-0.001c0,-0.277 0.223,-0.5 0.5,-0.5c0.276,0 0.5,0.223 0.5,0.5l0,0.001c0,0.276 -0.224,0.5 -0.5,0.5Zm0,2.001c-0.277,0 -0.5,-0.224 -0.5,-0.5l0,-0.001c0,-0.277 0.223,-0.5 0.5,-0.5c0.276,0 0.5,0.223 0.5,0.5l0,0.001c0,0.276 -0.224,0.5 -0.5,0.5Zm0,2.001c-0.277,0 -0.5,-0.224 -0.5,-0.5l0,-0.001c0,-0.277 0.223,-0.5 0.5,-0.5c0.276,0 0.5,0.223 0.5,0.5l0,0.001c0,0.276 -0.224,0.5 -0.5,0.5Zm0,2.001c-0.277,0 -0.5,-0.224 -0.5,-0.5l0,-0.001c0,-0.277 0.223,-0.5 0.5,-0.5c0.276,0 0.5,0.223 0.5,0.5l0,0.001c0,0.276 -0.224,0.5 -0.5,0.5Zm0,2.001c-0.276,0 -0.5,-0.224 -0.5,-0.5l0,-0.001c0,-0.277 0.224,-0.5 0.5,-0.5c0.276,0 0.5,0.223 0.5,0.5l0,0.001c0,0.276 -0.224,0.5 -0.5,0.5Z" style="fill:#ff9300;fill-rule:nonzero;"/><path d="M320.498,135.691c-0.277,0 -0.5,-0.224 -0.5,-0.5l0,-0.001c0,-0.277 0.223,-0.5 0.5,-0.5c0.276,0 0.5,0.223 0.5,0.5l0,0.001c0,0.276 -0.224,0.5 -0.5,0.5Zm0,2.001c-0.277,0 -0.5,-0.224 -0.5,-0.5l0,-0.001c0,-0.277 0.223,-0.5 0.5,-0.5c0.276,0 0.5,0.223 0.5,0.5l0,0.001c0,0.276 -0.224,0.5 -0.5,0.5Zm0,2.001c-0.277,0 -0.5,-0.224 -0.5,-0.5l0,-0.001c0,-0.277 0.223,-0.5 0.5,-0.5c0.276,0 0.5,0.223 0.5,0.5l0,0.001c0,0.276 -0.224,0.5 -0.5,0.5Zm0,2.001c-0.277,0 -0.5,-0.224 -0.5,-0.5l0,-0.001c0,-0.277 0.223,-0.5 0.5,-0.5c0.276,0 0.5,0.223 0.5,0.5l0,0.001c0,0.276 -0.224,0.5 -0.5,0.5Zm0,2.001c-0.276,0 -0.5,-0.224 -0.5,-0.5l0,-0.001c0,-0.277 0.224,-0.5 0.5,-0.5c0.276,0 0.5,0.223 0.5,0.5l0,0.001c0,0.276 -0.224,0.5 -0.5,0.5Z" style="fill:#ff9300;fill-rule:nonzero;"/></g><text x="296.638px" y="80.067px" style="font-family:'Hack-Regular', 'Hack', monospace;font-size:10px;fill:#ff9300;">ubuntu</text><g id="figlet-layer---stopped" serif:id="figlet layer - stopped"><path d="M383.503,106.801c0,-2.444 -1.984,-4.428 -4.428,-4.428l-82.958,0c-2.444,0 -4.428,1.984 -4.428,4.428l0,8.857c0,2.444 1.984,4.428 4.428,4.428l82.958,0c2.444,0 4.428,-1.984 4.428,-4.428l0,-8.857Z" style="fill:#fff;stroke:#c90;stroke-width:1px;stroke-linejoin:round;stroke-miterlimit:1.5;stroke-dasharray:1,1;"/><text x="297.018px" y="113.889px" style="font-family:'Hack-Regular', 'Hack', monospace;font-size:7px;fill:#535353;">figlet</text></g></g><g id="step-1" serif:id="step 1"><text x="70.3px" y="170px" style="font-family:'AppleSDGothicNeo-Bold', 'Apple SD Gothic Neo';font-weight:700;font-size:16px;fill:#01a08d;">❶</text><g transform="matrix(1,0,0,1,-158.244,-50.7494)"><text x="179.486px" y="232.509px" style="font-family:'OpenSans-Italic', 'Open Sans', sans-serif;font-style:italic;font-size:7px;fill:#0095e5;">run</text><text x="192.339px" y="232.509px" style="font-family:'OpenSans-Regular', 'Open Sans', sans-serif;font-size:7px;fill:#535353;"><tspan x="192.339px " y="232.509px ">u</tspan>buntu <tspan x="218.285px " y="232.509px ">c</tspan>ontainer</text></g><g transform="matrix(1,0,0,1,-174.488,-50.3783)"><text x="199.997px" y="240.509px" style="font-family:'OpenSans-Italic', 'Open Sans', sans-serif;font-style:italic;font-size:7px;fill:#0095e5;">apt-get</text><text x="223.674px" y="240.509px" style="font-family:'OpenSans-Regular', 'Open Sans', sans-serif;font-size:7px;fill:#535353;">(install) <tspan x="249.128px " y="240.509px ">ﬁ</tspan>glet</text></g></g><g id="step-2" serif:id="step 2"><text x="404.421px" y="170px" style="font-family:'AppleSDGothicNeo-Bold', 'Apple SD Gothic Neo';font-weight:700;font-size:16px;fill:#01a08d;">❷</text><g transform="matrix(1,0,0,1,-41.3654,-50.8788)"><text x="447.184px" y="232.509px" style="font-family:'OpenSans-Italic', 'Open Sans', sans-serif;font-style:italic;font-size:7px;fill:#0095e5;">commit</text><text x="472.519px" y="232.509px" style="font-family:'OpenSans-Regular', 'Open Sans', sans-serif;font-size:7px;fill:#535353;"><tspan x="472.519px " y="232.509px ">c</tspan>ontainer</text></g><g transform="matrix(1,0,0,1,-41.3654,-50.8788)"><text x="447.184px" y="240.509px" style="font-family:'OpenSans-Italic', 'Open Sans', sans-serif;font-style:italic;font-size:7px;fill:#0095e5;">tag</text><text x="459.552px" y="240.509px" style="font-family:'OpenSans-Regular', 'Open Sans', sans-serif;font-size:7px;fill:#535353;"><tspan x="459.552px " y="240.509px ">o</tspan>urﬁglet</text></g></g><g id="ourfiglet-container" serif:id="ourfiglet container"><g><path d="M349.261,234.835l21.069,0c1.345,0 2.242,0.896 2.242,2.241l0,21.518c0,1.344 -0.897,2.241 -2.242,2.241l-21.069,0c-1.345,0 -2.689,-0.897 -2.689,-2.241l0,-21.518c0,-1.345 1.344,-2.241 2.689,-2.241Z" style="fill:none;stroke:#08d7be;stroke-width:1px;stroke-linejoin:miter;stroke-miterlimit:8;"/><g><path d="M353.572,253.958l-0.001,-13.123" style="fill:none;stroke:#08d7be;stroke-width:1px;stroke-linecap:round;stroke-linejoin:round;"/><path d="M357.572,253.958l-0.001,-13.123" style="fill:none;stroke:#08d7be;stroke-width:1px;stroke-linecap:round;stroke-linejoin:round;"/><path d="M361.572,253.958l-0.001,-13.123" style="fill:none;stroke:#08d7be;stroke-width:1px;stroke-linecap:round;stroke-linejoin:round;"/><path d="M365.572,253.958l-0.001,-13.123" style="fill:none;stroke:#08d7be;stroke-width:1px;stroke-linecap:round;stroke-linejoin:round;"/></g></g><text x="338.084px" y="227.787px" style="font-family:'Hack-Regular', 'Hack', monospace;font-size:9px;fill:#08d7be;">ourfiglet</text></g><g id="arrow"><path d="M130.104,215.151c0,0 -13.745,-26.867 -15.852,-37.377c-1.833,-9.145 3.212,-25.687 3.212,-25.687" style="fill:none;stroke:#06a08d;stroke-width:1px;stroke-linejoin:round;stroke-miterlimit:1.5;"/><path d="M118.035,150.151l1.016,2.567l-3.187,-0.861l2.171,-1.706Z" style="fill:#06a08d;"/></g><g id="arrow1" serif:id="arrow"><path d="M365.588,213.128c0,0 13.745,-26.866 15.852,-37.377c1.833,-9.145 -3.212,-25.686 -3.212,-25.686" style="fill:none;stroke:#06a08d;stroke-width:1px;stroke-linejoin:round;stroke-miterlimit:1.5;"/><path d="M364.806,214.661l2.499,-1.174l-2.912,-1.556l0.413,2.73Z" style="fill:#06a08d;"/></g><g id="arrow2" serif:id="arrow"><path d="M279.57,85.587c0,0 -12.184,-5.635 -28.83,-5.814c-16.646,-0.178 -34.234,5.553 -34.234,5.553" style="fill:none;stroke:#06a08d;stroke-width:1px;stroke-linejoin:round;stroke-miterlimit:1.5;"/><path d="M281.103,86.369l-1.174,-2.499l-1.557,2.912l2.731,-0.413Z" style="fill:#06a08d;"/></g><text x="215.967px" y="73.265px" style="font-family:'OpenSans-Regular', 'Open Sans', sans-serif;font-size:7px;fill:#535353;">ex<tspan x="223.562px " y="73.265px ">i</tspan>t <tspan x="229.804px " y="73.265px ">(</tspan>stop) <tspan x="250.275px " y="73.265px ">c</tspan>ontainer</text></svg>