<?xml version="1.0" encoding="UTF-8" standalone="no"?><!DOCTYPE svg PUBLIC "-//W3C//DTD SVG 1.1//EN" "http://www.w3.org/Graphics/SVG/1.1/DTD/svg11.dtd"><svg width="100%" height="100%" viewBox="0 0 521 387" version="1.1" xmlns="http://www.w3.org/2000/svg" xmlns:xlink="http://www.w3.org/1999/xlink" xml:space="preserve" xmlns:serif="http://www.serif.com/" style="fill-rule:evenodd;clip-rule:evenodd;stroke-linejoin:bevel;stroke-miterlimit:10;"><rect id="hello-world" x="-123.778" y="-111" width="800.007" height="587.952" style="fill:none;"/><g id="title-and-bounding-lines" serif:id="title and bounding lines"><g id="title" transform="matrix(1,0,0,1,-81.4068,-50.4739)"><text x="174.25px" y="107.406px" style="font-family:'OpenSans-Regular', 'Open Sans', sans-serif;font-size:24px;fill:#008ec0;">H</text><text x="192.257px" y="107.406px" style="font-family:'OpenSans-Regular', 'Open Sans', sans-serif;font-size:24px;fill:#008ec0;">e</text><text x="205.222px" y="107.406px" style="font-family:'OpenSans-Regular', 'Open Sans', sans-serif;font-size:24px;fill:#008ec0;">l</text><text x="211.192px" y="107.406px" style="font-family:'OpenSans-Regular', 'Open Sans', sans-serif;font-size:24px;fill:#008ec0;">l</text><text x="217.262px" y="107.406px" style="font-family:'OpenSans-Regular', 'Open Sans', sans-serif;font-size:24px;fill:#008ec0;">o</text><text x="238.241px" y="107.406px" style="font-family:'OpenSans-Regular', 'Open Sans', sans-serif;font-size:24px;fill:#008ec0;">W</text><text x="260.279px" y="107.406px" style="font-family:'OpenSans-Regular', 'Open Sans', sans-serif;font-size:24px;fill:#008ec0;">o</text><text x="274.275px" y="107.406px" style="font-family:'OpenSans-Regular', 'Open Sans', sans-serif;font-size:24px;fill:#008ec0;">r</text><text x="284.272px" y="107.406px" style="font-family:'OpenSans-Regular', 'Open Sans', sans-serif;font-size:24px;fill:#008ec0;">l</text><text x="290.243px" y="107.406px" style="font-family:'OpenSans-Regular', 'Open Sans', sans-serif;font-size:24px;fill:#008ec0;">d</text><text x="305.25px" y="107.406px" style="font-family:'OpenSans-Regular', 'Open Sans', sans-serif;font-size:24px;fill:#008ec0;">:</text><text x="318.283px" y="107.406px" style="font-family:'OpenSans-Regular', 'Open Sans', sans-serif;font-size:24px;fill:#008ec0;">W</text><text x="340.302px" y="107.406px" style="font-family:'OpenSans-Regular', 'Open Sans', sans-serif;font-size:24px;fill:#008ec0;">h</text><text x="355.332px" y="107.406px" style="font-family:'OpenSans-Regular', 'Open Sans', sans-serif;font-size:24px;fill:#008ec0;">a</text><text x="368.28px" y="107.406px" style="font-family:'OpenSans-Regular', 'Open Sans', sans-serif;font-size:24px;fill:#008ec0;">t</text><text x="383.235px" y="107.406px" style="font-family:'OpenSans-Regular', 'Open Sans', sans-serif;font-size:24px;fill:#008ec0;">H</text><text x="401.242px" y="107.406px" style="font-family:'OpenSans-Regular', 'Open Sans', sans-serif;font-size:24px;fill:#008ec0;">a</text><text x="414.29px" y="107.406px" style="font-family:'OpenSans-Regular', 'Open Sans', sans-serif;font-size:24px;fill:#008ec0;">p<tspan x="429.297px " y="107.406px ">p</tspan></text><text x="444.304px" y="107.406px" style="font-family:'OpenSans-Regular', 'Open Sans', sans-serif;font-size:24px;fill:#008ec0;">e</text><text x="457.269px" y="107.406px" style="font-family:'OpenSans-Regular', 'Open Sans', sans-serif;font-size:24px;fill:#008ec0;">n</text><text x="472.299px" y="107.406px" style="font-family:'OpenSans-Regular', 'Open Sans', sans-serif;font-size:24px;fill:#008ec0;">e</text><text x="485.264px" y="107.406px" style="font-family:'OpenSans-Regular', 'Open Sans', sans-serif;font-size:24px;fill:#008ec0;">d<tspan x="500.271px " y="107.406px ">?</tspan></text></g><path d="M86.093,22.026l351.458,0" style="fill:none;stroke:#a7a7a7;stroke-width:1px;"/><path d="M85.093,368.026l351.458,0" style="fill:none;stroke:#a7a7a7;stroke-width:1px;"/></g><g><rect x="156.593" y="225.526" width="327" height="126" style="fill:#171717;"/><text x="159.759px" y="236.876px" style="font-family:'CourierNewPS-BoldMT', 'Courier New', monospace;font-weight:700;font-size:10px;fill:#fff;">$ docker run hello-world</text><text x="159.759px" y="248.876px" style="font-family:'CourierNewPS-BoldMT', 'Courier New', monospace;font-weight:700;font-size:10px;fill:#fff;">Unable to ﬁnd image locally</text><g transform="matrix(1,0,0,1,-81.4068,-50.4739)"><text x="241.165px" y="311.35px" style="font-family:'CourierNewPS-BoldMT', 'Courier New', monospace;font-weight:700;font-size:10px;fill:#ef4a52;">latest</text><text x="277.171px" y="311.35px" style="font-family:'CourierNewPS-BoldMT', 'Courier New', monospace;font-weight:700;font-size:10px;fill:#fff;">: Pulling from</text><text x="367.186px" y="311.35px" style="font-family:'CourierNewPS-BoldMT', 'Courier New', monospace;font-weight:700;font-size:10px;fill:#ef4a52;">library</text><text x="409.193px" y="311.35px" style="font-family:'CourierNewPS-BoldMT', 'Courier New', monospace;font-weight:700;font-size:10px;fill:#535353;">/</text><text x="415.194px" y="311.35px" style="font-family:'CourierNewPS-BoldMT', 'Courier New', monospace;font-weight:700;font-size:10px;fill:#ef4a52;">hello-world</text></g><g transform="matrix(1,0,0,1,-81.4068,-50.4739)"><text x="241.165px" y="335.35px" style="font-family:'CourierNewPS-BoldMT', 'Courier New', monospace;font-weight:700;font-size:10px;fill:#fff;">Status: Downloaded newer image for</text><text x="451.2px" y="335.35px" style="font-family:'CourierNewPS-BoldMT', 'Courier New', monospace;font-weight:700;font-size:10px;fill:#ef4a52;">hello-world:latest</text></g><text x="159.759px" y="308.876px" style="font-family:'CourierNewPS-BoldMT', 'Courier New', monospace;font-weight:700;font-size:10px;fill:#fff;">Hello from Docker!</text><text x="159.759px" y="320.876px" style="font-family:'CourierNewPS-BoldMT', 'Courier New', monospace;font-weight:700;font-size:10px;fill:#fff;">.</text><text x="159.759px" y="332.876px" style="font-family:'CourierNewPS-BoldMT', 'Courier New', monospace;font-weight:700;font-size:10px;fill:#fff;">.</text><text x="159.759px" y="344.876px" style="font-family:'CourierNewPS-BoldMT', 'Courier New', monospace;font-weight:700;font-size:10px;fill:#fff;">.</text></g><g><path d="M59.91,300.242c-0.763,0 -1.356,0.57 -1.356,1.302c0,0.733 0.593,1.303 1.356,1.303c0.762,0 1.355,-0.57 1.355,-1.303c0,-0.732 -0.593,-1.302 -1.355,-1.302Zm-0.17,1.302c0,-0.081 0.085,-0.163 0.17,-0.163c0.085,0 0.169,0.082 0.169,0.163c0,0.245 -0.339,0.245 -0.339,0Zm26.092,-0.732l-10.335,0c-0.423,0 -0.762,0.325 -0.762,0.732c0,0.408 0.339,0.733 0.762,0.733l10.335,0c0.424,0 0.763,-0.325 0.763,-0.733c0,-0.407 -0.339,-0.732 -0.763,-0.732Zm-20.246,11.56c-0.763,0 -1.356,0.57 -1.356,1.303c0,0.732 0.593,1.303 1.356,1.303c0.762,0 1.355,-0.571 1.355,-1.303c0,-0.733 -0.593,-1.303 -1.355,-1.303Zm-0.17,1.303c0,-0.163 0.085,-0.244 0.17,-0.244c0.169,0 0.254,0.081 0.254,0.244c0,0.163 -0.424,0.163 -0.424,0Zm20.416,-0.814l-10.335,0c-0.423,0 -0.762,0.407 -0.762,0.814c0,0.407 0.339,0.732 0.762,0.732l10.335,0c0.424,0 0.763,-0.325 0.763,-0.732c0,-0.407 -0.339,-0.814 -0.763,-0.814Zm-20.246,-12.619c-0.763,0 -1.356,0.57 -1.356,1.302c0,0.733 0.593,1.303 1.356,1.303c0.762,0 1.355,-0.57 1.355,-1.303c0,-0.732 -0.593,-1.302 -1.355,-1.302Zm-0.17,1.302c0,-0.081 0.085,-0.163 0.17,-0.163c0.169,0 0.254,0.082 0.254,0.163c0,0.245 -0.424,0.245 -0.424,0Zm-11.182,-1.302c-0.763,0 -1.356,0.57 -1.356,1.302c0,0.733 0.593,1.303 1.356,1.303c0.762,0 1.355,-0.57 1.355,-1.303c0,-0.732 -0.593,-1.302 -1.355,-1.302Zm-0.17,1.302c0,-0.081 0.085,-0.163 0.17,-0.163c0.085,0 0.169,0.082 0.169,0.163c0,0.245 -0.339,0.245 -0.339,0Zm5.846,10.828c-0.763,0 -1.356,0.57 -1.356,1.303c0,0.732 0.593,1.303 1.356,1.303c0.762,0 1.355,-0.571 1.355,-1.303c0,-0.733 -0.593,-1.303 -1.355,-1.303Zm-0.17,1.303c0,-0.163 0.085,-0.244 0.17,-0.244c0.085,0 0.169,0.081 0.169,0.244c0,0.163 -0.339,0.163 -0.339,0Zm-5.506,-1.303c-0.763,0 -1.356,0.57 -1.356,1.303c0,0.732 0.593,1.303 1.356,1.303c0.762,0 1.355,-0.571 1.355,-1.303c0,-0.733 -0.593,-1.303 -1.355,-1.303Zm-0.17,1.303c0,-0.163 0.085,-0.244 0.17,-0.244c0.085,0 0.169,0.081 0.169,0.244c0,0.163 -0.339,0.163 -0.339,0Zm11.522,-37.613c-0.763,0 -1.356,0.57 -1.356,1.302c0,0.733 0.593,1.303 1.356,1.303c0.762,0 1.355,-0.57 1.355,-1.303c0,-0.732 -0.593,-1.302 -1.355,-1.302Zm-0.17,1.302c0,-0.081 0.085,-0.162 0.17,-0.162c0.169,0 0.254,0.081 0.254,0.162c0,0.245 -0.424,0.245 -0.424,0Zm-5.506,-1.302c-0.763,0 -1.356,0.57 -1.356,1.302c0,0.733 0.593,1.303 1.356,1.303c0.762,0 1.355,-0.57 1.355,-1.303c0,-0.732 -0.593,-1.302 -1.355,-1.302Zm-0.17,1.302c0,-0.081 0.085,-0.162 0.17,-0.162c0.085,0 0.169,0.081 0.169,0.162c0,0.245 -0.339,0.245 -0.339,0Zm26.092,-0.732l-10.335,0c-0.423,0 -0.762,0.326 -0.762,0.732c0,0.408 0.339,0.733 0.762,0.733l10.335,0c0.424,0 0.763,-0.325 0.763,-0.733c0,-0.406 -0.339,-0.732 -0.763,-0.732Zm5.761,-3.582c0,-1.384 -1.186,-2.524 -2.626,-2.524l-40.748,0c-1.44,0 -2.626,1.14 -2.626,2.524l0,8.63c0,0.651 0.254,1.302 0.762,1.709c-0.508,0.489 -0.762,1.058 -0.762,1.791l0,8.549c0,0.732 0.254,1.302 0.762,1.791c-0.508,0.407 -0.762,1.058 -0.762,1.709l0,8.63c0,0.651 0.254,1.303 0.762,1.71c-0.508,0.488 -0.762,1.14 -0.762,1.791l0,8.549c0,1.383 1.186,2.523 2.626,2.523l3.135,0l0,1.629c0,0.814 0.677,1.465 1.524,1.465l6.269,0c0.932,0 1.61,-0.651 1.61,-1.465l0,-1.629l14.656,0l0,1.629c0,0.814 0.677,1.465 1.609,1.465l6.269,0c0.847,0 1.525,-0.651 1.525,-1.465l0,-1.629l4.151,0c1.44,0 2.626,-1.14 2.626,-2.523l0,-8.549c0,-0.651 -0.339,-1.303 -0.762,-1.791c0.423,-0.407 0.762,-1.059 0.762,-1.71l0,-8.63c0,-0.651 -0.339,-1.302 -0.762,-1.709c0.423,-0.489 0.762,-1.059 0.762,-1.791l0,-8.549c0,-0.733 -0.339,-1.302 -0.762,-1.791c0.423,-0.407 0.762,-1.058 0.762,-1.709l0,-8.63Zm-32.446,49.011l-6.269,0l0,-1.629l6.269,0l0,1.629Zm24.144,0l-6.269,0l0,-1.629l6.269,0l0,1.629Zm6.693,-4.152c0,0.569 -0.424,1.058 -1.017,1.058l-40.748,0c-0.593,0 -1.101,-0.489 -1.101,-1.058l0,-8.549c0,-0.57 0.508,-0.977 1.101,-0.977l40.748,0c0.593,0 1.017,0.407 1.017,0.977l0,8.549Zm0,-12.05c0,0.57 -0.424,0.977 -1.017,0.977l-40.748,0c-0.593,0 -1.101,-0.407 -1.101,-0.977l0,-8.63c0,-0.488 0.508,-0.977 1.101,-0.977l40.748,0c0.593,0 1.017,0.489 1.017,0.977l0,8.63Zm0,-12.13c0,0.569 -0.424,1.058 -1.017,1.058l-40.748,0c-0.593,0 -1.101,-0.489 -1.101,-1.058l0,-8.549c0,-0.57 0.508,-1.058 1.101,-1.058l40.748,0c0.593,0 1.017,0.488 1.017,1.058l0,8.549Zm0,-12.049c0,0.488 -0.424,0.977 -1.017,0.977l-40.748,0c-0.593,0 -1.101,-0.489 -1.101,-0.977l0,-8.63c0,-0.57 0.508,-0.977 1.101,-0.977l40.748,0c0.593,0 1.017,0.407 1.017,0.977l0,8.63Zm-30.074,6.431c-0.763,0 -1.356,0.652 -1.356,1.303c0,0.732 0.593,1.384 1.356,1.384c0.762,0 1.355,-0.652 1.355,-1.384c0,-0.651 -0.593,-1.303 -1.355,-1.303Zm-0.17,1.303c0,-0.082 0.085,-0.163 0.17,-0.163c0.085,0 0.169,0.081 0.169,0.163c0,0.244 -0.339,0.244 -0.339,0Zm-5.506,-1.303c-0.763,0 -1.356,0.652 -1.356,1.303c0,0.732 0.593,1.384 1.356,1.384c0.762,0 1.355,-0.652 1.355,-1.384c0,-0.651 -0.593,-1.303 -1.355,-1.303Zm-0.17,1.303c0,-0.082 0.085,-0.163 0.17,-0.163c0.085,0 0.169,0.081 0.169,0.163c0,0.244 -0.339,0.244 -0.339,0Zm11.522,-1.303c-0.763,0 -1.356,0.652 -1.356,1.303c0,0.732 0.593,1.384 1.356,1.384c0.762,0 1.355,-0.652 1.355,-1.384c0,-0.651 -0.593,-1.303 -1.355,-1.303Zm-0.17,1.303c0,-0.082 0.085,-0.163 0.17,-0.163c0.169,0 0.254,0.081 0.254,0.163c0,0.244 -0.424,0.244 -0.424,0Zm20.416,-0.733l-10.335,0c-0.423,0 -0.762,0.326 -0.762,0.733c0,0.488 0.339,0.814 0.762,0.814l10.335,0c0.424,0 0.763,-0.326 0.763,-0.814c0,-0.407 -0.339,-0.733 -0.763,-0.733Zm-31.598,-12.619c-0.763,0 -1.356,0.57 -1.356,1.302c0,0.733 0.593,1.303 1.356,1.303c0.762,0 1.355,-0.57 1.355,-1.303c0,-0.732 -0.593,-1.302 -1.355,-1.302Zm-0.17,1.302c0,-0.081 0.085,-0.162 0.17,-0.162c0.085,0 0.169,0.081 0.169,0.162c0,0.245 -0.339,0.245 -0.339,0Z" style="fill:#394e55;"/><rect x="51.593" y="285.526" width="35" height="10" style="fill:#fff;"/><rect x="50.593" y="289.526" width="38" height="15" style="fill:#fff;"/><path d="M71.586,294.162l3.147,0l0,-2.495l-3.147,0l0,2.495Zm-3.566,0l3.146,0l0,-2.495l-3.146,0l0,2.495Zm-3.567,0l2.937,0l0,-2.495l-2.937,0l0,2.495Zm-3.776,0l3.147,0l0,-2.495l-3.147,0l0,2.495Zm-3.567,0l3.147,0l0,-2.495l-3.147,0l0,2.495Zm3.567,-3.07l3.147,0l0,-2.495l-3.147,0l0,2.495Zm3.776,0l2.937,0l0,-2.495l-2.937,0l0,2.495Zm3.567,0l3.146,0l0,-2.495l-3.146,0l0,2.495Zm0,-3.071l3.146,0l0,-2.495l-3.146,0l0,2.495Zm15.944,4.798c-0.63,-0.576 -2.098,-0.576 -3.357,-0.384c-0.21,-1.151 -0.839,-1.919 -1.888,-2.687l-0.629,-0.575l-0.42,0.767c-0.629,0.768 -0.839,1.727 -0.839,2.687c0,0.384 0.21,1.152 0.629,1.727c-0.419,0.192 -1.259,0.384 -2.308,0.384l-20.139,0l-0.21,0.192c-0.21,0.96 -0.21,4.222 2.098,6.717c1.888,1.919 4.405,2.879 7.762,2.879c7.343,0 12.797,-3.071 15.315,-8.828c1.049,0 3.146,0 4.195,-1.919c0,0 0.21,-0.192 0.42,-0.384l0,-0.192l-0.629,-0.384Z" style="fill:#1aaaf8;"/></g><g><path d="M28.593,229.713c0,-0.656 0.531,-1.187 1.187,-1.187l77.627,0c0.655,0 1.186,0.531 1.186,1.187l0,16.627c0,0.655 -0.531,1.186 -1.186,1.186l-77.627,0c-0.656,0 -1.187,-0.531 -1.187,-1.186l0,-16.627Z" style="fill:#0095e5;fill-rule:nonzero;"/><g transform="matrix(1,0,0,1,-81.4068,-50.4739)"><text x="115.911px" y="292.066px" style="font-family:'ArialMT', 'Arial', sans-serif;font-size:10px;fill:#fff;">D</text><text x="122.933px" y="292.066px" style="font-family:'ArialMT', 'Arial', sans-serif;font-size:10px;fill:#fff;">o</text><text x="128.894px" y="292.066px" style="font-family:'ArialMT', 'Arial', sans-serif;font-size:10px;fill:#fff;">ck</text><text x="138.894px" y="292.066px" style="font-family:'ArialMT', 'Arial', sans-serif;font-size:10px;fill:#fff;">e</text><text x="144.856px" y="292.066px" style="font-family:'ArialMT', 'Arial', sans-serif;font-size:10px;fill:#fff;">r</text><text x="149.914px" y="292.066px" style="font-family:'ArialMT', 'Arial', sans-serif;font-size:10px;fill:#fff;">E</text><text x="156.934px" y="292.066px" style="font-family:'ArialMT', 'Arial', sans-serif;font-size:10px;fill:#fff;">n<tspan x="162.896px " y="292.066px ">g</tspan></text><text x="168.857px" y="292.066px" style="font-family:'ArialMT', 'Arial', sans-serif;font-size:10px;fill:#fff;">i</text><text x="170.929px" y="292.066px" style="font-family:'ArialMT', 'Arial', sans-serif;font-size:10px;fill:#fff;">n</text><text x="176.89px" y="292.066px" style="font-family:'ArialMT', 'Arial', sans-serif;font-size:10px;fill:#fff;">e</text></g></g><g><path d="M28.593,250.65c0,-0.621 0.503,-1.124 1.124,-1.124l77.752,0c0.621,0 1.124,0.503 1.124,1.124l0,15.752c0,0.621 -0.503,1.124 -1.124,1.124l-77.752,0c-0.621,0 -1.124,-0.503 -1.124,-1.124l0,-15.752Z" style="fill:#004a72;fill-rule:nonzero;"/><g transform="matrix(1,0,0,1,-81.4068,-50.4739)"><text x="136.911px" y="313.35px" style="font-family:'ArialMT', 'Arial', sans-serif;font-size:10px;fill:#fff;">L</text><text x="142.873px" y="313.35px" style="font-family:'ArialMT', 'Arial', sans-serif;font-size:10px;fill:#fff;">i</text><text x="144.894px" y="313.35px" style="font-family:'ArialMT', 'Arial', sans-serif;font-size:10px;fill:#fff;">n<tspan x="150.856px " y="313.35px ">u</tspan></text><text x="156.817px" y="313.35px" style="font-family:'ArialMT', 'Arial', sans-serif;font-size:10px;fill:#fff;">x</text></g></g><g transform="matrix(1,0,0,1,-81.4068,-50.4739)"><text x="92.169px" y="393.12px" style="font-family:'OpenSans-Regular', 'Open Sans', sans-serif;font-size:12px;fill:#535353;">p</text><text x="99.123px" y="393.12px" style="font-family:'OpenSans-Regular', 'Open Sans', sans-serif;font-size:12px;fill:#535353;">l</text><text x="102.158px" y="393.12px" style="font-family:'OpenSans-Regular', 'Open Sans', sans-serif;font-size:12px;fill:#535353;">a</text><text x="109.132px" y="393.12px" style="font-family:'OpenSans-Regular', 'Open Sans', sans-serif;font-size:12px;fill:#535353;">y</text><text x="115.179px" y="393.12px" style="font-family:'OpenSans-Regular', 'Open Sans', sans-serif;font-size:12px;fill:#535353;">-</text><text x="119.14px" y="393.12px" style="font-family:'OpenSans-Regular', 'Open Sans', sans-serif;font-size:12px;fill:#535353;">w</text><text x="128.174px" y="393.12px" style="font-family:'OpenSans-Regular', 'Open Sans', sans-serif;font-size:12px;fill:#535353;">i</text><text x="131.209px" y="393.12px" style="font-family:'OpenSans-Regular', 'Open Sans', sans-serif;font-size:12px;fill:#535353;">t</text><text x="135.246px" y="393.12px" style="font-family:'OpenSans-Regular', 'Open Sans', sans-serif;font-size:12px;fill:#535353;">h</text><text x="142.211px" y="393.12px" style="font-family:'OpenSans-Regular', 'Open Sans', sans-serif;font-size:12px;fill:#535353;">-</text><text x="146.172px" y="393.12px" style="font-family:'OpenSans-Regular', 'Open Sans', sans-serif;font-size:12px;fill:#535353;">d</text><text x="153.126px" y="393.12px" style="font-family:'OpenSans-Regular', 'Open Sans', sans-serif;font-size:12px;fill:#535353;">o</text><text x="160.174px" y="393.12px" style="font-family:'OpenSans-Regular', 'Open Sans', sans-serif;font-size:12px;fill:#535353;">c</text><text x="166.187px" y="393.12px" style="font-family:'OpenSans-Regular', 'Open Sans', sans-serif;font-size:12px;fill:#535353;">k</text><text x="172.245px" y="393.12px" style="font-family:'OpenSans-Regular', 'Open Sans', sans-serif;font-size:12px;fill:#535353;">e</text><text x="179.178px" y="393.12px" style="font-family:'OpenSans-Regular', 'Open Sans', sans-serif;font-size:12px;fill:#535353;">r</text><text x="184.176px" y="393.12px" style="font-family:'OpenSans-Regular', 'Open Sans', sans-serif;font-size:12px;fill:#535353;">.</text><text x="187.169px" y="393.12px" style="font-family:'OpenSans-Regular', 'Open Sans', sans-serif;font-size:12px;fill:#535353;">c</text><text x="193.182px" y="393.12px" style="font-family:'OpenSans-Regular', 'Open Sans', sans-serif;font-size:12px;fill:#535353;">o</text><text x="200.23px" y="393.12px" style="font-family:'OpenSans-Regular', 'Open Sans', sans-serif;font-size:12px;fill:#535353;">m</text></g><text x="487.317px" y="285.496px" style="font-family:'AppleSDGothicNeo-Bold', 'Apple SD Gothic Neo';font-weight:700;font-size:16px;fill:#01a08d;">❹</text><text x="132.1px" y="265.475px" style="font-family:'AppleSDGothicNeo-Bold', 'Apple SD Gothic Neo';font-weight:700;font-size:16px;fill:#01a08d;">❷</text><text x="132.008px" y="240.008px" style="font-family:'AppleSDGothicNeo-Bold', 'Apple SD Gothic Neo';font-weight:700;font-size:16px;fill:#01a08d;">❶</text><text x="359.85px" y="121.118px" style="font-family:'AppleSDGothicNeo-Bold', 'Apple SD Gothic Neo';font-weight:700;font-size:14px;fill:#01a08d;">❸</text><g transform="matrix(1,0,0,1,-81.4068,-50.4739)"><text x="439.624px" y="219.865px" style="font-family:'CourierNewPS-BoldMT', 'Courier New', monospace;font-weight:700;font-size:9px;fill:#ef4a52;">h<tspan x="444.624px 449.625px 454.626px 459.627px " y="219.865px 219.865px 219.865px 219.865px ">ello</tspan></text><text x="464.628px" y="219.865px" style="font-family:'CourierNewPS-BoldMT', 'Courier New', monospace;font-weight:700;font-size:9px;fill:#ef4a52;">-</text></g><path d="M434.126,133.527l2.983,0.195l0.063,0.009l2.978,0.577l0.082,0.024l5.915,2.253l0.087,0.043l5.822,3.634l0.062,0.046l5.681,4.916l0.045,0.044l5.495,6.1l0.032,0.04l5.262,7.185l0.023,0.036l4.982,8.172l0.018,0.032l4.656,9.06l0.013,0.029l4.283,9.85l0.011,0.027l3.863,10.541l0.008,0.026l3.397,11.132l0.007,0.026l2.884,11.625l0.005,0.026l2.324,12.02l0.004,0.026l1.718,12.316l0.003,0.027l1.065,12.513l0.001,0.028l0.192,6.615l2.499,-0.072l-2.825,6.084l-3.173,-5.911l2.499,-0.072l-0.191,-6.601l-1.062,-12.486l-1.714,-12.29l-2.319,-11.995l-2.877,-11.6l-3.389,-11.106l-3.853,-10.514l-4.27,-9.821l-4.64,-9.03l-4.962,-8.139l-5.234,-7.148l-5.457,-6.059l-5.629,-4.871l-5.747,-3.587l-5.829,-2.22l-2.904,-0.564l-2.953,-0.193l0.066,-0.998Z" style="fill:#01a08d;fill-rule:nonzero;"/><path d="M277.119,150.61l7.059,-0.372l0.05,-0.005l6.837,-1.05l0.047,-0.01l6.394,-1.631l0.049,-0.016l5.729,-2.116l0.056,-0.025l4.841,-2.504l0.07,-0.044l3.733,-2.795l0.065,-0.058l1.382,-1.476l0.049,-0.062l1.021,-1.513l0.048,-0.089l0.633,-1.537l0.032,-0.121l0.218,-1.548l0.208,-1.487l0.589,-1.431l0.971,-1.437l1.324,-1.415l3.664,-2.743l4.777,-2.471l5.674,-2.097l6.345,-1.619l6.788,-1.042l1.042,-0.055l0.132,2.496l5.834,-3.311l-6.15,-2.68l0.132,2.496l-1.067,0.056l-0.05,0.005l-6.837,1.051l-0.048,0.009l-6.393,1.632l-0.05,0.015l-5.728,2.117l-0.056,0.024l-4.842,2.504l-0.07,0.044l-3.732,2.795l-0.066,0.059l-1.381,1.476l-0.049,0.062l-1.021,1.512l-0.048,0.089l-0.633,1.537l-0.033,0.121l-0.217,1.549l-0.208,1.486l-0.59,1.431l-0.97,1.437l-1.324,1.415l-3.664,2.744l-4.777,2.471l-5.675,2.096l-6.344,1.619l-6.788,1.043l-7.034,0.37l0.052,0.999Z" style="fill:#01a08d;fill-rule:nonzero;"/><g><path d="M388.955,110.026l38.086,0c2.431,0 4.052,1.62 4.052,4.052l0,38.896c0,2.431 -1.621,4.052 -4.052,4.052l-38.086,0c-2.431,0 -4.862,-1.621 -4.862,-4.052l0,-38.896c0,-2.432 2.431,-4.052 4.862,-4.052Z" style="fill:none;stroke:#ef4a52;stroke-width:1px;stroke-linejoin:miter;stroke-miterlimit:8;"/><path d="M397.093,143.585l0,-23.559" style="fill:none;stroke:#ef4a52;stroke-width:1px;stroke-linecap:round;stroke-linejoin:round;"/><path d="M404.093,143.585l0,-23.559" style="fill:none;stroke:#ef4a52;stroke-width:1px;stroke-linecap:round;stroke-linejoin:round;"/><path d="M411.093,143.585l0,-23.559" style="fill:none;stroke:#ef4a52;stroke-width:1px;stroke-linecap:round;stroke-linejoin:round;"/><path d="M418.093,143.585l0,-23.559" style="fill:none;stroke:#ef4a52;stroke-width:1px;stroke-linecap:round;stroke-linejoin:round;"/></g><g transform="matrix(1,0,0,1,-81.4068,-50.4739)"><text x="469.624px" y="219.865px" style="font-family:'CourierNewPS-BoldMT', 'Courier New', monospace;font-weight:700;font-size:9px;fill:#ef4a52;">w<tspan x="474.624px 479.625px 484.626px 489.627px 494.628px 499.629px " y="219.865px 219.865px 219.865px 219.865px 219.865px 219.865px ">orld:l</tspan></text><text x="504.63px" y="219.865px" style="font-family:'CourierNewPS-BoldMT', 'Courier New', monospace;font-weight:700;font-size:9px;fill:#ef4a52;">a</text><text x="510.631px" y="219.865px" style="font-family:'CourierNewPS-BoldMT', 'Courier New', monospace;font-weight:700;font-size:9px;fill:#ef4a52;">t<tspan x="515.632px " y="219.865px ">e</tspan></text><text x="520.632px" y="219.865px" style="font-family:'CourierNewPS-BoldMT', 'Courier New', monospace;font-weight:700;font-size:9px;fill:#ef4a52;">s</text><text x="526.633px" y="219.865px" style="font-family:'CourierNewPS-BoldMT', 'Courier New', monospace;font-weight:700;font-size:9px;fill:#ef4a52;">t</text></g><g transform="matrix(1,0,0,1,-81.4068,-50.4739)"><text x="464.975px" y="151.724px" style="font-family:'OpenSans-BoldItalic', 'Open Sans', sans-serif;font-weight:700;font-style:italic;font-size:16px;fill:#08d7be;">I</text><text x="469.973px" y="151.724px" style="font-family:'OpenSans-BoldItalic', 'Open Sans', sans-serif;font-weight:700;font-style:italic;font-size:16px;fill:#08d7be;">m</text><text x="483.95px" y="151.724px" style="font-family:'OpenSans-BoldItalic', 'Open Sans', sans-serif;font-weight:700;font-style:italic;font-size:16px;fill:#08d7be;">a</text><text x="493.958px" y="151.724px" style="font-family:'OpenSans-BoldItalic', 'Open Sans', sans-serif;font-weight:700;font-style:italic;font-size:16px;fill:#08d7be;">g</text><text x="502.964px" y="151.724px" style="font-family:'OpenSans-BoldItalic', 'Open Sans', sans-serif;font-weight:700;font-style:italic;font-size:16px;fill:#08d7be;">e</text></g><g transform="matrix(1,0,0,1,-81.4068,-50.4739)"><text x="218.603px" y="152.625px" style="font-family:'OpenSans-BoldItalic', 'Open Sans', sans-serif;font-weight:700;font-style:italic;font-size:16px;fill:#08d7be;">R</text><text x="228.645px" y="152.625px" style="font-family:'OpenSans-BoldItalic', 'Open Sans', sans-serif;font-weight:700;font-style:italic;font-size:16px;fill:#08d7be;">e</text><text x="237.559px" y="152.625px" style="font-family:'OpenSans-BoldItalic', 'Open Sans', sans-serif;font-weight:700;font-style:italic;font-size:16px;fill:#08d7be;">g</text><text x="246.616px" y="152.625px" style="font-family:'OpenSans-BoldItalic', 'Open Sans', sans-serif;font-weight:700;font-style:italic;font-size:16px;fill:#08d7be;">i</text><text x="251.616px" y="152.625px" style="font-family:'OpenSans-BoldItalic', 'Open Sans', sans-serif;font-weight:700;font-style:italic;font-size:16px;fill:#08d7be;">s<tspan x="259.586px " y="152.625px ">t</tspan></text><text x="266.548px" y="152.625px" style="font-family:'OpenSans-BoldItalic', 'Open Sans', sans-serif;font-weight:700;font-style:italic;font-size:16px;fill:#08d7be;">r<tspan x="273.583px " y="152.625px ">y</tspan></text></g><g transform="matrix(1,0,0,1,-81.4068,-50.4739)"><text x="218.603px" y="166.626px" style="font-family:'OpenSans-Regular', 'Open Sans', sans-serif;font-size:10px;fill:#00f;">h</text><text x="224.641px" y="166.626px" style="font-family:'OpenSans-Regular', 'Open Sans', sans-serif;font-size:10px;fill:#00f;">t</text><text x="228.671px" y="166.626px" style="font-family:'OpenSans-Regular', 'Open Sans', sans-serif;font-size:10px;fill:#00f;">t</text><text x="232.601px" y="166.626px" style="font-family:'OpenSans-Regular', 'Open Sans', sans-serif;font-size:10px;fill:#00f;">p</text><text x="238.629px" y="166.626px" style="font-family:'OpenSans-Regular', 'Open Sans', sans-serif;font-size:10px;fill:#00f;">s</text><text x="243.6px" y="166.626px" style="font-family:'OpenSans-Regular', 'Open Sans', sans-serif;font-size:10px;fill:#00f;">:<tspan x="246.561px " y="166.626px ">/</tspan></text><text x="250.533px" y="166.626px" style="font-family:'OpenSans-Regular', 'Open Sans', sans-serif;font-size:10px;fill:#00f;">/</text><text x="254.605px" y="166.626px" style="font-family:'OpenSans-Regular', 'Open Sans', sans-serif;font-size:10px;fill:#00f;">s</text><text x="259.575px" y="166.626px" style="font-family:'OpenSans-Regular', 'Open Sans', sans-serif;font-size:10px;fill:#00f;">t</text><text x="263.605px" y="166.626px" style="font-family:'OpenSans-Regular', 'Open Sans', sans-serif;font-size:10px;fill:#00f;">o</text><text x="269.645px" y="166.626px" style="font-family:'OpenSans-Regular', 'Open Sans', sans-serif;font-size:10px;fill:#00f;">r</text><text x="273.627px" y="166.626px" style="font-family:'OpenSans-Regular', 'Open Sans', sans-serif;font-size:10px;fill:#00f;">e</text><text x="279.588px" y="166.626px" style="font-family:'OpenSans-Regular', 'Open Sans', sans-serif;font-size:10px;fill:#00f;">.</text><text x="282.549px" y="166.626px" style="font-family:'OpenSans-Regular', 'Open Sans', sans-serif;font-size:10px;fill:#00f;">d</text><text x="288.577px" y="166.626px" style="font-family:'OpenSans-Regular', 'Open Sans', sans-serif;font-size:10px;fill:#00f;">o</text><text x="294.617px" y="166.626px" style="font-family:'OpenSans-Regular', 'Open Sans', sans-serif;font-size:10px;fill:#00f;">c</text><text x="298.628px" y="166.626px" style="font-family:'OpenSans-Regular', 'Open Sans', sans-serif;font-size:10px;fill:#00f;">k</text><text x="303.627px" y="166.626px" style="font-family:'OpenSans-Regular', 'Open Sans', sans-serif;font-size:10px;fill:#00f;">e</text><text x="309.587px" y="166.626px" style="font-family:'OpenSans-Regular', 'Open Sans', sans-serif;font-size:10px;fill:#00f;">r</text><text x="313.569px" y="166.626px" style="font-family:'OpenSans-Regular', 'Open Sans', sans-serif;font-size:10px;fill:#00f;">.<tspan x="316.53px " y="166.626px ">c</tspan></text><text x="321.591px" y="166.626px" style="font-family:'OpenSans-Regular', 'Open Sans', sans-serif;font-size:10px;fill:#00f;">o</text><text x="327.631px" y="166.626px" style="font-family:'OpenSans-Regular', 'Open Sans', sans-serif;font-size:10px;fill:#00f;">m</text></g><g transform="matrix(1,0,0,1,-81.4068,-50.4739)"><text x="218.603px" y="189.626px" style="font-family:'OpenSans-Regular', 'Open Sans', sans-serif;font-size:10px;fill:#394e55;">R</text><text x="224.585px" y="189.626px" style="font-family:'OpenSans-Regular', 'Open Sans', sans-serif;font-size:10px;fill:#394e55;">e</text><text x="230.595px" y="189.626px" style="font-family:'OpenSans-Regular', 'Open Sans', sans-serif;font-size:10px;fill:#394e55;">p</text><text x="236.623px" y="189.626px" style="font-family:'OpenSans-Regular', 'Open Sans', sans-serif;font-size:10px;fill:#394e55;">o</text><text x="242.663px" y="189.626px" style="font-family:'OpenSans-Regular', 'Open Sans', sans-serif;font-size:10px;fill:#394e55;">s</text><text x="247.583px" y="189.626px" style="font-family:'OpenSans-Regular', 'Open Sans', sans-serif;font-size:10px;fill:#394e55;">i</text><text x="250.613px" y="189.626px" style="font-family:'OpenSans-Regular', 'Open Sans', sans-serif;font-size:10px;fill:#394e55;">t</text><text x="254.593px" y="189.626px" style="font-family:'OpenSans-Regular', 'Open Sans', sans-serif;font-size:10px;fill:#394e55;">o</text><text x="260.633px" y="189.626px" style="font-family:'OpenSans-Regular', 'Open Sans', sans-serif;font-size:10px;fill:#394e55;">r</text><text x="264.615px" y="189.626px" style="font-family:'OpenSans-Regular', 'Open Sans', sans-serif;font-size:10px;fill:#394e55;">y:</text><text x="281.616px" y="189.626px" style="font-family:'CourierNewPS-BoldMT', 'Courier New', monospace;font-weight:700;font-size:10px;fill:#ef4a52;">library</text></g><g transform="matrix(1,0,0,1,-81.4068,-50.4739)"><text x="218.603px" y="201.626px" style="font-family:'OpenSans-Regular', 'Open Sans', sans-serif;font-size:10px;fill:#394e55;">I</text><text x="221.591px" y="201.626px" style="font-family:'OpenSans-Regular', 'Open Sans', sans-serif;font-size:10px;fill:#394e55;">m</text><text x="230.593px" y="201.626px" style="font-family:'OpenSans-Regular', 'Open Sans', sans-serif;font-size:10px;fill:#394e55;">a</text><text x="236.604px" y="201.626px" style="font-family:'OpenSans-Regular', 'Open Sans', sans-serif;font-size:10px;fill:#394e55;">g</text><text x="241.583px" y="201.626px" style="font-family:'OpenSans-Regular', 'Open Sans', sans-serif;font-size:10px;fill:#394e55;">e</text><text x="247.593px" y="201.626px" style="font-family:'OpenSans-Regular', 'Open Sans', sans-serif;font-size:10px;fill:#394e55;">:</text></g><text x="200.196px" y="151.152px" style="font-family:'CourierNewPS-BoldMT', 'Courier New', monospace;font-weight:700;font-size:10px;fill:#ef4a52;">hello-world</text><g transform="matrix(1,0,0,1,-81.4068,-50.4739)"><text x="218.603px" y="213.626px" style="font-family:'OpenSans-Regular', 'Open Sans', sans-serif;font-size:10px;fill:#394e55;">T<tspan x="224.585px " y="213.626px ">a</tspan></text><text x="230.597px" y="213.626px" style="font-family:'OpenSans-Regular', 'Open Sans', sans-serif;font-size:10px;fill:#394e55;">g</text><text x="235.625px" y="213.626px" style="font-family:'OpenSans-Regular', 'Open Sans', sans-serif;font-size:10px;fill:#394e55;">:</text></g><text x="200.196px" y="163.152px" style="font-family:'CourierNewPS-BoldMT', 'Courier New', monospace;font-weight:700;font-size:10px;fill:#ef4a52;">latest</text><g><rect x="65.593" y="114.526" width="44" height="28" style="fill:#fff;"/><rect x="65.593" y="114.526" width="44" height="28" style="fill:none;stroke:#708491;stroke-width:2px;stroke-linejoin:round;"/><path d="M67.131,117.767l0,17.88l42.393,0l0,-17.88l-42.393,0Zm0,-7.888l0,-14.724c0,-1.578 -1.059,-2.629 -2.649,-2.629l-4.239,0c-1.59,0 -2.65,1.051 -2.65,2.629l0,56.268c0,1.051 1.06,2.103 2.65,2.103l4.239,0c1.59,0 2.649,-1.052 2.649,-2.103l0,-8.414l42.393,0l0,8.414c0,1.051 1.59,2.103 3.18,2.103l4.239,0c1.59,0 2.65,-1.052 2.65,-2.103l0,-56.268c0,-1.578 -1.06,-2.629 -2.65,-2.629l-4.239,0c-1.59,0 -3.18,1.051 -3.18,2.629l0,14.724l-42.393,0Z" style="fill:#fff;stroke:#008ec0;stroke-width:2px;stroke-linejoin:miter;stroke-miterlimit:8;"/><path d="M68.593,95.526l8,0c0.5,0 1,0.539 1,1.077l0,12.923" style="fill:#fff;stroke:#008ec0;stroke-width:2px;stroke-linejoin:miter;stroke-miterlimit:8;"/><path d="M89.593,109.526l0,-12.923c0,-0.538 0.513,-1.077 1.026,-1.077l18.974,0" style="fill:#fff;stroke:#008ec0;stroke-width:2px;stroke-linejoin:miter;stroke-miterlimit:8;"/><path d="M77.593,117.526l0,16.899" style="fill:none;stroke:#008ec0;stroke-width:2px;stroke-linejoin:miter;stroke-miterlimit:8;"/><path d="M88.593,117.526l0,16.899" style="fill:none;stroke:#008ec0;stroke-width:2px;stroke-linejoin:miter;stroke-miterlimit:8;"/><path d="M99.593,117.526l0,16.899" style="fill:none;stroke:#008ec0;stroke-width:2px;stroke-linejoin:miter;stroke-miterlimit:8;"/><path d="M99.593,95.526l0,14.164" style="fill:none;stroke:#008ec0;stroke-width:2px;stroke-linejoin:miter;stroke-miterlimit:8;"/></g><path d="M137.196,116.652l118,0l0,1l-29.5,0l-29.5,0l-29.5,0l-29.5,0l0,-1Z" style="fill:#00f;"/><path d="M90.093,147.026l3.318,5.83l-2.47,0.133l0.198,2.485l0.505,4.015l0.746,4.423l1.035,4.648l1.371,4.695l1.899,5.092l2.467,5.809l2.853,6.309l3.053,6.592l0.001,0.004l5.968,13.166l0.007,0.015l2.547,6.144l0.008,0.022l2.011,5.566l0.011,0.036l1.453,5.198l0.008,0.034l1.062,5.124l0.006,0.033l1.337,9.674l0.002,0.016l0.468,4.37l0.462,3.931l0.55,3.394l0.733,2.776l0.782,2.07l0.672,1.382l0.601,0.798l0.565,0.378l1.778,0.226l1.308,0.009l0.027,0.001l1.689,0.103l-0.061,0.998l-1.675,-0.102l-1.325,-0.009l-0.06,-0.004l-1.923,-0.245l-0.215,-0.08l-0.734,-0.49l-0.122,-0.115l-0.681,-0.905l-0.051,-0.082l-0.703,-1.446l-0.018,-0.042l-0.799,-2.116l-0.016,-0.049l-0.745,-2.824l-0.01,-0.048l-0.556,-3.429l-0.003,-0.021l-0.464,-3.945l-0.001,-0.005l-0.467,-4.365l-1.333,-9.65l-1.055,-5.092l-1.444,-5.164l-2.001,-5.538l-2.539,-6.126l-5.964,-13.158l-3.053,-6.592l-0.001,-0.004l-2.856,-6.316l-0.005,-0.011l-2.474,-5.825l-0.008,-0.02l-1.91,-5.119l-0.011,-0.035l-1.38,-4.728l-0.008,-0.032l-1.042,-4.676l-0.005,-0.026l-0.75,-4.446l-0.003,-0.021l-0.507,-4.037l-0.003,-0.023l-0.201,-2.521l-2.522,0.136l2.673,-6.153Z" style="fill:#01a08d;fill-rule:nonzero;"/></svg>